<?xml version="1.0" encoding="us-ascii" standalone="no"?><svg xmlns="http://www.w3.org/2000/svg" xmlns:xlink="http://www.w3.org/1999/xlink" contentStyleType="text/css" height="477px" preserveAspectRatio="none" style="width:679px;height:477px;background:#FFFFFF;" version="1.1" viewBox="0 0 679 477" width="679px" zoomAndPan="magnify"><defs/><g><rect fill="#FFFFFF" height="415.416" style="stroke:#181818;stroke-width:1.0;" width="10" x="122" y="46.4883"/><rect fill="#FFFFFF" height="311.4844" style="stroke:#181818;stroke-width:1.0;" width="10" x="127" y="105.1094"/><rect fill="#FFFFFF" height="40.3105" style="stroke:#181818;stroke-width:1.0;" width="10" x="132" y="147.4199"/><rect fill="#FFFFFF" height="29.3105" style="stroke:#181818;stroke-width:1.0;" width="10" x="282" y="224.041"/><rect fill="#FFFFFF" height="113.9316" style="stroke:#181818;stroke-width:1.0;" width="10" x="479" y="282.6621"/><rect fill="#FFFFFF" height="40.3105" style="stroke:#181818;stroke-width:1.0;" width="10" x="484" y="319.9727"/><line style="stroke:#181818;stroke-width:0.5;stroke-dasharray:5.0,5.0;" x1="127" x2="127" y1="36.4883" y2="470.9043"/><line style="stroke:#181818;stroke-width:0.5;stroke-dasharray:5.0,5.0;" x1="286.5" x2="286.5" y1="36.4883" y2="470.9043"/><line style="stroke:#181818;stroke-width:0.5;stroke-dasharray:5.0,5.0;" x1="483.5" x2="483.5" y1="36.4883" y2="470.9043"/><rect fill="#3333C4" height="30.4883" rx="2.5" ry="2.5" style="stroke:#181818;stroke-width:0.5;" width="98" x="78" y="5"/><text fill="#000000" font-family="sans-serif" font-size="14" lengthAdjust="spacing" textLength="84" x="85" y="25.5352">:ActivityGoal</text><rect fill="#D3D3D3" height="30.4883" rx="2.5" ry="2.5" style="stroke:#181818;stroke-width:0.5;" width="79" x="247.5" y="5"/><text fill="#000000" font-family="sans-serif" font-size="14" lengthAdjust="spacing" textLength="65" x="254.5" y="25.5352">data:Data</text><rect fill="#D3D3D3" height="30.4883" rx="2.5" ry="2.5" style="stroke:#181818;stroke-width:0.5;" width="149" x="409.5" y="5"/><text fill="#000000" font-family="sans-serif" font-size="14" lengthAdjust="spacing" textLength="135" x="416.5" y="25.5352">activities:ActivityList</text><rect fill="#FFFFFF" height="415.416" style="stroke:#181818;stroke-width:1.0;" width="10" x="122" y="46.4883"/><rect fill="#FFFFFF" height="311.4844" style="stroke:#181818;stroke-width:1.0;" width="10" x="127" y="105.1094"/><rect fill="#FFFFFF" height="40.3105" style="stroke:#181818;stroke-width:1.0;" width="10" x="132" y="147.4199"/><rect fill="#FFFFFF" height="29.3105" style="stroke:#181818;stroke-width:1.0;" width="10" x="282" y="224.041"/><rect fill="#FFFFFF" height="113.9316" style="stroke:#181818;stroke-width:1.0;" width="10" x="479" y="282.6621"/><rect fill="#FFFFFF" height="40.3105" style="stroke:#181818;stroke-width:1.0;" width="10" x="484" y="319.9727"/><polygon fill="#181818" points="110,63.7988,120,67.7988,110,71.7988" style="stroke:#181818;stroke-width:1.0;"/><line style="stroke:#181818;stroke-width:1.0;" x1="0" x2="116" y1="67.7988" y2="67.7988"/><text fill="#000000" font-family="sans-serif" font-size="13" lengthAdjust="spacing" textLength="103" x="9.5" y="63.0566">isAchieved(data)</text><line style="stroke:#181818;stroke-width:1.0;" x1="132" x2="179" y1="92.1094" y2="92.1094"/><line style="stroke:#181818;stroke-width:1.0;" x1="179" x2="179" y1="92.1094" y2="105.1094"/><line style="stroke:#181818;stroke-width:1.0;" x1="138" x2="179" y1="105.1094" y2="105.1094"/><polygon fill="#181818" points="148,101.1094,138,105.1094,148,109.1094" style="stroke:#181818;stroke-width:1.0;"/><text fill="#000000" font-family="sans-serif" font-size="13" lengthAdjust="spacing" textLength="136" x="144" y="87.3672">getCurrentValue(data)</text><line style="stroke:#181818;stroke-width:1.0;" x1="137" x2="184" y1="134.4199" y2="134.4199"/><line style="stroke:#181818;stroke-width:1.0;" x1="184" x2="184" y1="134.4199" y2="147.4199"/><line style="stroke:#181818;stroke-width:1.0;" x1="143" x2="184" y1="147.4199" y2="147.4199"/><polygon fill="#181818" points="153,143.4199,143,147.4199,153,151.4199" style="stroke:#181818;stroke-width:1.0;"/><text fill="#000000" font-family="sans-serif" font-size="13" lengthAdjust="spacing" textLength="110" x="149" y="129.6777">getActivityClass()</text><line style="stroke:#181818;stroke-width:1.0;stroke-dasharray:2.0,2.0;" x1="142" x2="184" y1="186.7305" y2="186.7305"/><line style="stroke:#181818;stroke-width:1.0;stroke-dasharray:2.0,2.0;" x1="184" x2="184" y1="186.7305" y2="199.7305"/><line style="stroke:#181818;stroke-width:1.0;stroke-dasharray:2.0,2.0;" x1="137" x2="184" y1="199.7305" y2="199.7305"/><polygon fill="#181818" points="147,195.7305,137,199.7305,147,203.7305" style="stroke:#181818;stroke-width:1.0;"/><text fill="#000000" font-family="sans-serif" font-size="13" lengthAdjust="spacing" textLength="80" x="149" y="181.9883">activityClass</text><polygon fill="#181818" points="270,220.041,280,224.041,270,228.041" style="stroke:#181818;stroke-width:1.0;"/><line style="stroke:#181818;stroke-width:1.0;" x1="137" x2="276" y1="224.041" y2="224.041"/><text fill="#000000" font-family="sans-serif" font-size="13" lengthAdjust="spacing" textLength="87" x="166" y="219.2988">getActivities()</text><polygon fill="#181818" points="148,249.3516,138,253.3516,148,257.3516" style="stroke:#181818;stroke-width:1.0;"/><line style="stroke:#181818;stroke-width:1.0;stroke-dasharray:2.0,2.0;" x1="142" x2="286" y1="253.3516" y2="253.3516"/><text fill="#000000" font-family="sans-serif" font-size="13" lengthAdjust="spacing" textLength="57" x="183.5" y="248.6094">activities</text><polygon fill="#181818" points="467,278.6621,477,282.6621,467,286.6621" style="stroke:#181818;stroke-width:1.0;"/><line style="stroke:#181818;stroke-width:1.0;" x1="137" x2="473" y1="282.6621" y2="282.6621"/><text fill="#000000" font-family="sans-serif" font-size="13" lengthAdjust="spacing" textLength="323" x="146.5" y="277.9199">getTotalDistance/Duration(activityClass, timespan)</text><line style="stroke:#181818;stroke-width:1.0;" x1="489" x2="536" y1="306.9727" y2="306.9727"/><line style="stroke:#181818;stroke-width:1.0;" x1="536" x2="536" y1="306.9727" y2="319.9727"/><line style="stroke:#181818;stroke-width:1.0;" x1="495" x2="536" y1="319.9727" y2="319.9727"/><polygon fill="#181818" points="505,315.9727,495,319.9727,505,323.9727" style="stroke:#181818;stroke-width:1.0;"/><text fill="#000000" font-family="sans-serif" font-size="13" lengthAdjust="spacing" textLength="171" x="501" y="302.2305">filterByTimespan(timespan)</text><line style="stroke:#181818;stroke-width:1.0;stroke-dasharray:2.0,2.0;" x1="494" x2="536" y1="359.2832" y2="359.2832"/><line style="stroke:#181818;stroke-width:1.0;stroke-dasharray:2.0,2.0;" x1="536" x2="536" y1="359.2832" y2="372.2832"/><line style="stroke:#181818;stroke-width:1.0;stroke-dasharray:2.0,2.0;" x1="489" x2="536" y1="372.2832" y2="372.2832"/><polygon fill="#181818" points="499,368.2832,489,372.2832,499,376.2832" style="stroke:#181818;stroke-width:1.0;"/><text fill="#000000" font-family="sans-serif" font-size="13" lengthAdjust="spacing" textLength="104" x="501" y="354.541">filteredActivities</text><polygon fill="#181818" points="148,392.5938,138,396.5938,148,400.5938" style="stroke:#181818;stroke-width:1.0;"/><line style="stroke:#181818;stroke-width:1.0;stroke-dasharray:2.0,2.0;" x1="142" x2="483" y1="396.5938" y2="396.5938"/><text fill="#000000" font-family="sans-serif" font-size="13" lengthAdjust="spacing" textLength="29" x="296" y="391.8516">total</text><line style="stroke:#181818;stroke-width:1.0;stroke-dasharray:2.0,2.0;" x1="137" x2="179" y1="415.5938" y2="415.5938"/><line style="stroke:#181818;stroke-width:1.0;stroke-dasharray:2.0,2.0;" x1="179" x2="179" y1="415.5938" y2="428.5938"/><line style="stroke:#181818;stroke-width:1.0;stroke-dasharray:2.0,2.0;" x1="132" x2="179" y1="428.5938" y2="428.5938"/><polygon fill="#181818" points="142,424.5938,132,428.5938,142,432.5938" style="stroke:#181818;stroke-width:1.0;"/><polygon fill="#181818" points="11,448.9043,1,452.9043,11,456.9043" style="stroke:#181818;stroke-width:1.0;"/><line style="stroke:#181818;stroke-width:1.0;stroke-dasharray:2.0,2.0;" x1="5" x2="121" y1="452.9043" y2="452.9043"/><text fill="#000000" font-family="sans-serif" font-size="13" lengthAdjust="spacing" textLength="68" x="27" y="448.1621">isAchieved</text><!--SRC=[ZP9RIyD048NVzrUixOCfCUP1du88DOKYL0fQV9KXcQQ3culPII7_taalDfjwoyEox9plx9d9NcwOAnk5OMMWu2OtrqcPXnO_6YmI35A2h8PSsNSgAf2TVk7MeBPSKzB9-vK3z8JMGePJGrcHOy4waGLhfIvIN5E1Uh6SFyPlyNAnVDRZ6_dYMwN4WocXIbBeKJHDcBR4xRm4Cz9WTV-WR-1oAJ14CrbsJBVHOucnuQp6rfN2tf3GVbss8Cixy5JhuqhrG_Y-2kwTM94cEqqsX5jClIx9n07qGExxaSwGuwQkPJwlO1hyFtKyYWrOwmsH0HC4qR6bFN1sGpSfrrbw5zlT17-n4vKwCplL3fQhai7CPBWWhoESDJKmbONdHBhIJ3bQ-JSJrHl_cTsQZBobXtPrK7lVOmxN1Tvpc9xQ6-g7BNANMlqrMNKN13- -Way0]--></g></svg>