<?xml version="1.0" encoding="us-ascii" standalone="no"?><svg xmlns="http://www.w3.org/2000/svg" xmlns:xlink="http://www.w3.org/1999/xlink" contentStyleType="text/css" height="170px" preserveAspectRatio="none" style="width:1249px;height:170px;background:#FFFFFF;" version="1.1" viewBox="0 0 1249 170" width="1249px" zoomAndPan="magnify"><defs/><g><g id="elem_activities"><rect fill="#F1F1F1" height="36.2969" style="stroke:#181818;stroke-width:0.5;" width="167" x="541" y="7"/><text fill="#000000" font-family="sans-serif" font-size="14" lengthAdjust="spacing" textLength="153" x="548" y="21.9951">activities:ActivityList</text><line style="stroke:#181818;stroke-width:0.5;" x1="542" x2="707" y1="27.2969" y2="27.2969"/></g><g id="elem_run1"><rect fill="#90EE90" height="60.8906" style="stroke:#181818;stroke-width:0.5;" width="219" x="7" y="103"/><text fill="#000000" font-family="sans-serif" font-size="14" lengthAdjust="spacing" textLength="64" x="84.5" y="117.9951">run1:Run</text><line style="stroke:#181818;stroke-width:0.5;" x1="8" x2="225" y1="123.2969" y2="123.2969"/><text fill="#000000" font-family="sans-serif" font-size="14" lengthAdjust="spacing" textLength="116" x="13" y="140.292">distance = 5000</text><text fill="#000000" font-family="sans-serif" font-size="14" lengthAdjust="spacing" textLength="207" x="13" y="156.5889">startDateTime = 2023-11-11</text></g><g id="elem_run2"><rect fill="#90EE90" height="60.8906" style="stroke:#181818;stroke-width:0.5;" width="219" x="261" y="103"/><text fill="#000000" font-family="sans-serif" font-size="14" lengthAdjust="spacing" textLength="63" x="339" y="117.9951">run2:Run</text><line style="stroke:#181818;stroke-width:0.5;" x1="262" x2="479" y1="123.2969" y2="123.2969"/><text fill="#000000" font-family="sans-serif" font-size="14" lengthAdjust="spacing" textLength="116" x="267" y="140.292">distance = 5000</text><text fill="#000000" font-family="sans-serif" font-size="14" lengthAdjust="spacing" textLength="207" x="267" y="156.5889">startDateTime = 2023-11-10</text></g><g id="elem_swim"><rect fill="#F1F1F1" height="60.8906" style="stroke:#181818;stroke-width:0.5;" width="219" x="515" y="103"/><text fill="#000000" font-family="sans-serif" font-size="14" lengthAdjust="spacing" textLength="79" x="585" y="117.9951">swim:Swim</text><line style="stroke:#181818;stroke-width:0.5;" x1="516" x2="733" y1="123.2969" y2="123.2969"/><text fill="#000000" font-family="sans-serif" font-size="14" lengthAdjust="spacing" textLength="116" x="521" y="140.292">distance = 1000</text><text fill="#000000" font-family="sans-serif" font-size="14" lengthAdjust="spacing" textLength="207" x="521" y="156.5889">startDateTime = 2023-10-11</text></g><g id="elem_cycle"><rect fill="#F1F1F1" height="60.8906" style="stroke:#181818;stroke-width:0.5;" width="219" x="769" y="103"/><text fill="#000000" font-family="sans-serif" font-size="14" lengthAdjust="spacing" textLength="81" x="838" y="117.9951">cycle:Cycle</text><line style="stroke:#181818;stroke-width:0.5;" x1="770" x2="987" y1="123.2969" y2="123.2969"/><text fill="#000000" font-family="sans-serif" font-size="14" lengthAdjust="spacing" textLength="124" x="775" y="140.292">distance = 40000</text><text fill="#000000" font-family="sans-serif" font-size="14" lengthAdjust="spacing" textLength="207" x="775" y="156.5889">startDateTime = 2023-10-10</text></g><g id="elem_activity"><rect fill="#F1F1F1" height="60.8906" style="stroke:#181818;stroke-width:0.5;" width="219" x="1023" y="103"/><text fill="#000000" font-family="sans-serif" font-size="14" lengthAdjust="spacing" textLength="115" x="1075" y="117.9951">activity:Activity</text><line style="stroke:#181818;stroke-width:0.5;" x1="1024" x2="1241" y1="123.2969" y2="123.2969"/><text fill="#000000" font-family="sans-serif" font-size="14" lengthAdjust="spacing" textLength="107" x="1029" y="140.292">distance = 100</text><text fill="#000000" font-family="sans-serif" font-size="14" lengthAdjust="spacing" textLength="207" x="1029" y="156.5889">startDateTime = 2023-10-09</text></g><!--link activities to run1--><g id="link_activities_run1"><path codeLine="29" d="M540.739,42.208 C463.446,57.334 345.552,80.84 243.5,103 C237.859,104.2248 237.9381,104.1923 232.1081,105.4926 " fill="none" id="activities-to-run1" style="stroke:#181818;stroke-width:1.0;"/><polygon fill="#181818" points="226.252,106.7987,235.9069,108.7436,231.1321,105.7103,234.1654,100.9354,226.252,106.7987" style="stroke:#181818;stroke-width:1.0;"/></g><!--link activities to run2--><g id="link_activities_run2"><path codeLine="30" d="M583.691,43.111 C545.266,59.222 492.4453,81.3695 446.4963,100.6354 " fill="none" id="activities-to-run2" style="stroke:#181818;stroke-width:1.0;"/><polygon fill="#181818" points="440.963,102.9554,450.8096,103.1642,445.5741,101.022,447.7162,95.7865,440.963,102.9554" style="stroke:#181818;stroke-width:1.0;"/></g><!--link activities to swim--><g id="link_activities_swim"><path codeLine="31" d="M624.5,43.111 C624.5,59.222 624.5,77.6895 624.5,96.9554 " fill="none" id="activities-to-swim" style="stroke:#181818;stroke-width:1.0;"/><polygon fill="#181818" points="624.5,102.9554,628.5,93.9554,624.5,97.9554,620.5,93.9554,624.5,102.9554" style="stroke:#181818;stroke-width:1.0;"/></g><!--link activities to cycle--><g id="link_activities_cycle"><path codeLine="32" d="M665.309,43.111 C703.734,59.222 756.5547,81.3695 802.5037,100.6354 " fill="none" id="activities-to-cycle" style="stroke:#181818;stroke-width:1.0;"/><polygon fill="#181818" points="808.037,102.9554,801.2838,95.7865,803.4259,101.022,798.1904,103.1642,808.037,102.9554" style="stroke:#181818;stroke-width:1.0;"/></g><!--link activities to activity--><g id="link_activities_activity"><path codeLine="33" d="M708.261,42.208 C785.554,57.334 903.448,80.84 1005.5,103 C1011.14,104.2248 1011.0639,104.1923 1016.8939,105.4926 " fill="none" id="activities-to-activity" style="stroke:#181818;stroke-width:1.0;"/><polygon fill="#181818" points="1022.75,106.7987,1014.8366,100.9354,1017.8699,105.7103,1013.0951,108.7436,1022.75,106.7987" style="stroke:#181818;stroke-width:1.0;"/></g><!--SRC=[fP7H2i8W58RlznIohWTgTP5G47NPLVK2PhACpS5qXKJldjegSsDT97Bm_1u_Vi-f3cVED4Wfq-8YjE2AB9z7in5Afu0gyBa3j-IU95Nxfcua8jj6-YANW54XyfFEQywbBGLs7Is4IiR174mXX5wpIgtNLFEzADq5XdYS8MHtHCSX7VzBXo5TNKL9TZPulCkwI3ICX95XPbZ1oSf53_Lvbpg1Fx5VJjlkc_TSmfcONjU3T3Xpz62cMRRmq-lHSAovHiMQ_sSillmz0000]--></g></svg>