<?xml version="1.0" encoding="us-ascii" standalone="no"?><svg xmlns="http://www.w3.org/2000/svg" xmlns:xlink="http://www.w3.org/1999/xlink" contentStyleType="text/css" height="828px" preserveAspectRatio="none" style="width:777px;height:828px;background:#FFFFFF;" version="1.1" viewBox="0 0 777 828" width="777px" zoomAndPan="magnify"><defs/><g><rect fill="#FFFFFF" height="350.1055" style="stroke:#FFFFFF;stroke-width:1.0;" width="10" x="30.5" y="62.9766"/><line style="stroke:#181818;stroke-width:1.0;" x1="30.5" x2="30.5" y1="62.9766" y2="413.082"/><line style="stroke:#181818;stroke-width:1.0;" x1="40.5" x2="40.5" y1="62.9766" y2="413.082"/><line style="stroke:#181818;stroke-width:1.0;" x1="30.5" x2="40.5" y1="62.9766" y2="62.9766"/><rect fill="#FFFFFF" height="169.9316" style="stroke:#FFFFFF;stroke-width:1.0;" width="10" x="30.5" y="454.0371"/><line style="stroke:#181818;stroke-width:1.0;" x1="30.5" x2="30.5" y1="454.0371" y2="623.9688"/><line style="stroke:#181818;stroke-width:1.0;" x1="40.5" x2="40.5" y1="454.0371" y2="623.9688"/><rect fill="#FFFFFF" height="147.5527" style="stroke:#FFFFFF;stroke-width:1.0;" width="10" x="30.5" y="664.9238"/><line style="stroke:#181818;stroke-width:1.0;" x1="30.5" x2="30.5" y1="664.9238" y2="812.4766"/><line style="stroke:#181818;stroke-width:1.0;" x1="40.5" x2="40.5" y1="664.9238" y2="812.4766"/><line style="stroke:#181818;stroke-width:1.0;" x1="30.5" x2="40.5" y1="812.4766" y2="812.4766"/><rect fill="#FFFFFF" height="328.7949" style="stroke:#FFFFFF;stroke-width:1.0;" width="10" x="216.5" y="84.2871"/><line style="stroke:#181818;stroke-width:1.0;" x1="216.5" x2="216.5" y1="84.2871" y2="413.082"/><line style="stroke:#181818;stroke-width:1.0;" x1="226.5" x2="226.5" y1="84.2871" y2="413.082"/><line style="stroke:#181818;stroke-width:1.0;" x1="216.5" x2="226.5" y1="84.2871" y2="84.2871"/><rect fill="#FFFFFF" height="169.9316" style="stroke:#FFFFFF;stroke-width:1.0;" width="10" x="216.5" y="454.0371"/><line style="stroke:#181818;stroke-width:1.0;" x1="216.5" x2="216.5" y1="454.0371" y2="623.9688"/><line style="stroke:#181818;stroke-width:1.0;" x1="226.5" x2="226.5" y1="454.0371" y2="623.9688"/><rect fill="#FFFFFF" height="138.5527" style="stroke:#FFFFFF;stroke-width:1.0;" width="10" x="216.5" y="664.9238"/><line style="stroke:#181818;stroke-width:1.0;" x1="216.5" x2="216.5" y1="664.9238" y2="803.4766"/><line style="stroke:#181818;stroke-width:1.0;" x1="226.5" x2="226.5" y1="664.9238" y2="803.4766"/><line style="stroke:#181818;stroke-width:1.0;" x1="216.5" x2="226.5" y1="803.4766" y2="803.4766"/><rect fill="#FFFFFF" height="232.8633" style="stroke:#FFFFFF;stroke-width:1.0;" width="10" x="221.5" y="180.2188"/><line style="stroke:#181818;stroke-width:1.0;" x1="221.5" x2="221.5" y1="180.2188" y2="413.082"/><line style="stroke:#181818;stroke-width:1.0;" x1="231.5" x2="231.5" y1="180.2188" y2="413.082"/><line style="stroke:#181818;stroke-width:1.0;" x1="221.5" x2="231.5" y1="180.2188" y2="180.2188"/><rect fill="#FFFFFF" height="96.3105" style="stroke:#FFFFFF;stroke-width:1.0;" width="10" x="221.5" y="454.0371"/><line style="stroke:#181818;stroke-width:1.0;" x1="221.5" x2="221.5" y1="454.0371" y2="550.3477"/><line style="stroke:#181818;stroke-width:1.0;" x1="231.5" x2="231.5" y1="454.0371" y2="550.3477"/><line style="stroke:#181818;stroke-width:1.0;" x1="221.5" x2="231.5" y1="550.3477" y2="550.3477"/><rect fill="#FFFFFF" height="123.9316" style="stroke:#FFFFFF;stroke-width:1.0;" width="10" x="226.5" y="289.1504"/><line style="stroke:#181818;stroke-width:1.0;" x1="226.5" x2="226.5" y1="289.1504" y2="413.082"/><line style="stroke:#181818;stroke-width:1.0;" x1="236.5" x2="236.5" y1="289.1504" y2="413.082"/><line style="stroke:#181818;stroke-width:1.0;" x1="226.5" x2="236.5" y1="289.1504" y2="289.1504"/><rect fill="#FFFFFF" height="62.3105" style="stroke:#FFFFFF;stroke-width:1.0;" width="10" x="226.5" y="454.0371"/><line style="stroke:#181818;stroke-width:1.0;" x1="226.5" x2="226.5" y1="454.0371" y2="516.3477"/><line style="stroke:#181818;stroke-width:1.0;" x1="236.5" x2="236.5" y1="454.0371" y2="516.3477"/><line style="stroke:#181818;stroke-width:1.0;" x1="226.5" x2="236.5" y1="516.3477" y2="516.3477"/><rect fill="#FFFFFF" height="29.3105" style="stroke:#181818;stroke-width:1.0;" width="10" x="610.5" y="113.5977"/><rect fill="#FFFFFF" height="14" style="stroke:#181818;stroke-width:1.0;" width="10" x="610.5" y="347.7715"/><rect fill="#FFFFFF" height="14" style="stroke:#181818;stroke-width:1.0;" width="10" x="610.5" y="391.082"/><rect fill="#FFFFFF" height="14" style="stroke:#181818;stroke-width:1.0;" width="10" x="610.5" y="475.3477"/><rect fill="#FFFFFF" height="29.3105" style="stroke:#181818;stroke-width:1.0;" width="10" x="610.5" y="586.6582"/><rect fill="#FFFFFF" height="29.3105" style="stroke:#181818;stroke-width:1.0;" width="10" x="610.5" y="686.2344"/><rect fill="#FFFFFF" height="29.3105" style="stroke:#181818;stroke-width:1.0;" width="10" x="729" y="744.8555"/><rect fill="none" height="331.1289" style="stroke:#000000;stroke-width:1.5;" width="558" x="148.5" y="200.2188"/><rect fill="none" height="188.1973" style="stroke:#000000;stroke-width:1.5;" width="538" x="158.5" y="309.1504"/><line style="stroke:#181818;stroke-width:0.5;stroke-dasharray:5.0,5.0;" x1="35" x2="35" y1="52.9766" y2="413.082"/><line style="stroke:#A80036;stroke-width:1.0;stroke-dasharray:1.0,4.0;" x1="35" x2="35" y1="413.082" y2="454.0371"/><line style="stroke:#181818;stroke-width:0.5;stroke-dasharray:5.0,5.0;" x1="35" x2="35" y1="454.0371" y2="623.9688"/><line style="stroke:#A80036;stroke-width:1.0;stroke-dasharray:1.0,4.0;" x1="35" x2="35" y1="623.9688" y2="664.9238"/><line style="stroke:#181818;stroke-width:0.5;stroke-dasharray:5.0,5.0;" x1="35" x2="35" y1="664.9238" y2="821.4766"/><line style="stroke:#181818;stroke-width:0.5;stroke-dasharray:5.0,5.0;" x1="221.5" x2="221.5" y1="52.9766" y2="413.082"/><line style="stroke:#A80036;stroke-width:1.0;stroke-dasharray:1.0,4.0;" x1="221.5" x2="221.5" y1="413.082" y2="454.0371"/><line style="stroke:#181818;stroke-width:0.5;stroke-dasharray:5.0,5.0;" x1="221.5" x2="221.5" y1="454.0371" y2="623.9688"/><line style="stroke:#A80036;stroke-width:1.0;stroke-dasharray:1.0,4.0;" x1="221.5" x2="221.5" y1="623.9688" y2="664.9238"/><line style="stroke:#181818;stroke-width:0.5;stroke-dasharray:5.0,5.0;" x1="221.5" x2="221.5" y1="664.9238" y2="821.4766"/><line style="stroke:#181818;stroke-width:0.5;stroke-dasharray:5.0,5.0;" x1="615.5" x2="615.5" y1="52.9766" y2="413.082"/><line style="stroke:#A80036;stroke-width:1.0;stroke-dasharray:1.0,4.0;" x1="615.5" x2="615.5" y1="413.082" y2="454.0371"/><line style="stroke:#181818;stroke-width:0.5;stroke-dasharray:5.0,5.0;" x1="615.5" x2="615.5" y1="454.0371" y2="623.9688"/><line style="stroke:#A80036;stroke-width:1.0;stroke-dasharray:1.0,4.0;" x1="615.5" x2="615.5" y1="623.9688" y2="664.9238"/><line style="stroke:#181818;stroke-width:0.5;stroke-dasharray:5.0,5.0;" x1="615.5" x2="615.5" y1="664.9238" y2="821.4766"/><line style="stroke:#181818;stroke-width:0.5;stroke-dasharray:5.0,5.0;" x1="733.5" x2="733.5" y1="52.9766" y2="413.082"/><line style="stroke:#A80036;stroke-width:1.0;stroke-dasharray:1.0,4.0;" x1="733.5" x2="733.5" y1="413.082" y2="454.0371"/><line style="stroke:#181818;stroke-width:0.5;stroke-dasharray:5.0,5.0;" x1="733.5" x2="733.5" y1="454.0371" y2="623.9688"/><line style="stroke:#A80036;stroke-width:1.0;stroke-dasharray:1.0,4.0;" x1="733.5" x2="733.5" y1="623.9688" y2="664.9238"/><line style="stroke:#181818;stroke-width:0.5;stroke-dasharray:5.0,5.0;" x1="733.5" x2="733.5" y1="664.9238" y2="821.4766"/><rect fill="#ADD8E6" height="46.9766" rx="2.5" ry="2.5" style="stroke:#181818;stroke-width:0.5;" width="61" x="5" y="5"/><text fill="#000000" font-family="sans-serif" font-size="14" font-style="italic" lengthAdjust="spacing" textLength="47" x="12" y="25.5352">&#171;class&#187;</text><text fill="#000000" font-family="sans-serif" font-size="14" lengthAdjust="spacing" textLength="43" x="14" y="42.0234">Parser</text><rect fill="#90EE90" height="46.9766" rx="2.5" ry="2.5" style="stroke:#181818;stroke-width:0.5;" width="106" x="168.5" y="5"/><text fill="#000000" font-family="sans-serif" font-size="14" font-style="italic" lengthAdjust="spacing" textLength="47" x="198" y="25.5352">&#171;class&#187;</text><text fill="#000000" font-family="sans-serif" font-size="14" lengthAdjust="spacing" textLength="92" x="175.5" y="42.0234">ActivityParser</text><rect fill="#D3D3D3" height="30.4883" rx="2.5" ry="2.5" style="stroke:#181818;stroke-width:0.5;" width="142" x="544.5" y="21.4883"/><text fill="#000000" font-family="sans-serif" font-size="14" lengthAdjust="spacing" textLength="128" x="551.5" y="42.0234">ac:ActivityChanges</text><rect fill="#D3D3D3" height="30.4883" rx="2.5" ry="2.5" style="stroke:#181818;stroke-width:0.5;" width="75" x="696.5" y="21.4883"/><text fill="#000000" font-family="sans-serif" font-size="14" lengthAdjust="spacing" textLength="61" x="703.5" y="42.0234">a:Activity</text><rect fill="#FFFFFF" height="350.1055" style="stroke:#FFFFFF;stroke-width:1.0;" width="10" x="30.5" y="62.9766"/><line style="stroke:#181818;stroke-width:1.0;" x1="30.5" x2="30.5" y1="62.9766" y2="413.082"/><line style="stroke:#181818;stroke-width:1.0;" x1="40.5" x2="40.5" y1="62.9766" y2="413.082"/><line style="stroke:#181818;stroke-width:1.0;" x1="30.5" x2="40.5" y1="62.9766" y2="62.9766"/><rect fill="#FFFFFF" height="169.9316" style="stroke:#FFFFFF;stroke-width:1.0;" width="10" x="30.5" y="454.0371"/><line style="stroke:#181818;stroke-width:1.0;" x1="30.5" x2="30.5" y1="454.0371" y2="623.9688"/><line style="stroke:#181818;stroke-width:1.0;" x1="40.5" x2="40.5" y1="454.0371" y2="623.9688"/><rect fill="#FFFFFF" height="147.5527" style="stroke:#FFFFFF;stroke-width:1.0;" width="10" x="30.5" y="664.9238"/><line style="stroke:#181818;stroke-width:1.0;" x1="30.5" x2="30.5" y1="664.9238" y2="812.4766"/><line style="stroke:#181818;stroke-width:1.0;" x1="40.5" x2="40.5" y1="664.9238" y2="812.4766"/><line style="stroke:#181818;stroke-width:1.0;" x1="30.5" x2="40.5" y1="812.4766" y2="812.4766"/><rect fill="#FFFFFF" height="328.7949" style="stroke:#FFFFFF;stroke-width:1.0;" width="10" x="216.5" y="84.2871"/><line style="stroke:#181818;stroke-width:1.0;" x1="216.5" x2="216.5" y1="84.2871" y2="413.082"/><line style="stroke:#181818;stroke-width:1.0;" x1="226.5" x2="226.5" y1="84.2871" y2="413.082"/><line style="stroke:#181818;stroke-width:1.0;" x1="216.5" x2="226.5" y1="84.2871" y2="84.2871"/><rect fill="#FFFFFF" height="169.9316" style="stroke:#FFFFFF;stroke-width:1.0;" width="10" x="216.5" y="454.0371"/><line style="stroke:#181818;stroke-width:1.0;" x1="216.5" x2="216.5" y1="454.0371" y2="623.9688"/><line style="stroke:#181818;stroke-width:1.0;" x1="226.5" x2="226.5" y1="454.0371" y2="623.9688"/><rect fill="#FFFFFF" height="138.5527" style="stroke:#FFFFFF;stroke-width:1.0;" width="10" x="216.5" y="664.9238"/><line style="stroke:#181818;stroke-width:1.0;" x1="216.5" x2="216.5" y1="664.9238" y2="803.4766"/><line style="stroke:#181818;stroke-width:1.0;" x1="226.5" x2="226.5" y1="664.9238" y2="803.4766"/><line style="stroke:#181818;stroke-width:1.0;" x1="216.5" x2="226.5" y1="803.4766" y2="803.4766"/><rect fill="#FFFFFF" height="232.8633" style="stroke:#FFFFFF;stroke-width:1.0;" width="10" x="221.5" y="180.2188"/><line style="stroke:#181818;stroke-width:1.0;" x1="221.5" x2="221.5" y1="180.2188" y2="413.082"/><line style="stroke:#181818;stroke-width:1.0;" x1="231.5" x2="231.5" y1="180.2188" y2="413.082"/><line style="stroke:#181818;stroke-width:1.0;" x1="221.5" x2="231.5" y1="180.2188" y2="180.2188"/><rect fill="#FFFFFF" height="96.3105" style="stroke:#FFFFFF;stroke-width:1.0;" width="10" x="221.5" y="454.0371"/><line style="stroke:#181818;stroke-width:1.0;" x1="221.5" x2="221.5" y1="454.0371" y2="550.3477"/><line style="stroke:#181818;stroke-width:1.0;" x1="231.5" x2="231.5" y1="454.0371" y2="550.3477"/><line style="stroke:#181818;stroke-width:1.0;" x1="221.5" x2="231.5" y1="550.3477" y2="550.3477"/><rect fill="#FFFFFF" height="123.9316" style="stroke:#FFFFFF;stroke-width:1.0;" width="10" x="226.5" y="289.1504"/><line style="stroke:#181818;stroke-width:1.0;" x1="226.5" x2="226.5" y1="289.1504" y2="413.082"/><line style="stroke:#181818;stroke-width:1.0;" x1="236.5" x2="236.5" y1="289.1504" y2="413.082"/><line style="stroke:#181818;stroke-width:1.0;" x1="226.5" x2="236.5" y1="289.1504" y2="289.1504"/><rect fill="#FFFFFF" height="62.3105" style="stroke:#FFFFFF;stroke-width:1.0;" width="10" x="226.5" y="454.0371"/><line style="stroke:#181818;stroke-width:1.0;" x1="226.5" x2="226.5" y1="454.0371" y2="516.3477"/><line style="stroke:#181818;stroke-width:1.0;" x1="236.5" x2="236.5" y1="454.0371" y2="516.3477"/><line style="stroke:#181818;stroke-width:1.0;" x1="226.5" x2="236.5" y1="516.3477" y2="516.3477"/><rect fill="#FFFFFF" height="29.3105" style="stroke:#181818;stroke-width:1.0;" width="10" x="610.5" y="113.5977"/><rect fill="#FFFFFF" height="14" style="stroke:#181818;stroke-width:1.0;" width="10" x="610.5" y="347.7715"/><rect fill="#FFFFFF" height="14" style="stroke:#181818;stroke-width:1.0;" width="10" x="610.5" y="391.082"/><rect fill="#FFFFFF" height="14" style="stroke:#181818;stroke-width:1.0;" width="10" x="610.5" y="475.3477"/><rect fill="#FFFFFF" height="29.3105" style="stroke:#181818;stroke-width:1.0;" width="10" x="610.5" y="586.6582"/><rect fill="#FFFFFF" height="29.3105" style="stroke:#181818;stroke-width:1.0;" width="10" x="610.5" y="686.2344"/><rect fill="#FFFFFF" height="29.3105" style="stroke:#181818;stroke-width:1.0;" width="10" x="729" y="744.8555"/><polygon fill="#181818" points="204.5,80.2871,214.5,84.2871,204.5,88.2871" style="stroke:#181818;stroke-width:1.0;"/><line style="stroke:#181818;stroke-width:1.0;" x1="40.5" x2="210.5" y1="84.2871" y2="84.2871"/><text fill="#000000" font-family="sans-serif" font-size="13" lengthAdjust="spacing" textLength="157" x="50" y="79.5449">parseActivity(arguments)</text><polygon fill="#181818" points="598.5,109.5977,608.5,113.5977,598.5,117.5977" style="stroke:#181818;stroke-width:1.0;"/><line style="stroke:#181818;stroke-width:1.0;" x1="226.5" x2="604.5" y1="113.5977" y2="113.5977"/><text fill="#000000" font-family="sans-serif" font-size="13" lengthAdjust="spacing" textLength="110" x="363.5" y="108.8555">ActivityChanges()</text><polygon fill="#181818" points="237.5,138.9082,227.5,142.9082,237.5,146.9082" style="stroke:#181818;stroke-width:1.0;"/><line style="stroke:#181818;stroke-width:1.0;stroke-dasharray:2.0,2.0;" x1="231.5" x2="614.5" y1="142.9082" y2="142.9082"/><text fill="#000000" font-family="sans-serif" font-size="13" lengthAdjust="spacing" textLength="14" x="414" y="138.166">ac</text><line style="stroke:#181818;stroke-width:1.0;" x1="226.5" x2="273.5" y1="167.2188" y2="167.2188"/><line style="stroke:#181818;stroke-width:1.0;" x1="273.5" x2="273.5" y1="167.2188" y2="180.2188"/><line style="stroke:#181818;stroke-width:1.0;" x1="232.5" x2="273.5" y1="180.2188" y2="180.2188"/><polygon fill="#181818" points="242.5,176.2188,232.5,180.2188,242.5,184.2188" style="stroke:#181818;stroke-width:1.0;"/><text fill="#000000" font-family="sans-serif" font-size="13" lengthAdjust="spacing" textLength="322" x="238.5" y="162.4766">parseActivityArguments(ac, arguments, separators)</text><path d="M148.5,200.2188 L222.5,200.2188 L222.5,207.5293 L212.5,217.5293 L148.5,217.5293 L148.5,200.2188 " fill="#EEEEEE" style="stroke:#000000;stroke-width:1.5;"/><rect fill="none" height="331.1289" style="stroke:#000000;stroke-width:1.5;" width="558" x="148.5" y="200.2188"/><text fill="#000000" font-family="sans-serif" font-size="13" font-weight="bold" lengthAdjust="spacing" textLength="29" x="163.5" y="213.7871">loop</text><text fill="#000000" font-family="sans-serif" font-size="11" font-weight="bold" lengthAdjust="spacing" textLength="110" x="237.5" y="212.8535">[for each separator]</text><line style="stroke:#181818;stroke-width:1.0;" x1="231.5" x2="273.5" y1="238.8398" y2="238.8398"/><line style="stroke:#181818;stroke-width:1.0;" x1="273.5" x2="273.5" y1="238.8398" y2="251.8398"/><line style="stroke:#181818;stroke-width:1.0;" x1="232.5" x2="273.5" y1="251.8398" y2="251.8398"/><polygon fill="#181818" points="242.5,247.8398,232.5,251.8398,242.5,255.8398" style="stroke:#181818;stroke-width:1.0;"/><text fill="#000000" font-family="sans-serif" font-size="13" lengthAdjust="spacing" textLength="365" x="238.5" y="234.0977">checkMissingActivityArgument(separatorIndex, separator)</text><line style="stroke:#181818;stroke-width:1.0;" x1="231.5" x2="278.5" y1="276.1504" y2="276.1504"/><line style="stroke:#181818;stroke-width:1.0;" x1="278.5" x2="278.5" y1="276.1504" y2="289.1504"/><line style="stroke:#181818;stroke-width:1.0;" x1="237.5" x2="278.5" y1="289.1504" y2="289.1504"/><polygon fill="#181818" points="247.5,285.1504,237.5,289.1504,247.5,293.1504" style="stroke:#181818;stroke-width:1.0;"/><text fill="#000000" font-family="sans-serif" font-size="13" lengthAdjust="spacing" textLength="239" x="243.5" y="271.4082">parseSegment(ac, segment, separator)</text><path d="M158.5,309.1504 L220.5,309.1504 L220.5,316.4609 L210.5,326.4609 L158.5,326.4609 L158.5,309.1504 " fill="#EEEEEE" style="stroke:#000000;stroke-width:1.5;"/><rect fill="none" height="188.1973" style="stroke:#000000;stroke-width:1.5;" width="538" x="158.5" y="309.1504"/><text fill="#000000" font-family="sans-serif" font-size="13" font-weight="bold" lengthAdjust="spacing" textLength="17" x="173.5" y="322.7188">alt</text><text fill="#000000" font-family="sans-serif" font-size="11" font-weight="bold" lengthAdjust="spacing" textLength="140" x="235.5" y="321.7852">[depending on separator]</text><polygon fill="#181818" points="598.5,343.7715,608.5,347.7715,598.5,351.7715" style="stroke:#181818;stroke-width:1.0;"/><line style="stroke:#181818;stroke-width:1.0;" x1="236.5" x2="604.5" y1="347.7715" y2="347.7715"/><text fill="#000000" font-family="sans-serif" font-size="13" lengthAdjust="spacing" textLength="130" x="358.5" y="343.0293">setCaption(segment)</text><polygon fill="#181818" points="247.5,357.7715,237.5,361.7715,247.5,365.7715" style="stroke:#181818;stroke-width:1.0;"/><line style="stroke:#181818;stroke-width:1.0;stroke-dasharray:2.0,2.0;" x1="241.5" x2="614.5" y1="361.7715" y2="361.7715"/><polygon fill="#181818" points="598.5,387.082,608.5,391.082,598.5,395.082" style="stroke:#181818;stroke-width:1.0;"/><line style="stroke:#181818;stroke-width:1.0;" x1="236.5" x2="604.5" y1="391.082" y2="391.082"/><text fill="#000000" font-family="sans-serif" font-size="13" lengthAdjust="spacing" textLength="233" x="307" y="386.3398">setDuration(parseDuration(segment))</text><polygon fill="#181818" points="247.5,401.082,237.5,405.082,247.5,409.082" style="stroke:#181818;stroke-width:1.0;"/><line style="stroke:#181818;stroke-width:1.0;stroke-dasharray:2.0,2.0;" x1="241.5" x2="614.5" y1="405.082" y2="405.082"/><text fill="#000000" font-family="sans-serif" font-size="11" lengthAdjust="spacing" textLength="69" x="350.25" y="437.7168">other setters</text><polygon fill="#181818" points="598.5,471.3477,608.5,475.3477,598.5,479.3477" style="stroke:#181818;stroke-width:1.0;"/><line style="stroke:#181818;stroke-width:1.0;" x1="236.5" x2="604.5" y1="475.3477" y2="475.3477"/><text fill="#000000" font-family="sans-serif" font-size="13" lengthAdjust="spacing" textLength="233" x="307" y="470.6055">setDistance(parseDistance(segment))</text><polygon fill="#181818" points="247.5,485.3477,237.5,489.3477,247.5,493.3477" style="stroke:#181818;stroke-width:1.0;"/><line style="stroke:#181818;stroke-width:1.0;stroke-dasharray:2.0,2.0;" x1="241.5" x2="614.5" y1="489.3477" y2="489.3477"/><line style="stroke:#181818;stroke-width:1.0;stroke-dasharray:2.0,2.0;" x1="236.5" x2="278.5" y1="515.3477" y2="515.3477"/><line style="stroke:#181818;stroke-width:1.0;stroke-dasharray:2.0,2.0;" x1="278.5" x2="278.5" y1="515.3477" y2="528.3477"/><line style="stroke:#181818;stroke-width:1.0;stroke-dasharray:2.0,2.0;" x1="231.5" x2="278.5" y1="528.3477" y2="528.3477"/><polygon fill="#181818" points="241.5,524.3477,231.5,528.3477,241.5,532.3477" style="stroke:#181818;stroke-width:1.0;"/><line style="stroke:#181818;stroke-width:1.0;stroke-dasharray:2.0,2.0;" x1="231.5" x2="273.5" y1="549.3477" y2="549.3477"/><line style="stroke:#181818;stroke-width:1.0;stroke-dasharray:2.0,2.0;" x1="273.5" x2="273.5" y1="549.3477" y2="562.3477"/><line style="stroke:#181818;stroke-width:1.0;stroke-dasharray:2.0,2.0;" x1="226.5" x2="273.5" y1="562.3477" y2="562.3477"/><polygon fill="#181818" points="236.5,558.3477,226.5,562.3477,236.5,566.3477" style="stroke:#181818;stroke-width:1.0;"/><polygon fill="#181818" points="598.5,582.6582,608.5,586.6582,598.5,590.6582" style="stroke:#181818;stroke-width:1.0;"/><line style="stroke:#181818;stroke-width:1.0;" x1="226.5" x2="604.5" y1="586.6582" y2="586.6582"/><text fill="#000000" font-family="sans-serif" font-size="13" lengthAdjust="spacing" textLength="77" x="380" y="581.916">getCaption()</text><polygon fill="#181818" points="237.5,611.9688,227.5,615.9688,237.5,619.9688" style="stroke:#181818;stroke-width:1.0;"/><line style="stroke:#181818;stroke-width:1.0;stroke-dasharray:2.0,2.0;" x1="231.5" x2="614.5" y1="615.9688" y2="615.9688"/><text fill="#000000" font-family="sans-serif" font-size="13" lengthAdjust="spacing" textLength="47" x="397.5" y="611.2266">caption</text><text fill="#000000" font-family="sans-serif" font-size="11" lengthAdjust="spacing" textLength="70" x="349.75" y="648.6035">other getters</text><polygon fill="#181818" points="598.5,682.2344,608.5,686.2344,598.5,690.2344" style="stroke:#181818;stroke-width:1.0;"/><line style="stroke:#181818;stroke-width:1.0;" x1="226.5" x2="604.5" y1="686.2344" y2="686.2344"/><text fill="#000000" font-family="sans-serif" font-size="13" lengthAdjust="spacing" textLength="117" x="360" y="681.4922">getStartDateTime()</text><polygon fill="#181818" points="237.5,711.5449,227.5,715.5449,237.5,719.5449" style="stroke:#181818;stroke-width:1.0;"/><line style="stroke:#181818;stroke-width:1.0;stroke-dasharray:2.0,2.0;" x1="231.5" x2="614.5" y1="715.5449" y2="715.5449"/><text fill="#000000" font-family="sans-serif" font-size="13" lengthAdjust="spacing" textLength="89" x="376.5" y="710.8027">startDateTime</text><line style="stroke:#A80036;stroke-width:2.0;" x1="606.5" x2="624.5" y1="706.5449" y2="724.5449"/><line style="stroke:#A80036;stroke-width:2.0;" x1="606.5" x2="624.5" y1="724.5449" y2="706.5449"/><polygon fill="#181818" points="717,740.8555,727,744.8555,717,748.8555" style="stroke:#181818;stroke-width:1.0;"/><line style="stroke:#181818;stroke-width:1.0;" x1="226.5" x2="723" y1="744.8555" y2="744.8555"/><text fill="#000000" font-family="sans-serif" font-size="13" lengthAdjust="spacing" textLength="184" x="385.75" y="740.1133">Activity(caption, duration, ...)</text><polygon fill="#181818" points="237.5,770.166,227.5,774.166,237.5,778.166" style="stroke:#181818;stroke-width:1.0;"/><line style="stroke:#181818;stroke-width:1.0;stroke-dasharray:2.0,2.0;" x1="231.5" x2="733" y1="774.166" y2="774.166"/><text fill="#000000" font-family="sans-serif" font-size="13" lengthAdjust="spacing" textLength="7" x="476.75" y="769.4238">a</text><polygon fill="#181818" points="51.5,799.4766,41.5,803.4766,51.5,807.4766" style="stroke:#181818;stroke-width:1.0;"/><line style="stroke:#181818;stroke-width:1.0;stroke-dasharray:2.0,2.0;" x1="45.5" x2="220.5" y1="803.4766" y2="803.4766"/><text fill="#000000" font-family="sans-serif" font-size="13" lengthAdjust="spacing" textLength="7" x="127.5" y="798.7344">a</text><!--SRC=[fLJRRjim37tNLn3jYuDSFY0e0WJjonuA5CX-W9CvMQWZUw8yB7y_Al5LQJAlzOCXqpmyvuWI-Tsw6ZqUuH1E9G47RtLeZgNYuG_zQiXfUYLcDBGlhN57SW6qlCWhoGfMsnebz8QUoSFJaowHURU3Hyakme-oeKdUNWVxsuRJZNpZYTm4y81wsu6U2tI6-06G8OaD-5C2xz4Js3XVNSGib-q2rhj4vt89MwZZiejdw4qJDuCNIYMcHl1MtHcVnBA5IZsihuZNQm6YliDmI-2-qvUXNa6lTWLCiRkXyb5vMLKr_Amy4EfY-AL0ddzn2gCkIB-_McRhJ4gSzTM-kPp-Z8WNiyeFbWvapWMZ4RwihwfX6I2dcbmkKg1oYPVxX7sNjW8BprW7MxcifLfS5RZNhlzXWpFTIoCo8z_PQ__LiN-IVhFPG1KAOHOAkQmS8vyGPpcWZ81MNFVr1N7IeG_RVtsyujbNCNrcwinhQ8OEpxw1-W9GmwwQqQxEvZq4cKml6EYxFT9yTXx3L4uogwjJod7F_cJyPAsP5UJjMLj55uEQcsD8VTI9IS9V]--></g></svg>