<?xml version="1.0" encoding="us-ascii" standalone="no"?><svg xmlns="http://www.w3.org/2000/svg" xmlns:xlink="http://www.w3.org/1999/xlink" contentStyleType="text/css" height="550px" preserveAspectRatio="none" style="width:459px;height:550px;background:#FFFFFF;" version="1.1" viewBox="0 0 459 550" width="459px" zoomAndPan="magnify"><defs/><g><!--class Activity--><g id="elem_Activity"><rect codeLine="2" fill="#F1F1F1" height="129.4844" id="Activity" rx="2.5" ry="2.5" style="stroke:#181818;stroke-width:0.5;" width="124" x="157.5" y="257"/><ellipse cx="188.7" cy="273" fill="#ADD1B2" rx="11" ry="11" style="stroke:#181818;stroke-width:1.0;"/><path d="M191.0438,268.6719 C190.1063,268.2344 189.5125,268.0938 188.6375,268.0938 C186.0125,268.0938 184.0125,270.1719 184.0125,272.8906 L184.0125,274.0156 C184.0125,276.5938 186.1219,278.4844 189.0125,278.4844 C190.2313,278.4844 191.3875,278.1875 192.1375,277.6406 C192.7156,277.2344 193.0438,276.7813 193.0438,276.3906 C193.0438,275.9375 192.6531,275.5469 192.1844,275.5469 C191.9656,275.5469 191.7625,275.625 191.575,275.8125 C191.1219,276.2969 191.1219,276.2969 190.9344,276.3906 C190.5125,276.6563 189.825,276.7813 189.0594,276.7813 C187.0125,276.7813 185.7156,275.6875 185.7156,273.9844 L185.7156,272.8906 C185.7156,271.1094 186.9656,269.7969 188.7,269.7969 C189.2781,269.7969 189.8875,269.9531 190.3563,270.2031 C190.8406,270.4844 191.0125,270.7031 191.1063,271.1094 C191.1688,271.5156 191.2,271.6406 191.3406,271.7656 C191.4813,271.9063 191.7156,272.0156 191.9344,272.0156 C192.2,272.0156 192.4656,271.875 192.6375,271.6563 C192.7469,271.5 192.7781,271.3125 192.7781,270.8906 L192.7781,269.4688 C192.7781,269.0313 192.7625,268.9063 192.6688,268.75 C192.5125,268.4844 192.2313,268.3438 191.9344,268.3438 C191.6375,268.3438 191.4344,268.4375 191.2156,268.75 L191.0438,268.6719 Z " fill="#000000"/><text fill="#000000" font-family="sans-serif" font-size="14" lengthAdjust="spacing" textLength="56" x="206.3" y="277.8467">Activity</text><line style="stroke:#181818;stroke-width:0.5;" x1="158.5" x2="280.5" y1="289" y2="289"/><text fill="#000000" font-family="sans-serif" font-size="14" lengthAdjust="spacing" textLength="61" x="163.5" y="305.9951">-caption</text><text fill="#000000" font-family="sans-serif" font-size="14" lengthAdjust="spacing" textLength="66" x="163.5" y="322.292">-duration</text><text fill="#000000" font-family="sans-serif" font-size="14" lengthAdjust="spacing" textLength="95" x="163.5" y="338.5889">-movingTime</text><text fill="#000000" font-family="sans-serif" font-size="14" lengthAdjust="spacing" textLength="67" x="163.5" y="354.8857">-distance</text><text fill="#000000" font-family="sans-serif" font-size="14" lengthAdjust="spacing" textLength="112" x="163.5" y="371.1826">-startDateTime</text><line style="stroke:#181818;stroke-width:0.5;" x1="158.5" x2="280.5" y1="378.4844" y2="378.4844"/></g><!--class Run--><g id="elem_Run"><rect codeLine="10" fill="#F1F1F1" height="80.5938" id="Run" rx="2.5" ry="2.5" style="stroke:#181818;stroke-width:0.5;" width="117" x="7" y="455"/><ellipse cx="48.1" cy="471" fill="#ADD1B2" rx="11" ry="11" style="stroke:#181818;stroke-width:1.0;"/><path d="M50.4438,466.6719 C49.5063,466.2344 48.9125,466.0938 48.0375,466.0938 C45.4125,466.0938 43.4125,468.1719 43.4125,470.8906 L43.4125,472.0156 C43.4125,474.5938 45.5219,476.4844 48.4125,476.4844 C49.6313,476.4844 50.7875,476.1875 51.5375,475.6406 C52.1156,475.2344 52.4438,474.7813 52.4438,474.3906 C52.4438,473.9375 52.0531,473.5469 51.5844,473.5469 C51.3656,473.5469 51.1625,473.625 50.975,473.8125 C50.5219,474.2969 50.5219,474.2969 50.3344,474.3906 C49.9125,474.6563 49.225,474.7813 48.4594,474.7813 C46.4125,474.7813 45.1156,473.6875 45.1156,471.9844 L45.1156,470.8906 C45.1156,469.1094 46.3656,467.7969 48.1,467.7969 C48.6781,467.7969 49.2875,467.9531 49.7563,468.2031 C50.2406,468.4844 50.4125,468.7031 50.5063,469.1094 C50.5688,469.5156 50.6,469.6406 50.7406,469.7656 C50.8813,469.9063 51.1156,470.0156 51.3344,470.0156 C51.6,470.0156 51.8656,469.875 52.0375,469.6563 C52.1469,469.5 52.1781,469.3125 52.1781,468.8906 L52.1781,467.4688 C52.1781,467.0313 52.1625,466.9063 52.0688,466.75 C51.9125,466.4844 51.6313,466.3438 51.3344,466.3438 C51.0375,466.3438 50.8344,466.4375 50.6156,466.75 L50.4438,466.6719 Z " fill="#000000"/><text fill="#000000" font-family="sans-serif" font-size="14" lengthAdjust="spacing" textLength="27" x="67.9" y="475.8467">Run</text><line style="stroke:#181818;stroke-width:0.5;" x1="8" x2="123" y1="487" y2="487"/><text fill="#000000" font-family="sans-serif" font-size="14" lengthAdjust="spacing" textLength="105" x="13" y="503.9951">-elevationGain</text><text fill="#000000" font-family="sans-serif" font-size="14" lengthAdjust="spacing" textLength="97" x="13" y="520.292">-averagePace</text><line style="stroke:#181818;stroke-width:0.5;" x1="8" x2="123" y1="527.5938" y2="527.5938"/></g><!--class Cycle--><g id="elem_Cycle"><rect codeLine="15" fill="#F1F1F1" height="80.5938" id="Cycle" rx="2.5" ry="2.5" style="stroke:#181818;stroke-width:0.5;" width="121" x="159" y="455"/><ellipse cx="196.5" cy="471" fill="#ADD1B2" rx="11" ry="11" style="stroke:#181818;stroke-width:1.0;"/><path d="M198.8438,466.6719 C197.9063,466.2344 197.3125,466.0938 196.4375,466.0938 C193.8125,466.0938 191.8125,468.1719 191.8125,470.8906 L191.8125,472.0156 C191.8125,474.5938 193.9219,476.4844 196.8125,476.4844 C198.0313,476.4844 199.1875,476.1875 199.9375,475.6406 C200.5156,475.2344 200.8438,474.7813 200.8438,474.3906 C200.8438,473.9375 200.4531,473.5469 199.9844,473.5469 C199.7656,473.5469 199.5625,473.625 199.375,473.8125 C198.9219,474.2969 198.9219,474.2969 198.7344,474.3906 C198.3125,474.6563 197.625,474.7813 196.8594,474.7813 C194.8125,474.7813 193.5156,473.6875 193.5156,471.9844 L193.5156,470.8906 C193.5156,469.1094 194.7656,467.7969 196.5,467.7969 C197.0781,467.7969 197.6875,467.9531 198.1563,468.2031 C198.6406,468.4844 198.8125,468.7031 198.9063,469.1094 C198.9688,469.5156 199,469.6406 199.1406,469.7656 C199.2813,469.9063 199.5156,470.0156 199.7344,470.0156 C200,470.0156 200.2656,469.875 200.4375,469.6563 C200.5469,469.5 200.5781,469.3125 200.5781,468.8906 L200.5781,467.4688 C200.5781,467.0313 200.5625,466.9063 200.4688,466.75 C200.3125,466.4844 200.0313,466.3438 199.7344,466.3438 C199.4375,466.3438 199.2344,466.4375 199.0156,466.75 L198.8438,466.6719 Z " fill="#000000"/><text fill="#000000" font-family="sans-serif" font-size="14" lengthAdjust="spacing" textLength="39" x="215.5" y="475.8467">Cycle</text><line style="stroke:#181818;stroke-width:0.5;" x1="160" x2="279" y1="487" y2="487"/><text fill="#000000" font-family="sans-serif" font-size="14" lengthAdjust="spacing" textLength="105" x="165" y="503.9951">-elevationGain</text><text fill="#000000" font-family="sans-serif" font-size="14" lengthAdjust="spacing" textLength="109" x="165" y="520.292">-averageSpeed</text><line style="stroke:#181818;stroke-width:0.5;" x1="160" x2="279" y1="527.5938" y2="527.5938"/></g><!--class Swim--><g id="elem_Swim"><rect codeLine="20" fill="#F1F1F1" height="96.8906" id="Swim" rx="2.5" ry="2.5" style="stroke:#181818;stroke-width:0.5;" width="137" x="315" y="447"/><ellipse cx="360.25" cy="463" fill="#ADD1B2" rx="11" ry="11" style="stroke:#181818;stroke-width:1.0;"/><path d="M362.5938,458.6719 C361.6563,458.2344 361.0625,458.0938 360.1875,458.0938 C357.5625,458.0938 355.5625,460.1719 355.5625,462.8906 L355.5625,464.0156 C355.5625,466.5938 357.6719,468.4844 360.5625,468.4844 C361.7813,468.4844 362.9375,468.1875 363.6875,467.6406 C364.2656,467.2344 364.5938,466.7813 364.5938,466.3906 C364.5938,465.9375 364.2031,465.5469 363.7344,465.5469 C363.5156,465.5469 363.3125,465.625 363.125,465.8125 C362.6719,466.2969 362.6719,466.2969 362.4844,466.3906 C362.0625,466.6563 361.375,466.7813 360.6094,466.7813 C358.5625,466.7813 357.2656,465.6875 357.2656,463.9844 L357.2656,462.8906 C357.2656,461.1094 358.5156,459.7969 360.25,459.7969 C360.8281,459.7969 361.4375,459.9531 361.9063,460.2031 C362.3906,460.4844 362.5625,460.7031 362.6563,461.1094 C362.7188,461.5156 362.75,461.6406 362.8906,461.7656 C363.0313,461.9063 363.2656,462.0156 363.4844,462.0156 C363.75,462.0156 364.0156,461.875 364.1875,461.6563 C364.2969,461.5 364.3281,461.3125 364.3281,460.8906 L364.3281,459.4688 C364.3281,459.0313 364.3125,458.9063 364.2188,458.75 C364.0625,458.4844 363.7813,458.3438 363.4844,458.3438 C363.1875,458.3438 362.9844,458.4375 362.7656,458.75 L362.5938,458.6719 Z " fill="#000000"/><text fill="#000000" font-family="sans-serif" font-size="14" lengthAdjust="spacing" textLength="38" x="380.75" y="467.8467">Swim</text><line style="stroke:#181818;stroke-width:0.5;" x1="316" x2="451" y1="479" y2="479"/><text fill="#000000" font-family="sans-serif" font-size="14" lengthAdjust="spacing" textLength="35" x="321" y="495.9951">-laps</text><text fill="#000000" font-family="sans-serif" font-size="14" lengthAdjust="spacing" textLength="41" x="321" y="512.292">-style</text><text fill="#000000" font-family="sans-serif" font-size="14" lengthAdjust="spacing" textLength="125" x="321" y="528.5889">-averageLapTime</text><line style="stroke:#181818;stroke-width:0.5;" x1="316" x2="451" y1="535.8906" y2="535.8906"/></g><!--class ActivityList--><g id="elem_ActivityList"><rect codeLine="26" fill="#F1F1F1" height="48" id="ActivityList" rx="2.5" ry="2.5" style="stroke:#181818;stroke-width:0.5;" width="114" x="162.5" y="132"/><ellipse cx="177.5" cy="148" fill="#ADD1B2" rx="11" ry="11" style="stroke:#181818;stroke-width:1.0;"/><path d="M179.8438,143.6719 C178.9063,143.2344 178.3125,143.0938 177.4375,143.0938 C174.8125,143.0938 172.8125,145.1719 172.8125,147.8906 L172.8125,149.0156 C172.8125,151.5938 174.9219,153.4844 177.8125,153.4844 C179.0313,153.4844 180.1875,153.1875 180.9375,152.6406 C181.5156,152.2344 181.8438,151.7813 181.8438,151.3906 C181.8438,150.9375 181.4531,150.5469 180.9844,150.5469 C180.7656,150.5469 180.5625,150.625 180.375,150.8125 C179.9219,151.2969 179.9219,151.2969 179.7344,151.3906 C179.3125,151.6563 178.625,151.7813 177.8594,151.7813 C175.8125,151.7813 174.5156,150.6875 174.5156,148.9844 L174.5156,147.8906 C174.5156,146.1094 175.7656,144.7969 177.5,144.7969 C178.0781,144.7969 178.6875,144.9531 179.1563,145.2031 C179.6406,145.4844 179.8125,145.7031 179.9063,146.1094 C179.9688,146.5156 180,146.6406 180.1406,146.7656 C180.2813,146.9063 180.5156,147.0156 180.7344,147.0156 C181,147.0156 181.2656,146.875 181.4375,146.6563 C181.5469,146.5 181.5781,146.3125 181.5781,145.8906 L181.5781,144.4688 C181.5781,144.0313 181.5625,143.9063 181.4688,143.75 C181.3125,143.4844 181.0313,143.3438 180.7344,143.3438 C180.4375,143.3438 180.2344,143.4375 180.0156,143.75 L179.8438,143.6719 Z " fill="#000000"/><text fill="#000000" font-family="sans-serif" font-size="14" lengthAdjust="spacing" textLength="82" x="191.5" y="152.8467">ActivityList</text><line style="stroke:#181818;stroke-width:0.5;" x1="163.5" x2="275.5" y1="164" y2="164"/><line style="stroke:#181818;stroke-width:0.5;" x1="163.5" x2="275.5" y1="172" y2="172"/></g><!--class Data--><g id="elem_Data"><rect codeLine="29" fill="#F1F1F1" height="48" id="Data" rx="2.5" ry="2.5" style="stroke:#181818;stroke-width:0.5;" width="66" x="186.5" y="7"/><ellipse cx="201.5" cy="23" fill="#ADD1B2" rx="11" ry="11" style="stroke:#181818;stroke-width:1.0;"/><path d="M203.8438,18.6719 C202.9063,18.2344 202.3125,18.0938 201.4375,18.0938 C198.8125,18.0938 196.8125,20.1719 196.8125,22.8906 L196.8125,24.0156 C196.8125,26.5938 198.9219,28.4844 201.8125,28.4844 C203.0313,28.4844 204.1875,28.1875 204.9375,27.6406 C205.5156,27.2344 205.8438,26.7813 205.8438,26.3906 C205.8438,25.9375 205.4531,25.5469 204.9844,25.5469 C204.7656,25.5469 204.5625,25.625 204.375,25.8125 C203.9219,26.2969 203.9219,26.2969 203.7344,26.3906 C203.3125,26.6563 202.625,26.7813 201.8594,26.7813 C199.8125,26.7813 198.5156,25.6875 198.5156,23.9844 L198.5156,22.8906 C198.5156,21.1094 199.7656,19.7969 201.5,19.7969 C202.0781,19.7969 202.6875,19.9531 203.1563,20.2031 C203.6406,20.4844 203.8125,20.7031 203.9063,21.1094 C203.9688,21.5156 204,21.6406 204.1406,21.7656 C204.2813,21.9063 204.5156,22.0156 204.7344,22.0156 C205,22.0156 205.2656,21.875 205.4375,21.6563 C205.5469,21.5 205.5781,21.3125 205.5781,20.8906 L205.5781,19.4688 C205.5781,19.0313 205.5625,18.9063 205.4688,18.75 C205.3125,18.4844 205.0313,18.3438 204.7344,18.3438 C204.4375,18.3438 204.2344,18.4375 204.0156,18.75 L203.8438,18.6719 Z " fill="#000000"/><text fill="#000000" font-family="sans-serif" font-size="14" lengthAdjust="spacing" textLength="34" x="215.5" y="27.8467">Data</text><line style="stroke:#181818;stroke-width:0.5;" x1="187.5" x2="251.5" y1="39" y2="39"/><line style="stroke:#181818;stroke-width:0.5;" x1="187.5" x2="251.5" y1="47" y2="47"/></g><!--reverse link Activity to Run--><g id="link_Activity_Run"><path codeLine="32" d="M150.587,399.4681 C129.937,422.5311 119.222,434.498 100.9538,454.9023 " fill="none" id="Activity-backto-Run" style="stroke:#181818;stroke-width:1.0;"/><polygon fill="none" points="162.594,386.058,146.1169,395.4658,155.057,403.4704,162.594,386.058" style="stroke:#181818;stroke-width:1.0;"/></g><!--reverse link Activity to Cycle--><g id="link_Activity_Cycle"><path codeLine="33" d="M219.5,404.058 C219.5,427.121 219.5,434.498 219.5,454.9023 " fill="none" id="Activity-backto-Cycle" style="stroke:#181818;stroke-width:1.0;"/><polygon fill="none" points="219.5,386.058,213.5,404.058,225.5,404.058,219.5,386.058" style="stroke:#181818;stroke-width:1.0;"/></g><!--reverse link Activity to Swim--><g id="link_Activity_Swim"><path codeLine="34" d="M292.5233,399.0854 C311.6843,419.1814 320.101,428.008 338.016,446.7972 " fill="none" id="Activity-backto-Swim" style="stroke:#181818;stroke-width:1.0;"/><polygon fill="none" points="280.102,386.058,288.1808,403.2258,296.8657,394.945,280.102,386.058" style="stroke:#181818;stroke-width:1.0;"/></g><!--reverse link ActivityList to Activity--><g id="link_ActivityList_Activity"><path codeLine="35" d="M219.5,192.079 C219.5,212.06 219.5,229.926 219.5,256.984 " fill="none" id="ActivityList-backto-Activity" style="stroke:#181818;stroke-width:1.0;"/><polygon fill="none" points="219.5,180.079,215.5,186.079,219.5,192.079,223.5,186.079,219.5,180.079" style="stroke:#181818;stroke-width:1.0;"/><polygon fill="#000000" points="224.5,223.5664,227.4389,214.5213,221.5611,214.5213,224.5,223.5664" style="stroke:#000000;stroke-width:1.0;"/><text fill="#000000" font-family="sans-serif" font-size="13" lengthAdjust="spacing" textLength="80" x="233.5" y="223.0669">consists of *</text></g><!--reverse link Data to ActivityList--><g id="link_Data_ActivityList"><path codeLine="36" d="M219.5,67.135 C219.5,89.126 219.5,110.012 219.5,131.968 " fill="none" id="Data-backto-ActivityList" style="stroke:#181818;stroke-width:1.0;"/><polygon fill="none" points="219.5,55.135,215.5,61.135,219.5,67.135,223.5,61.135,219.5,55.135" style="stroke:#181818;stroke-width:1.0;"/><polygon fill="#000000" points="224.5,98.5664,227.4389,89.5213,221.5611,89.5213,224.5,98.5664" style="stroke:#000000;stroke-width:1.0;"/><text fill="#000000" font-family="sans-serif" font-size="13" lengthAdjust="spacing" textLength="8" x="233.5" y="98.0669">1</text></g><!--SRC=[TL3HQW8n47pFL-np8L1VfGZIWXHyA3r_O1ktifXBGh9tvTJ-U_VIUbN1jydCxEniofv3memjE8-bB4KoVtH2how6XWy4ZwOAi7J2FSi0HmDW7IRX64QuxJAUSHjx3hiDjrGLBeB1LQmeomiALV7R_AM-Tq43BNdgQyWAEHYBFMNSqHkw2-lpu3pTDpU9QFllRhwu7SqUKp6wVV0qMTUOhbkSRrjhOHsQUEsBl-_f-gUJjMFh6wQMk-762kOgEYexUUQWNroKBX0_uG4MfgwxzDIXESnWyGC0]--></g></svg>