<?xml version="1.0" encoding="us-ascii" standalone="no"?><svg xmlns="http://www.w3.org/2000/svg" xmlns:xlink="http://www.w3.org/1999/xlink" contentStyleType="text/css" height="475px" preserveAspectRatio="none" style="width:1117px;height:475px;background:#FFFFFF;" version="1.1" viewBox="0 0 1117 475" width="1117px" zoomAndPan="magnify"><defs/><g><rect fill="#FFFFFF" height="396.0371" style="stroke:#181818;stroke-width:1.0;" width="10" x="42" y="62.9766"/><rect fill="#FFFFFF" height="205.1738" style="stroke:#181818;stroke-width:1.0;" width="10" x="237" y="84.2871"/><rect fill="#FFFFFF" height="87.9316" style="stroke:#181818;stroke-width:1.0;" width="10" x="451" y="113.5977"/><rect fill="#FFFFFF" height="29.3105" style="stroke:#181818;stroke-width:1.0;" width="10" x="578" y="142.9082"/><rect fill="#FFFFFF" height="29.3105" style="stroke:#181818;stroke-width:1.0;" width="10" x="750.5" y="230.8398"/><rect fill="#FFFFFF" height="131.2422" style="stroke:#181818;stroke-width:1.0;" width="10" x="750.5" y="318.7715"/><rect fill="#FFFFFF" height="29.3105" style="stroke:#181818;stroke-width:1.0;" width="10" x="898.5" y="348.082"/><rect fill="#FFFFFF" height="14" style="stroke:#181818;stroke-width:1.0;" width="10" x="1027" y="406.7031"/><line style="stroke:#181818;stroke-width:0.5;stroke-dasharray:5.0,5.0;" x1="47" x2="47" y1="52.9766" y2="468.0137"/><line style="stroke:#181818;stroke-width:0.5;stroke-dasharray:5.0,5.0;" x1="241.5" x2="241.5" y1="52.9766" y2="468.0137"/><line style="stroke:#181818;stroke-width:0.5;stroke-dasharray:5.0,5.0;" x1="456" x2="456" y1="52.9766" y2="468.0137"/><line style="stroke:#181818;stroke-width:0.5;stroke-dasharray:5.0,5.0;" x1="583" x2="583" y1="52.9766" y2="468.0137"/><line style="stroke:#181818;stroke-width:0.5;stroke-dasharray:5.0,5.0;" x1="755" x2="755" y1="52.9766" y2="468.0137"/><line style="stroke:#181818;stroke-width:0.5;stroke-dasharray:5.0,5.0;" x1="903" x2="903" y1="52.9766" y2="468.0137"/><line style="stroke:#181818;stroke-width:0.5;stroke-dasharray:5.0,5.0;" x1="1032" x2="1032" y1="52.9766" y2="468.0137"/><rect fill="#FFA500" height="30.4883" rx="2.5" ry="2.5" style="stroke:#181818;stroke-width:0.5;" width="84" x="5" y="21.4883"/><text fill="#000000" font-family="sans-serif" font-size="14" lengthAdjust="spacing" textLength="70" x="12" y="42.0234">:AthletiCLI</text><rect fill="#ADD8E6" height="46.9766" rx="2.5" ry="2.5" style="stroke:#181818;stroke-width:0.5;" width="61" x="211.5" y="5"/><text fill="#000000" font-family="sans-serif" font-size="14" font-style="italic" lengthAdjust="spacing" textLength="47" x="218.5" y="25.5352">&#171;class&#187;</text><text fill="#000000" font-family="sans-serif" font-size="14" lengthAdjust="spacing" textLength="43" x="220.5" y="42.0234">Parser</text><rect fill="#ADD8E6" height="46.9766" rx="2.5" ry="2.5" style="stroke:#181818;stroke-width:0.5;" width="106" x="403" y="5"/><text fill="#000000" font-family="sans-serif" font-size="14" font-style="italic" lengthAdjust="spacing" textLength="47" x="432.5" y="25.5352">&#171;class&#187;</text><text fill="#000000" font-family="sans-serif" font-size="14" lengthAdjust="spacing" textLength="92" x="410" y="42.0234">ActivityParser</text><rect fill="#FFFF00" height="30.4883" rx="2.5" ry="2.5" style="stroke:#181818;stroke-width:0.5;" width="128" x="519" y="21.4883"/><text fill="#000000" font-family="sans-serif" font-size="14" lengthAdjust="spacing" textLength="114" x="526" y="42.0234">goal:ActivityGoal</text><rect fill="#90EE90" height="30.4883" rx="2.5" ry="2.5" style="stroke:#181818;stroke-width:0.5;" width="197" x="657" y="21.4883"/><text fill="#000000" font-family="sans-serif" font-size="14" lengthAdjust="spacing" textLength="183" x="664" y="42.0234">c:SetActivityGoalCommand</text><rect fill="#D3D3D3" height="30.4883" rx="2.5" ry="2.5" style="stroke:#181818;stroke-width:0.5;" width="79" x="864" y="21.4883"/><text fill="#000000" font-family="sans-serif" font-size="14" lengthAdjust="spacing" textLength="65" x="871" y="42.0234">data:Data</text><rect fill="#D3D3D3" height="30.4883" rx="2.5" ry="2.5" style="stroke:#181818;stroke-width:0.5;" width="158" x="953" y="21.4883"/><text fill="#000000" font-family="sans-serif" font-size="14" lengthAdjust="spacing" textLength="144" x="960" y="42.0234">goals:ActivityGoalList</text><rect fill="#FFFFFF" height="396.0371" style="stroke:#181818;stroke-width:1.0;" width="10" x="42" y="62.9766"/><rect fill="#FFFFFF" height="205.1738" style="stroke:#181818;stroke-width:1.0;" width="10" x="237" y="84.2871"/><rect fill="#FFFFFF" height="87.9316" style="stroke:#181818;stroke-width:1.0;" width="10" x="451" y="113.5977"/><rect fill="#FFFFFF" height="29.3105" style="stroke:#181818;stroke-width:1.0;" width="10" x="578" y="142.9082"/><rect fill="#FFFFFF" height="29.3105" style="stroke:#181818;stroke-width:1.0;" width="10" x="750.5" y="230.8398"/><rect fill="#FFFFFF" height="131.2422" style="stroke:#181818;stroke-width:1.0;" width="10" x="750.5" y="318.7715"/><rect fill="#FFFFFF" height="29.3105" style="stroke:#181818;stroke-width:1.0;" width="10" x="898.5" y="348.082"/><rect fill="#FFFFFF" height="14" style="stroke:#181818;stroke-width:1.0;" width="10" x="1027" y="406.7031"/><polygon fill="#181818" points="225,80.2871,235,84.2871,225,88.2871" style="stroke:#181818;stroke-width:1.0;"/><line style="stroke:#181818;stroke-width:1.0;" x1="52" x2="231" y1="84.2871" y2="84.2871"/><text fill="#000000" font-family="sans-serif" font-size="13" lengthAdjust="spacing" textLength="166" x="61.5" y="79.5449">parseCommand(userInput)</text><polygon fill="#181818" points="439,109.5977,449,113.5977,439,117.5977" style="stroke:#181818;stroke-width:1.0;"/><line style="stroke:#181818;stroke-width:1.0;" x1="247" x2="445" y1="113.5977" y2="113.5977"/><text fill="#000000" font-family="sans-serif" font-size="13" lengthAdjust="spacing" textLength="185" x="256.5" y="108.8555">parseActivityGoal(arguments)</text><polygon fill="#181818" points="566,138.9082,576,142.9082,566,146.9082" style="stroke:#181818;stroke-width:1.0;"/><line style="stroke:#181818;stroke-width:1.0;" x1="461" x2="572" y1="142.9082" y2="142.9082"/><text fill="#000000" font-family="sans-serif" font-size="13" lengthAdjust="spacing" textLength="84" x="477.5" y="138.166">ActivityGoal()</text><polygon fill="#181818" points="472,168.2188,462,172.2188,472,176.2188" style="stroke:#181818;stroke-width:1.0;"/><line style="stroke:#181818;stroke-width:1.0;stroke-dasharray:2.0,2.0;" x1="466" x2="582" y1="172.2188" y2="172.2188"/><text fill="#000000" font-family="sans-serif" font-size="13" lengthAdjust="spacing" textLength="27" x="508.5" y="167.4766">goal</text><polygon fill="#181818" points="258,197.5293,248,201.5293,258,205.5293" style="stroke:#181818;stroke-width:1.0;"/><line style="stroke:#181818;stroke-width:1.0;stroke-dasharray:2.0,2.0;" x1="252" x2="455" y1="201.5293" y2="201.5293"/><text fill="#000000" font-family="sans-serif" font-size="13" lengthAdjust="spacing" textLength="27" x="338" y="196.7871">goal</text><polygon fill="#181818" points="738.5,226.8398,748.5,230.8398,738.5,234.8398" style="stroke:#181818;stroke-width:1.0;"/><line style="stroke:#181818;stroke-width:1.0;" x1="247" x2="744.5" y1="230.8398" y2="230.8398"/><text fill="#000000" font-family="sans-serif" font-size="13" lengthAdjust="spacing" textLength="194" x="401.75" y="226.0977">SetActivityGoalCommand(goal)</text><polygon fill="#181818" points="258,256.1504,248,260.1504,258,264.1504" style="stroke:#181818;stroke-width:1.0;"/><line style="stroke:#181818;stroke-width:1.0;stroke-dasharray:2.0,2.0;" x1="252" x2="754.5" y1="260.1504" y2="260.1504"/><text fill="#000000" font-family="sans-serif" font-size="13" lengthAdjust="spacing" textLength="7" x="497.75" y="255.4082">c</text><polygon fill="#181818" points="63,285.4609,53,289.4609,63,293.4609" style="stroke:#181818;stroke-width:1.0;"/><line style="stroke:#181818;stroke-width:1.0;stroke-dasharray:2.0,2.0;" x1="57" x2="241" y1="289.4609" y2="289.4609"/><text fill="#000000" font-family="sans-serif" font-size="13" lengthAdjust="spacing" textLength="7" x="143.5" y="284.7188">c</text><polygon fill="#181818" points="738.5,314.7715,748.5,318.7715,738.5,322.7715" style="stroke:#181818;stroke-width:1.0;"/><line style="stroke:#181818;stroke-width:1.0;" x1="52" x2="744.5" y1="318.7715" y2="318.7715"/><text fill="#000000" font-family="sans-serif" font-size="13" lengthAdjust="spacing" textLength="119" x="341.75" y="314.0293">execute(goal, data)</text><polygon fill="#181818" points="886.5,344.082,896.5,348.082,886.5,352.082" style="stroke:#181818;stroke-width:1.0;"/><line style="stroke:#181818;stroke-width:1.0;" x1="760.5" x2="892.5" y1="348.082" y2="348.082"/><text fill="#000000" font-family="sans-serif" font-size="13" lengthAdjust="spacing" textLength="111" x="774" y="343.3398">getActivityGoals()</text><polygon fill="#181818" points="771.5,373.3926,761.5,377.3926,771.5,381.3926" style="stroke:#181818;stroke-width:1.0;"/><line style="stroke:#181818;stroke-width:1.0;stroke-dasharray:2.0,2.0;" x1="765.5" x2="902.5" y1="377.3926" y2="377.3926"/><text fill="#000000" font-family="sans-serif" font-size="13" lengthAdjust="spacing" textLength="34" x="815" y="372.6504">goals</text><polygon fill="#181818" points="1015,402.7031,1025,406.7031,1015,410.7031" style="stroke:#181818;stroke-width:1.0;"/><line style="stroke:#181818;stroke-width:1.0;" x1="760.5" x2="1021" y1="406.7031" y2="406.7031"/><text fill="#000000" font-family="sans-serif" font-size="13" lengthAdjust="spacing" textLength="58" x="864.75" y="401.9609">add(goal)</text><polygon fill="#181818" points="771.5,416.7031,761.5,420.7031,771.5,424.7031" style="stroke:#181818;stroke-width:1.0;"/><line style="stroke:#181818;stroke-width:1.0;stroke-dasharray:2.0,2.0;" x1="765.5" x2="1031" y1="420.7031" y2="420.7031"/><polygon fill="#181818" points="63,446.0137,53,450.0137,63,454.0137" style="stroke:#181818;stroke-width:1.0;"/><line style="stroke:#181818;stroke-width:1.0;stroke-dasharray:2.0,2.0;" x1="57" x2="754.5" y1="450.0137" y2="450.0137"/><text fill="#000000" font-family="sans-serif" font-size="13" lengthAdjust="spacing" textLength="55" x="376.25" y="445.2715">message</text><line style="stroke:#A80036;stroke-width:2.0;" x1="746.5" x2="764.5" y1="441.0137" y2="459.0137"/><line style="stroke:#A80036;stroke-width:2.0;" x1="746.5" x2="764.5" y1="459.0137" y2="441.0137"/><!--SRC=[ZLHTJy8m57tlhwZiGGXE7lHf8IHa9eHa1YC_mDJkEXgxRgvtwlwzxHYi1KRSGzEFS-uvExtfxGwnrD5iLagciCxbFI_ocOQl6XI7C1KigrXEzATG9JCpkiL60jLO2MxXxab7UWQjMGPBAJALWqBApG0L8JSfV0W5DDcirl5Rl4ashpHuC5_yI8YfWOABqhYWesY9EmaeucGzeapJVac3ec8g0n__mYeDLGlTJ-bypYNJUh6WWV6nmtTPdt2M7CMtmCRX-bl_g94LJ4O7rieil39sWmODI5dy-3mURG5TM5paELDfIxzyr7d8AW3b5qiPikZ932tRJdfiS-vNUuOJeR7bCMTJkmL87_vqwYnekEZ2dauZMjfPPtLScysrAckSa2vAW_N3FN9SCsDMPRLj6JqX9tVX5B18I_UOFQ5DFJmJ3CE8sjy_AtpyZIEYbxny5LRyyidOyYTau0PzAKuS1tsi-wEJd8Tzm2_m6g4LlgEs5ORb5srpM5Rc8xI9ZxID4mwA7TBHLyfxFMHrM7g8n6-lQpBNqlDZolSF3I4fcFUeQ0PA_W40]--></g></svg>