<?xml version="1.0" encoding="us-ascii" standalone="no"?><svg xmlns="http://www.w3.org/2000/svg" xmlns:xlink="http://www.w3.org/1999/xlink" contentStyleType="text/css" height="501px" preserveAspectRatio="none" style="width:1022px;height:501px;background:#FFFFFF;" version="1.1" viewBox="0 0 1022 501" width="1022px" zoomAndPan="magnify"><defs/><g><rect fill="#FFFFFF" height="422.0371" style="stroke:#181818;stroke-width:1.0;" width="10" x="42" y="62.9766"/><rect fill="#FFFFFF" height="231.1738" style="stroke:#181818;stroke-width:1.0;" width="10" x="237" y="84.2871"/><rect fill="#FFFFFF" height="98.9316" style="stroke:#181818;stroke-width:1.0;" width="10" x="242" y="121.5977"/><rect fill="#FFFFFF" height="29.3105" style="stroke:#181818;stroke-width:1.0;" width="10" x="446" y="155.9082"/><rect fill="#FFFFFF" height="29.3105" style="stroke:#181818;stroke-width:1.0;" width="10" x="608" y="256.8398"/><rect fill="#FFFFFF" height="131.2422" style="stroke:#181818;stroke-width:1.0;" width="10" x="608" y="344.7715"/><rect fill="#FFFFFF" height="29.3105" style="stroke:#181818;stroke-width:1.0;" width="10" x="756" y="374.082"/><rect fill="#FFFFFF" height="14" style="stroke:#181818;stroke-width:1.0;" width="10" x="908.5" y="432.7031"/><line style="stroke:#181818;stroke-width:0.5;stroke-dasharray:5.0,5.0;" x1="47" x2="47" y1="52.9766" y2="494.0137"/><line style="stroke:#181818;stroke-width:0.5;stroke-dasharray:5.0,5.0;" x1="241.5" x2="241.5" y1="52.9766" y2="494.0137"/><line style="stroke:#181818;stroke-width:0.5;stroke-dasharray:5.0,5.0;" x1="450.5" x2="450.5" y1="52.9766" y2="494.0137"/><line style="stroke:#181818;stroke-width:0.5;stroke-dasharray:5.0,5.0;" x1="612.5" x2="612.5" y1="52.9766" y2="494.0137"/><line style="stroke:#181818;stroke-width:0.5;stroke-dasharray:5.0,5.0;" x1="760.5" x2="760.5" y1="52.9766" y2="494.0137"/><line style="stroke:#181818;stroke-width:0.5;stroke-dasharray:5.0,5.0;" x1="913.5" x2="913.5" y1="52.9766" y2="494.0137"/><rect fill="#3333C4" height="30.4883" rx="2.5" ry="2.5" style="stroke:#181818;stroke-width:0.5;" width="84" x="5" y="21.4883"/><text fill="#000000" font-family="sans-serif" font-size="14" lengthAdjust="spacing" textLength="70" x="12" y="42.0234">:AthletiCLI</text><rect fill="#ADD8E6" height="46.9766" rx="2.5" ry="2.5" style="stroke:#181818;stroke-width:0.5;" width="61" x="211.5" y="5"/><text fill="#000000" font-family="sans-serif" font-size="14" font-style="italic" lengthAdjust="spacing" textLength="47" x="218.5" y="25.5352">&#171;class&#187;</text><text fill="#000000" font-family="sans-serif" font-size="14" lengthAdjust="spacing" textLength="43" x="220.5" y="42.0234">Parser</text><rect fill="#FFFF00" height="30.4883" rx="2.5" ry="2.5" style="stroke:#181818;stroke-width:0.5;" width="107" x="397.5" y="21.4883"/><text fill="#000000" font-family="sans-serif" font-size="14" lengthAdjust="spacing" textLength="93" x="404.5" y="42.0234">g:ActivityGoal</text><rect fill="#90EE90" height="30.4883" rx="2.5" ry="2.5" style="stroke:#181818;stroke-width:0.5;" width="197" x="514.5" y="21.4883"/><text fill="#000000" font-family="sans-serif" font-size="14" lengthAdjust="spacing" textLength="183" x="521.5" y="42.0234">c:SetActivityGoalCommand</text><rect fill="#D3D3D3" height="30.4883" rx="2.5" ry="2.5" style="stroke:#181818;stroke-width:0.5;" width="79" x="721.5" y="21.4883"/><text fill="#000000" font-family="sans-serif" font-size="14" lengthAdjust="spacing" textLength="65" x="728.5" y="42.0234">data:Data</text><rect fill="#D3D3D3" height="30.4883" rx="2.5" ry="2.5" style="stroke:#181818;stroke-width:0.5;" width="206" x="810.5" y="21.4883"/><text fill="#000000" font-family="sans-serif" font-size="14" lengthAdjust="spacing" textLength="192" x="817.5" y="42.0234">activityGoals:ActivityGoalList</text><rect fill="#FFFFFF" height="422.0371" style="stroke:#181818;stroke-width:1.0;" width="10" x="42" y="62.9766"/><rect fill="#FFFFFF" height="231.1738" style="stroke:#181818;stroke-width:1.0;" width="10" x="237" y="84.2871"/><rect fill="#FFFFFF" height="98.9316" style="stroke:#181818;stroke-width:1.0;" width="10" x="242" y="121.5977"/><rect fill="#FFFFFF" height="29.3105" style="stroke:#181818;stroke-width:1.0;" width="10" x="446" y="155.9082"/><rect fill="#FFFFFF" height="29.3105" style="stroke:#181818;stroke-width:1.0;" width="10" x="608" y="256.8398"/><rect fill="#FFFFFF" height="131.2422" style="stroke:#181818;stroke-width:1.0;" width="10" x="608" y="344.7715"/><rect fill="#FFFFFF" height="29.3105" style="stroke:#181818;stroke-width:1.0;" width="10" x="756" y="374.082"/><rect fill="#FFFFFF" height="14" style="stroke:#181818;stroke-width:1.0;" width="10" x="908.5" y="432.7031"/><polygon fill="#181818" points="225,80.2871,235,84.2871,225,88.2871" style="stroke:#181818;stroke-width:1.0;"/><line style="stroke:#181818;stroke-width:1.0;" x1="52" x2="231" y1="84.2871" y2="84.2871"/><text fill="#000000" font-family="sans-serif" font-size="13" lengthAdjust="spacing" textLength="166" x="61.5" y="79.5449">parseCommand(userInput)</text><line style="stroke:#181818;stroke-width:1.0;" x1="247" x2="294" y1="108.5977" y2="108.5977"/><line style="stroke:#181818;stroke-width:1.0;" x1="294" x2="294" y1="108.5977" y2="121.5977"/><line style="stroke:#181818;stroke-width:1.0;" x1="253" x2="294" y1="121.5977" y2="121.5977"/><polygon fill="#181818" points="263,117.5977,253,121.5977,263,125.5977" style="stroke:#181818;stroke-width:1.0;"/><text fill="#000000" font-family="sans-serif" font-size="13" lengthAdjust="spacing" textLength="185" x="259" y="103.8555">parseActivityGoal(arguments)</text><polygon fill="#181818" points="434,151.9082,444,155.9082,434,159.9082" style="stroke:#181818;stroke-width:1.0;"/><line style="stroke:#181818;stroke-width:1.0;" x1="252" x2="440" y1="155.9082" y2="155.9082"/><text fill="#000000" font-family="sans-serif" font-size="13" lengthAdjust="spacing" textLength="84" x="307" y="151.166">ActivityGoal()</text><polygon fill="#181818" points="263,181.2188,253,185.2188,263,189.2188" style="stroke:#181818;stroke-width:1.0;"/><line style="stroke:#181818;stroke-width:1.0;stroke-dasharray:2.0,2.0;" x1="257" x2="450" y1="185.2188" y2="185.2188"/><text fill="#000000" font-family="sans-serif" font-size="13" lengthAdjust="spacing" textLength="8" x="347.5" y="180.4766">g</text><line style="stroke:#181818;stroke-width:1.0;stroke-dasharray:2.0,2.0;" x1="252" x2="294" y1="219.5293" y2="219.5293"/><line style="stroke:#181818;stroke-width:1.0;stroke-dasharray:2.0,2.0;" x1="294" x2="294" y1="219.5293" y2="232.5293"/><line style="stroke:#181818;stroke-width:1.0;stroke-dasharray:2.0,2.0;" x1="247" x2="294" y1="232.5293" y2="232.5293"/><polygon fill="#181818" points="257,228.5293,247,232.5293,257,236.5293" style="stroke:#181818;stroke-width:1.0;"/><text fill="#000000" font-family="sans-serif" font-size="13" lengthAdjust="spacing" textLength="8" x="259" y="214.7871">g</text><polygon fill="#181818" points="596,252.8398,606,256.8398,596,260.8398" style="stroke:#181818;stroke-width:1.0;"/><line style="stroke:#181818;stroke-width:1.0;" x1="247" x2="602" y1="256.8398" y2="256.8398"/><text fill="#000000" font-family="sans-serif" font-size="13" lengthAdjust="spacing" textLength="175" x="340" y="252.0977">SetActivityGoalCommand(g)</text><polygon fill="#181818" points="258,282.1504,248,286.1504,258,290.1504" style="stroke:#181818;stroke-width:1.0;"/><line style="stroke:#181818;stroke-width:1.0;stroke-dasharray:2.0,2.0;" x1="252" x2="612" y1="286.1504" y2="286.1504"/><text fill="#000000" font-family="sans-serif" font-size="13" lengthAdjust="spacing" textLength="7" x="426.5" y="281.4082">c</text><polygon fill="#181818" points="63,311.4609,53,315.4609,63,319.4609" style="stroke:#181818;stroke-width:1.0;"/><line style="stroke:#181818;stroke-width:1.0;stroke-dasharray:2.0,2.0;" x1="57" x2="241" y1="315.4609" y2="315.4609"/><text fill="#000000" font-family="sans-serif" font-size="13" lengthAdjust="spacing" textLength="7" x="143.5" y="310.7188">c</text><polygon fill="#181818" points="596,340.7715,606,344.7715,596,348.7715" style="stroke:#181818;stroke-width:1.0;"/><line style="stroke:#181818;stroke-width:1.0;" x1="52" x2="602" y1="344.7715" y2="344.7715"/><text fill="#000000" font-family="sans-serif" font-size="13" lengthAdjust="spacing" textLength="100" x="280" y="340.0293">execute(g, data)</text><polygon fill="#181818" points="744,370.082,754,374.082,744,378.082" style="stroke:#181818;stroke-width:1.0;"/><line style="stroke:#181818;stroke-width:1.0;" x1="618" x2="750" y1="374.082" y2="374.082"/><text fill="#000000" font-family="sans-serif" font-size="13" lengthAdjust="spacing" textLength="111" x="631.5" y="369.3398">getActivityGoals()</text><polygon fill="#181818" points="629,399.3926,619,403.3926,629,407.3926" style="stroke:#181818;stroke-width:1.0;"/><line style="stroke:#181818;stroke-width:1.0;stroke-dasharray:2.0,2.0;" x1="623" x2="760" y1="403.3926" y2="403.3926"/><text fill="#000000" font-family="sans-serif" font-size="13" lengthAdjust="spacing" textLength="81" x="649" y="398.6504">activityGoals</text><polygon fill="#181818" points="896.5,428.7031,906.5,432.7031,896.5,436.7031" style="stroke:#181818;stroke-width:1.0;"/><line style="stroke:#181818;stroke-width:1.0;" x1="618" x2="902.5" y1="432.7031" y2="432.7031"/><text fill="#000000" font-family="sans-serif" font-size="13" lengthAdjust="spacing" textLength="39" x="743.75" y="427.9609">add(g)</text><polygon fill="#181818" points="629,442.7031,619,446.7031,629,450.7031" style="stroke:#181818;stroke-width:1.0;"/><line style="stroke:#181818;stroke-width:1.0;stroke-dasharray:2.0,2.0;" x1="623" x2="912.5" y1="446.7031" y2="446.7031"/><polygon fill="#181818" points="63,472.0137,53,476.0137,63,480.0137" style="stroke:#181818;stroke-width:1.0;"/><line style="stroke:#181818;stroke-width:1.0;stroke-dasharray:2.0,2.0;" x1="57" x2="612" y1="476.0137" y2="476.0137"/><text fill="#000000" font-family="sans-serif" font-size="13" lengthAdjust="spacing" textLength="55" x="305" y="471.2715">message</text><line style="stroke:#A80036;stroke-width:2.0;" x1="604" x2="622" y1="467.0137" y2="485.0137"/><line style="stroke:#A80036;stroke-width:2.0;" x1="604" x2="622" y1="485.0137" y2="467.0137"/><!--SRC=[VLJHIiCm57tFLyJjmOrQzw1FPHH6XJ6eJFG39ARNB9YcjRbL-_ScNLaJNTU7aDoSSy_XtD3h0s9jajMgLanZMwfRNfKh0vyjQ0vn8PbeM4dCXzGriplwWfq2Qh2HtC7zcu7q2COm0HibXIv18-LsWOQGgmBUfGQQxxUxx3NRv_jdEh-pNtPFYEs1ailQkg2pP8C71IYpV3UZpD3nw9D3pXDh33Gz_BYbwpLNp9WqfNFhvO1lgeMG8v8DH_abiTjMJ1sbl0ATTw1KzHsIUF82wCEogYoPBdhw-Ql1W6W0TDYiOCYI1xlqRBSPiLq8PLvV4nZFfS6U7q3yHcHCC8gy0utJ8QqeIcZjTeFbHMkBErstk2H3dl-nlea5QqJhvcryWezmj82n947QyKaWZXCgJbrEvR4Onvx6-SoTslcRXLYIYJc55hXlOGpjUFKdnMaJy0EyHLY86-gcFQsTzlDt514YZ4sAz6yZdbHofeBnNv09S4wF5NqeuVEvf7Kflp2eylWt8AG0-zEekecMlm00]--></g></svg>