<?xml version="1.0" encoding="us-ascii" standalone="no"?><svg xmlns="http://www.w3.org/2000/svg" xmlns:xlink="http://www.w3.org/1999/xlink" contentStyleType="text/css" height="475px" preserveAspectRatio="none" style="width:1003px;height:475px;background:#FFFFFF;" version="1.1" viewBox="0 0 1003 475" width="1003px" zoomAndPan="magnify"><defs/><g><rect fill="#FFFFFF" height="396.0371" style="stroke:#181818;stroke-width:1.0;" width="10" x="42" y="62.9766"/><rect fill="#FFFFFF" height="205.1738" style="stroke:#181818;stroke-width:1.0;" width="10" x="237" y="84.2871"/><rect fill="#FFFFFF" height="87.9316" style="stroke:#181818;stroke-width:1.0;" width="10" x="423" y="113.5977"/><rect fill="#FFFFFF" height="29.3105" style="stroke:#181818;stroke-width:1.0;" width="10" x="523.5" y="142.9082"/><rect fill="#FFFFFF" height="29.3105" style="stroke:#181818;stroke-width:1.0;" width="10" x="657.5" y="230.8398"/><rect fill="#FFFFFF" height="131.2422" style="stroke:#181818;stroke-width:1.0;" width="10" x="657.5" y="318.7715"/><rect fill="#FFFFFF" height="29.3105" style="stroke:#181818;stroke-width:1.0;" width="10" x="793.5" y="348.082"/><rect fill="#FFFFFF" height="14" style="stroke:#181818;stroke-width:1.0;" width="10" x="917.5" y="406.7031"/><line style="stroke:#181818;stroke-width:0.5;stroke-dasharray:5.0,5.0;" x1="47" x2="47" y1="52.9766" y2="468.0137"/><line style="stroke:#181818;stroke-width:0.5;stroke-dasharray:5.0,5.0;" x1="241.5" x2="241.5" y1="52.9766" y2="468.0137"/><line style="stroke:#181818;stroke-width:0.5;stroke-dasharray:5.0,5.0;" x1="428" x2="428" y1="52.9766" y2="468.0137"/><line style="stroke:#181818;stroke-width:0.5;stroke-dasharray:5.0,5.0;" x1="528" x2="528" y1="52.9766" y2="468.0137"/><line style="stroke:#181818;stroke-width:0.5;stroke-dasharray:5.0,5.0;" x1="662" x2="662" y1="52.9766" y2="468.0137"/><line style="stroke:#181818;stroke-width:0.5;stroke-dasharray:5.0,5.0;" x1="798" x2="798" y1="52.9766" y2="468.0137"/><line style="stroke:#181818;stroke-width:0.5;stroke-dasharray:5.0,5.0;" x1="922" x2="922" y1="52.9766" y2="468.0137"/><rect fill="#FFA500" height="30.4883" rx="2.5" ry="2.5" style="stroke:#181818;stroke-width:0.5;" width="84" x="5" y="21.4883"/><text fill="#000000" font-family="sans-serif" font-size="14" lengthAdjust="spacing" textLength="70" x="12" y="42.0234">:AthletiCLI</text><rect fill="#ADD8E6" height="46.9766" rx="2.5" ry="2.5" style="stroke:#181818;stroke-width:0.5;" width="61" x="211.5" y="5"/><text fill="#000000" font-family="sans-serif" font-size="14" font-style="italic" lengthAdjust="spacing" textLength="47" x="218.5" y="25.5352">&#171;class&#187;</text><text fill="#000000" font-family="sans-serif" font-size="14" lengthAdjust="spacing" textLength="43" x="220.5" y="42.0234">Parser</text><rect fill="#ADD8E6" height="46.9766" rx="2.5" ry="2.5" style="stroke:#181818;stroke-width:0.5;" width="106" x="375" y="5"/><text fill="#000000" font-family="sans-serif" font-size="14" font-style="italic" lengthAdjust="spacing" textLength="47" x="404.5" y="25.5352">&#171;class&#187;</text><text fill="#000000" font-family="sans-serif" font-size="14" lengthAdjust="spacing" textLength="92" x="382" y="42.0234">ActivityParser</text><rect fill="#FFFF00" height="30.4883" rx="2.5" ry="2.5" style="stroke:#181818;stroke-width:0.5;" width="75" x="491" y="21.4883"/><text fill="#000000" font-family="sans-serif" font-size="14" lengthAdjust="spacing" textLength="61" x="498" y="42.0234">a:Activity</text><rect fill="#90EE90" height="30.4883" rx="2.5" ry="2.5" style="stroke:#181818;stroke-width:0.5;" width="173" x="576" y="21.4883"/><text fill="#000000" font-family="sans-serif" font-size="14" lengthAdjust="spacing" textLength="159" x="583" y="42.0234">c:AddActivityCommand</text><rect fill="#D3D3D3" height="30.4883" rx="2.5" ry="2.5" style="stroke:#181818;stroke-width:0.5;" width="79" x="759" y="21.4883"/><text fill="#000000" font-family="sans-serif" font-size="14" lengthAdjust="spacing" textLength="65" x="766" y="42.0234">data:Data</text><rect fill="#D3D3D3" height="30.4883" rx="2.5" ry="2.5" style="stroke:#181818;stroke-width:0.5;" width="149" x="848" y="21.4883"/><text fill="#000000" font-family="sans-serif" font-size="14" lengthAdjust="spacing" textLength="135" x="855" y="42.0234">activities:ActivityList</text><rect fill="#FFFFFF" height="396.0371" style="stroke:#181818;stroke-width:1.0;" width="10" x="42" y="62.9766"/><rect fill="#FFFFFF" height="205.1738" style="stroke:#181818;stroke-width:1.0;" width="10" x="237" y="84.2871"/><rect fill="#FFFFFF" height="87.9316" style="stroke:#181818;stroke-width:1.0;" width="10" x="423" y="113.5977"/><rect fill="#FFFFFF" height="29.3105" style="stroke:#181818;stroke-width:1.0;" width="10" x="523.5" y="142.9082"/><rect fill="#FFFFFF" height="29.3105" style="stroke:#181818;stroke-width:1.0;" width="10" x="657.5" y="230.8398"/><rect fill="#FFFFFF" height="131.2422" style="stroke:#181818;stroke-width:1.0;" width="10" x="657.5" y="318.7715"/><rect fill="#FFFFFF" height="29.3105" style="stroke:#181818;stroke-width:1.0;" width="10" x="793.5" y="348.082"/><rect fill="#FFFFFF" height="14" style="stroke:#181818;stroke-width:1.0;" width="10" x="917.5" y="406.7031"/><polygon fill="#181818" points="225,80.2871,235,84.2871,225,88.2871" style="stroke:#181818;stroke-width:1.0;"/><line style="stroke:#181818;stroke-width:1.0;" x1="52" x2="231" y1="84.2871" y2="84.2871"/><text fill="#000000" font-family="sans-serif" font-size="13" lengthAdjust="spacing" textLength="166" x="61.5" y="79.5449">parseCommand(userInput)</text><polygon fill="#181818" points="411,109.5977,421,113.5977,411,117.5977" style="stroke:#181818;stroke-width:1.0;"/><line style="stroke:#181818;stroke-width:1.0;" x1="247" x2="417" y1="113.5977" y2="113.5977"/><text fill="#000000" font-family="sans-serif" font-size="13" lengthAdjust="spacing" textLength="157" x="256.5" y="108.8555">parseActivity(arguments)</text><polygon fill="#181818" points="511.5,138.9082,521.5,142.9082,511.5,146.9082" style="stroke:#181818;stroke-width:1.0;"/><line style="stroke:#181818;stroke-width:1.0;" x1="433" x2="517.5" y1="142.9082" y2="142.9082"/><text fill="#000000" font-family="sans-serif" font-size="13" lengthAdjust="spacing" textLength="56" x="450.25" y="138.166">Activity()</text><polygon fill="#181818" points="444,168.2188,434,172.2188,444,176.2188" style="stroke:#181818;stroke-width:1.0;"/><line style="stroke:#181818;stroke-width:1.0;stroke-dasharray:2.0,2.0;" x1="438" x2="527.5" y1="172.2188" y2="172.2188"/><text fill="#000000" font-family="sans-serif" font-size="13" lengthAdjust="spacing" textLength="7" x="477.25" y="167.4766">a</text><polygon fill="#181818" points="258,197.5293,248,201.5293,258,205.5293" style="stroke:#181818;stroke-width:1.0;"/><line style="stroke:#181818;stroke-width:1.0;stroke-dasharray:2.0,2.0;" x1="252" x2="427" y1="201.5293" y2="201.5293"/><text fill="#000000" font-family="sans-serif" font-size="13" lengthAdjust="spacing" textLength="7" x="334" y="196.7871">a</text><polygon fill="#181818" points="645.5,226.8398,655.5,230.8398,645.5,234.8398" style="stroke:#181818;stroke-width:1.0;"/><line style="stroke:#181818;stroke-width:1.0;" x1="247" x2="651.5" y1="230.8398" y2="230.8398"/><text fill="#000000" font-family="sans-serif" font-size="13" lengthAdjust="spacing" textLength="152" x="376.25" y="226.0977">AddActivityCommand(a)</text><polygon fill="#181818" points="258,256.1504,248,260.1504,258,264.1504" style="stroke:#181818;stroke-width:1.0;"/><line style="stroke:#181818;stroke-width:1.0;stroke-dasharray:2.0,2.0;" x1="252" x2="661.5" y1="260.1504" y2="260.1504"/><text fill="#000000" font-family="sans-serif" font-size="13" lengthAdjust="spacing" textLength="7" x="451.25" y="255.4082">c</text><polygon fill="#181818" points="63,285.4609,53,289.4609,63,293.4609" style="stroke:#181818;stroke-width:1.0;"/><line style="stroke:#181818;stroke-width:1.0;stroke-dasharray:2.0,2.0;" x1="57" x2="241" y1="289.4609" y2="289.4609"/><text fill="#000000" font-family="sans-serif" font-size="13" lengthAdjust="spacing" textLength="7" x="143.5" y="284.7188">c</text><polygon fill="#181818" points="645.5,314.7715,655.5,318.7715,645.5,322.7715" style="stroke:#181818;stroke-width:1.0;"/><line style="stroke:#181818;stroke-width:1.0;" x1="52" x2="651.5" y1="318.7715" y2="318.7715"/><text fill="#000000" font-family="sans-serif" font-size="13" lengthAdjust="spacing" textLength="99" x="305.25" y="314.0293">execute(a, data)</text><polygon fill="#181818" points="781.5,344.082,791.5,348.082,781.5,352.082" style="stroke:#181818;stroke-width:1.0;"/><line style="stroke:#181818;stroke-width:1.0;" x1="667.5" x2="787.5" y1="348.082" y2="348.082"/><text fill="#000000" font-family="sans-serif" font-size="13" lengthAdjust="spacing" textLength="87" x="687" y="343.3398">getActivities()</text><polygon fill="#181818" points="678.5,373.3926,668.5,377.3926,678.5,381.3926" style="stroke:#181818;stroke-width:1.0;"/><line style="stroke:#181818;stroke-width:1.0;stroke-dasharray:2.0,2.0;" x1="672.5" x2="797.5" y1="377.3926" y2="377.3926"/><text fill="#000000" font-family="sans-serif" font-size="13" lengthAdjust="spacing" textLength="57" x="704.5" y="372.6504">activities</text><polygon fill="#181818" points="905.5,402.7031,915.5,406.7031,905.5,410.7031" style="stroke:#181818;stroke-width:1.0;"/><line style="stroke:#181818;stroke-width:1.0;" x1="667.5" x2="911.5" y1="406.7031" y2="406.7031"/><text fill="#000000" font-family="sans-serif" font-size="13" lengthAdjust="spacing" textLength="38" x="773.5" y="401.9609">add(a)</text><polygon fill="#181818" points="678.5,416.7031,668.5,420.7031,678.5,424.7031" style="stroke:#181818;stroke-width:1.0;"/><line style="stroke:#181818;stroke-width:1.0;stroke-dasharray:2.0,2.0;" x1="672.5" x2="921.5" y1="420.7031" y2="420.7031"/><polygon fill="#181818" points="63,446.0137,53,450.0137,63,454.0137" style="stroke:#181818;stroke-width:1.0;"/><line style="stroke:#181818;stroke-width:1.0;stroke-dasharray:2.0,2.0;" x1="57" x2="661.5" y1="450.0137" y2="450.0137"/><text fill="#000000" font-family="sans-serif" font-size="13" lengthAdjust="spacing" textLength="55" x="329.75" y="445.2715">message</text><line style="stroke:#A80036;stroke-width:2.0;" x1="653.5" x2="671.5" y1="441.0137" y2="459.0137"/><line style="stroke:#A80036;stroke-width:2.0;" x1="653.5" x2="671.5" y1="459.0137" y2="441.0137"/><!--SRC=[ZLJRRjim37tNLx3DGr9aNXxQ9wC8OBZ04213Xkq32bRc7A6ox5dqDl_zv4ji-L9WVX0eyXmUub3mzifSsF1mA3GQhZBzMURPmTAlYeoa856ObfW9-wvCWIw27rnh0ikbaWtSh_IahsGjfXHfbPgC38Dq1vL2t2NqKnc2y-NBANwDB-VBTzWykYz-4iBrO2LLuQQ0-p3YgoPMyVbq3sXXlC8cBz6aDCL_mz9IsKAx49wVfKPhZqVOk3ck_AQh6IUIh7uhhZtkDFKVFJ2yKIPysDIaTVvd2fPXb2GtI9nd6PgaeotIlM1Q4fbfamGPmnTtjCmc6B7rRBYkfo8xJ7bMbblYMFFfOlHvl_Sk41nxN_Vx48ecwWVTLIvvCaN53w9tpM6dFWwSMtg7PLerByC-Y9db7hcX3OmH2C5280X2m4MdOUQkx0aix6wb5jaTEjNbQgQDfV3qHiUwqip2TM7wIx9Ysk4dQ9QxhdbiLzt0K-9eM9xpPTk-WKPztAbRtjRRSD3JMoE6j103SwauWwwFv0iwUD8wDjDTQ_sHgrFxikut8aH2xc-Jrokj_W40]--></g></svg>