<?xml version="1.0" encoding="us-ascii" standalone="no"?><svg xmlns="http://www.w3.org/2000/svg" xmlns:xlink="http://www.w3.org/1999/xlink" contentStyleType="text/css" height="485px" preserveAspectRatio="none" style="width:897px;height:485px;background:#FFFFFF;" version="1.1" viewBox="0 0 897 485" width="897px" zoomAndPan="magnify"><defs/><g><rect fill="#FFFFFF" height="423.0371" style="stroke:#181818;stroke-width:1.0;" width="10" x="42" y="46.4883"/><rect fill="#FFFFFF" height="188.8633" style="stroke:#181818;stroke-width:1.0;" width="10" x="237" y="67.7988"/><rect fill="#FFFFFF" height="63.6211" style="stroke:#181818;stroke-width:1.0;" width="10" x="242" y="105.1094"/><rect fill="#FFFFFF" height="29.3105" style="stroke:#181818;stroke-width:1.0;" width="10" x="418" y="139.4199"/><rect fill="#FFFFFF" height="29.3105" style="stroke:#181818;stroke-width:1.0;" width="10" x="552" y="198.041"/><rect fill="#FFFFFF" height="174.5527" style="stroke:#181818;stroke-width:1.0;" width="10" x="552" y="285.9727"/><rect fill="#FFFFFF" height="72.6211" style="stroke:#181818;stroke-width:1.0;" width="10" x="688" y="315.2832"/><rect fill="#FFFFFF" height="29.3105" style="stroke:#181818;stroke-width:1.0;" width="10" x="812" y="329.2832"/><rect fill="#FFFFFF" height="14" style="stroke:#181818;stroke-width:1.0;" width="10" x="812" y="417.2148"/><line style="stroke:#181818;stroke-width:0.5;stroke-dasharray:5.0,5.0;" x1="47" x2="47" y1="36.4883" y2="478.5254"/><line style="stroke:#181818;stroke-width:0.5;stroke-dasharray:5.0,5.0;" x1="241.5" x2="241.5" y1="36.4883" y2="478.5254"/><line style="stroke:#181818;stroke-width:0.5;stroke-dasharray:5.0,5.0;" x1="422.5" x2="422.5" y1="36.4883" y2="478.5254"/><line style="stroke:#181818;stroke-width:0.5;stroke-dasharray:5.0,5.0;" x1="556.5" x2="556.5" y1="36.4883" y2="478.5254"/><line style="stroke:#181818;stroke-width:0.5;stroke-dasharray:5.0,5.0;" x1="692.5" x2="692.5" y1="36.4883" y2="478.5254"/><line style="stroke:#181818;stroke-width:0.5;stroke-dasharray:5.0,5.0;" x1="816.5" x2="816.5" y1="36.4883" y2="478.5254"/><rect fill="#3333C4" height="30.4883" rx="2.5" ry="2.5" style="stroke:#181818;stroke-width:0.5;" width="84" x="5" y="5"/><text fill="#000000" font-family="sans-serif" font-size="14" lengthAdjust="spacing" textLength="70" x="12" y="25.5352">:AthletiCLI</text><rect fill="#ADD8E6" height="30.4883" rx="2.5" ry="2.5" style="stroke:#181818;stroke-width:0.5;" width="61" x="211.5" y="5"/><text fill="#000000" font-family="sans-serif" font-size="14" lengthAdjust="spacing" textLength="47" x="218.5" y="25.5352">:Parser</text><rect fill="#FFFF00" height="30.4883" rx="2.5" ry="2.5" style="stroke:#181818;stroke-width:0.5;" width="75" x="385.5" y="5"/><text fill="#000000" font-family="sans-serif" font-size="14" lengthAdjust="spacing" textLength="61" x="392.5" y="25.5352">a:Activity</text><rect fill="#90EE90" height="30.4883" rx="2.5" ry="2.5" style="stroke:#181818;stroke-width:0.5;" width="173" x="470.5" y="5"/><text fill="#000000" font-family="sans-serif" font-size="14" lengthAdjust="spacing" textLength="159" x="477.5" y="25.5352">c:AddActivityCommand</text><rect fill="#D3D3D3" height="30.4883" rx="2.5" ry="2.5" style="stroke:#181818;stroke-width:0.5;" width="79" x="653.5" y="5"/><text fill="#000000" font-family="sans-serif" font-size="14" lengthAdjust="spacing" textLength="65" x="660.5" y="25.5352">data:Data</text><rect fill="#D3D3D3" height="30.4883" rx="2.5" ry="2.5" style="stroke:#181818;stroke-width:0.5;" width="149" x="742.5" y="5"/><text fill="#000000" font-family="sans-serif" font-size="14" lengthAdjust="spacing" textLength="135" x="749.5" y="25.5352">activities:ActivityList</text><rect fill="#FFFFFF" height="423.0371" style="stroke:#181818;stroke-width:1.0;" width="10" x="42" y="46.4883"/><rect fill="#FFFFFF" height="188.8633" style="stroke:#181818;stroke-width:1.0;" width="10" x="237" y="67.7988"/><rect fill="#FFFFFF" height="63.6211" style="stroke:#181818;stroke-width:1.0;" width="10" x="242" y="105.1094"/><rect fill="#FFFFFF" height="29.3105" style="stroke:#181818;stroke-width:1.0;" width="10" x="418" y="139.4199"/><rect fill="#FFFFFF" height="29.3105" style="stroke:#181818;stroke-width:1.0;" width="10" x="552" y="198.041"/><rect fill="#FFFFFF" height="174.5527" style="stroke:#181818;stroke-width:1.0;" width="10" x="552" y="285.9727"/><rect fill="#FFFFFF" height="72.6211" style="stroke:#181818;stroke-width:1.0;" width="10" x="688" y="315.2832"/><rect fill="#FFFFFF" height="29.3105" style="stroke:#181818;stroke-width:1.0;" width="10" x="812" y="329.2832"/><rect fill="#FFFFFF" height="14" style="stroke:#181818;stroke-width:1.0;" width="10" x="812" y="417.2148"/><polygon fill="#181818" points="225,63.7988,235,67.7988,225,71.7988" style="stroke:#181818;stroke-width:1.0;"/><line style="stroke:#181818;stroke-width:1.0;" x1="52" x2="231" y1="67.7988" y2="67.7988"/><text fill="#000000" font-family="sans-serif" font-size="13" lengthAdjust="spacing" textLength="166" x="61.5" y="63.0566">parseCommand(userInput)</text><line style="stroke:#181818;stroke-width:1.0;" x1="247" x2="294" y1="92.1094" y2="92.1094"/><line style="stroke:#181818;stroke-width:1.0;" x1="294" x2="294" y1="92.1094" y2="105.1094"/><line style="stroke:#181818;stroke-width:1.0;" x1="253" x2="294" y1="105.1094" y2="105.1094"/><polygon fill="#181818" points="263,101.1094,253,105.1094,263,109.1094" style="stroke:#181818;stroke-width:1.0;"/><text fill="#000000" font-family="sans-serif" font-size="13" lengthAdjust="spacing" textLength="157" x="259" y="87.3672">parseActivity(arguments)</text><polygon fill="#181818" points="406,135.4199,416,139.4199,406,143.4199" style="stroke:#181818;stroke-width:1.0;"/><line style="stroke:#181818;stroke-width:1.0;" x1="252" x2="412" y1="139.4199" y2="139.4199"/><text fill="#000000" font-family="sans-serif" font-size="13" lengthAdjust="spacing" textLength="56" x="307" y="134.6777">Activity()</text><polygon fill="#181818" points="258,164.7305,248,168.7305,258,172.7305" style="stroke:#181818;stroke-width:1.0;"/><line style="stroke:#181818;stroke-width:1.0;stroke-dasharray:2.0,2.0;" x1="252" x2="422" y1="168.7305" y2="168.7305"/><text fill="#000000" font-family="sans-serif" font-size="13" lengthAdjust="spacing" textLength="7" x="331.5" y="163.9883">a</text><polygon fill="#181818" points="540,194.041,550,198.041,540,202.041" style="stroke:#181818;stroke-width:1.0;"/><line style="stroke:#181818;stroke-width:1.0;" x1="247" x2="546" y1="198.041" y2="198.041"/><text fill="#000000" font-family="sans-serif" font-size="13" lengthAdjust="spacing" textLength="246" x="276.5" y="193.2988">parseAddActivityCommand(arguments)</text><polygon fill="#181818" points="258,223.3516,248,227.3516,258,231.3516" style="stroke:#181818;stroke-width:1.0;"/><line style="stroke:#181818;stroke-width:1.0;stroke-dasharray:2.0,2.0;" x1="252" x2="556" y1="227.3516" y2="227.3516"/><text fill="#000000" font-family="sans-serif" font-size="13" lengthAdjust="spacing" textLength="7" x="398.5" y="222.6094">c</text><polygon fill="#181818" points="63,252.6621,53,256.6621,63,260.6621" style="stroke:#181818;stroke-width:1.0;"/><line style="stroke:#181818;stroke-width:1.0;stroke-dasharray:2.0,2.0;" x1="57" x2="241" y1="256.6621" y2="256.6621"/><text fill="#000000" font-family="sans-serif" font-size="13" lengthAdjust="spacing" textLength="7" x="143.5" y="251.9199">c</text><polygon fill="#181818" points="540,281.9727,550,285.9727,540,289.9727" style="stroke:#181818;stroke-width:1.0;"/><line style="stroke:#181818;stroke-width:1.0;" x1="52" x2="546" y1="285.9727" y2="285.9727"/><text fill="#000000" font-family="sans-serif" font-size="13" lengthAdjust="spacing" textLength="99" x="252.5" y="281.2305">execute(a, data)</text><polygon fill="#181818" points="676,311.2832,686,315.2832,676,319.2832" style="stroke:#181818;stroke-width:1.0;"/><line style="stroke:#181818;stroke-width:1.0;" x1="562" x2="682" y1="315.2832" y2="315.2832"/><text fill="#000000" font-family="sans-serif" font-size="13" lengthAdjust="spacing" textLength="87" x="581.5" y="310.541">getActivities()</text><polygon fill="#181818" points="800,325.2832,810,329.2832,800,333.2832" style="stroke:#181818;stroke-width:1.0;"/><line style="stroke:#181818;stroke-width:1.0;stroke-dasharray:2.0,2.0;" x1="698" x2="806" y1="329.2832" y2="329.2832"/><polygon fill="#181818" points="709,354.5938,699,358.5938,709,362.5938" style="stroke:#181818;stroke-width:1.0;"/><line style="stroke:#181818;stroke-width:1.0;stroke-dasharray:2.0,2.0;" x1="703" x2="816" y1="358.5938" y2="358.5938"/><text fill="#000000" font-family="sans-serif" font-size="13" lengthAdjust="spacing" textLength="57" x="729" y="353.8516">activities</text><polygon fill="#181818" points="573,383.9043,563,387.9043,573,391.9043" style="stroke:#181818;stroke-width:1.0;"/><line style="stroke:#181818;stroke-width:1.0;stroke-dasharray:2.0,2.0;" x1="567" x2="692" y1="387.9043" y2="387.9043"/><text fill="#000000" font-family="sans-serif" font-size="13" lengthAdjust="spacing" textLength="57" x="599" y="383.1621">activities</text><polygon fill="#181818" points="800,413.2148,810,417.2148,800,421.2148" style="stroke:#181818;stroke-width:1.0;"/><line style="stroke:#181818;stroke-width:1.0;" x1="562" x2="806" y1="417.2148" y2="417.2148"/><text fill="#000000" font-family="sans-serif" font-size="13" lengthAdjust="spacing" textLength="38" x="668" y="412.4727">add(a)</text><polygon fill="#181818" points="573,427.2148,563,431.2148,573,435.2148" style="stroke:#181818;stroke-width:1.0;"/><line style="stroke:#181818;stroke-width:1.0;stroke-dasharray:2.0,2.0;" x1="567" x2="816" y1="431.2148" y2="431.2148"/><polygon fill="#181818" points="63,456.5254,53,460.5254,63,464.5254" style="stroke:#181818;stroke-width:1.0;"/><line style="stroke:#181818;stroke-width:1.0;" x1="57" x2="556" y1="460.5254" y2="460.5254"/><text fill="#000000" font-family="sans-serif" font-size="13" lengthAdjust="spacing" textLength="55" x="277" y="455.7832">message</text><!--SRC=[TLHTRwCm47ptht3BGnFbQ3xQvauyLABqL4LAbQhjU-KpUyGgE1Glr-RVrmO21dmyeBLdPcSp6t6nHynLC9_dAPDOPkabFsHp1HybI0v-B5XIi8oeTo5pfYlwWiSKgC92S4EtaKRq24gn1C9K9383YPJh5nI4dCNmLqYWszt39dgBTjlTC_Mkz1DTkx2troNrVkhd_iuDhwXtixfPHR_Ty1Nrbklb-cxXXgyrl5WkVgq9qVEZu2BN2T3p8CHz2YYYxUQSCaMxewqVQ9vOeQ2e-7L9FVtpz_WdBQ5FPK78KVmJUAoxDmVg7I5D3vzzCW_2E3vHeaEMCHdNij5rOvWK0BBV96R8WdlzgfIcwBZ7mN1rJm6gdN8h55R23hFbf8jdDhCErBzjafZD0fgRgXbqKkhBZSnBd98cgp7tv3vXHLAQFv6ooIVKq5lcbBHP-cr3tmye8wVQRZ4AiFCUGVOKZkJxThnrCJPj83KqICWz1Nm1Bn4cx0SrktDxtbQRDFG4C6ntesEeDcpCkutfrLZhynjn5KvxJJhXs6z0TGza-sbwh7ER3drThV_JhfzTLdzLlW40]--></g></svg>