<?xml version="1.0" encoding="us-ascii" standalone="no"?><svg xmlns="http://www.w3.org/2000/svg" xmlns:xlink="http://www.w3.org/1999/xlink" contentStyleType="text/css" height="484px" preserveAspectRatio="none" style="width:1022px;height:484px;background:#FFFFFF;" version="1.1" viewBox="0 0 1022 484" width="1022px" zoomAndPan="magnify"><defs/><g><rect fill="#FFFFFF" height="422.0371" style="stroke:#181818;stroke-width:1.0;" width="10" x="42" y="46.4883"/><rect fill="#FFFFFF" height="231.1738" style="stroke:#181818;stroke-width:1.0;" width="10" x="237" y="67.7988"/><rect fill="#FFFFFF" height="98.9316" style="stroke:#181818;stroke-width:1.0;" width="10" x="242" y="105.1094"/><rect fill="#FFFFFF" height="29.3105" style="stroke:#181818;stroke-width:1.0;" width="10" x="446" y="139.4199"/><rect fill="#FFFFFF" height="29.3105" style="stroke:#181818;stroke-width:1.0;" width="10" x="608" y="240.3516"/><rect fill="#FFFFFF" height="131.2422" style="stroke:#181818;stroke-width:1.0;" width="10" x="608" y="328.2832"/><rect fill="#FFFFFF" height="29.3105" style="stroke:#181818;stroke-width:1.0;" width="10" x="756" y="357.5938"/><rect fill="#FFFFFF" height="14" style="stroke:#181818;stroke-width:1.0;" width="10" x="908.5" y="416.2148"/><line style="stroke:#181818;stroke-width:0.5;stroke-dasharray:5.0,5.0;" x1="47" x2="47" y1="36.4883" y2="477.5254"/><line style="stroke:#181818;stroke-width:0.5;stroke-dasharray:5.0,5.0;" x1="241.5" x2="241.5" y1="36.4883" y2="477.5254"/><line style="stroke:#181818;stroke-width:0.5;stroke-dasharray:5.0,5.0;" x1="450.5" x2="450.5" y1="36.4883" y2="477.5254"/><line style="stroke:#181818;stroke-width:0.5;stroke-dasharray:5.0,5.0;" x1="612.5" x2="612.5" y1="36.4883" y2="477.5254"/><line style="stroke:#181818;stroke-width:0.5;stroke-dasharray:5.0,5.0;" x1="760.5" x2="760.5" y1="36.4883" y2="477.5254"/><line style="stroke:#181818;stroke-width:0.5;stroke-dasharray:5.0,5.0;" x1="913.5" x2="913.5" y1="36.4883" y2="477.5254"/><rect fill="#3333C4" height="30.4883" rx="2.5" ry="2.5" style="stroke:#181818;stroke-width:0.5;" width="84" x="5" y="5"/><text fill="#000000" font-family="sans-serif" font-size="14" lengthAdjust="spacing" textLength="70" x="12" y="25.5352">:AthletiCLI</text><rect fill="#ADD8E6" height="30.4883" rx="2.5" ry="2.5" style="stroke:#181818;stroke-width:0.5;" width="61" x="211.5" y="5"/><text fill="#000000" font-family="sans-serif" font-size="14" lengthAdjust="spacing" textLength="47" x="218.5" y="25.5352">:Parser</text><rect fill="#FFFF00" height="30.4883" rx="2.5" ry="2.5" style="stroke:#181818;stroke-width:0.5;" width="107" x="397.5" y="5"/><text fill="#000000" font-family="sans-serif" font-size="14" lengthAdjust="spacing" textLength="93" x="404.5" y="25.5352">g:ActivityGoal</text><rect fill="#90EE90" height="30.4883" rx="2.5" ry="2.5" style="stroke:#181818;stroke-width:0.5;" width="197" x="514.5" y="5"/><text fill="#000000" font-family="sans-serif" font-size="14" lengthAdjust="spacing" textLength="183" x="521.5" y="25.5352">c:SetActivityGoalCommand</text><rect fill="#D3D3D3" height="30.4883" rx="2.5" ry="2.5" style="stroke:#181818;stroke-width:0.5;" width="79" x="721.5" y="5"/><text fill="#000000" font-family="sans-serif" font-size="14" lengthAdjust="spacing" textLength="65" x="728.5" y="25.5352">data:Data</text><rect fill="#D3D3D3" height="30.4883" rx="2.5" ry="2.5" style="stroke:#181818;stroke-width:0.5;" width="206" x="810.5" y="5"/><text fill="#000000" font-family="sans-serif" font-size="14" lengthAdjust="spacing" textLength="192" x="817.5" y="25.5352">activityGoals:ActivityGoalList</text><rect fill="#FFFFFF" height="422.0371" style="stroke:#181818;stroke-width:1.0;" width="10" x="42" y="46.4883"/><rect fill="#FFFFFF" height="231.1738" style="stroke:#181818;stroke-width:1.0;" width="10" x="237" y="67.7988"/><rect fill="#FFFFFF" height="98.9316" style="stroke:#181818;stroke-width:1.0;" width="10" x="242" y="105.1094"/><rect fill="#FFFFFF" height="29.3105" style="stroke:#181818;stroke-width:1.0;" width="10" x="446" y="139.4199"/><rect fill="#FFFFFF" height="29.3105" style="stroke:#181818;stroke-width:1.0;" width="10" x="608" y="240.3516"/><rect fill="#FFFFFF" height="131.2422" style="stroke:#181818;stroke-width:1.0;" width="10" x="608" y="328.2832"/><rect fill="#FFFFFF" height="29.3105" style="stroke:#181818;stroke-width:1.0;" width="10" x="756" y="357.5938"/><rect fill="#FFFFFF" height="14" style="stroke:#181818;stroke-width:1.0;" width="10" x="908.5" y="416.2148"/><polygon fill="#181818" points="225,63.7988,235,67.7988,225,71.7988" style="stroke:#181818;stroke-width:1.0;"/><line style="stroke:#181818;stroke-width:1.0;" x1="52" x2="231" y1="67.7988" y2="67.7988"/><text fill="#000000" font-family="sans-serif" font-size="13" lengthAdjust="spacing" textLength="166" x="61.5" y="63.0566">parseCommand(userInput)</text><line style="stroke:#181818;stroke-width:1.0;" x1="247" x2="294" y1="92.1094" y2="92.1094"/><line style="stroke:#181818;stroke-width:1.0;" x1="294" x2="294" y1="92.1094" y2="105.1094"/><line style="stroke:#181818;stroke-width:1.0;" x1="253" x2="294" y1="105.1094" y2="105.1094"/><polygon fill="#181818" points="263,101.1094,253,105.1094,263,109.1094" style="stroke:#181818;stroke-width:1.0;"/><text fill="#000000" font-family="sans-serif" font-size="13" lengthAdjust="spacing" textLength="185" x="259" y="87.3672">parseActivityGoal(arguments)</text><polygon fill="#181818" points="434,135.4199,444,139.4199,434,143.4199" style="stroke:#181818;stroke-width:1.0;"/><line style="stroke:#181818;stroke-width:1.0;" x1="252" x2="440" y1="139.4199" y2="139.4199"/><text fill="#000000" font-family="sans-serif" font-size="13" lengthAdjust="spacing" textLength="84" x="307" y="134.6777">ActivityGoal()</text><polygon fill="#181818" points="263,164.7305,253,168.7305,263,172.7305" style="stroke:#181818;stroke-width:1.0;"/><line style="stroke:#181818;stroke-width:1.0;stroke-dasharray:2.0,2.0;" x1="257" x2="450" y1="168.7305" y2="168.7305"/><text fill="#000000" font-family="sans-serif" font-size="13" lengthAdjust="spacing" textLength="8" x="347.5" y="163.9883">g</text><line style="stroke:#181818;stroke-width:1.0;" x1="252" x2="294" y1="203.041" y2="203.041"/><line style="stroke:#181818;stroke-width:1.0;" x1="294" x2="294" y1="203.041" y2="216.041"/><line style="stroke:#181818;stroke-width:1.0;" x1="247" x2="294" y1="216.041" y2="216.041"/><polygon fill="#181818" points="257,212.041,247,216.041,257,220.041" style="stroke:#181818;stroke-width:1.0;"/><text fill="#000000" font-family="sans-serif" font-size="13" lengthAdjust="spacing" textLength="8" x="259" y="198.2988">g</text><polygon fill="#181818" points="596,236.3516,606,240.3516,596,244.3516" style="stroke:#181818;stroke-width:1.0;"/><line style="stroke:#181818;stroke-width:1.0;" x1="247" x2="602" y1="240.3516" y2="240.3516"/><text fill="#000000" font-family="sans-serif" font-size="13" lengthAdjust="spacing" textLength="175" x="340" y="235.6094">SetActivityGoalCommand(g)</text><polygon fill="#181818" points="258,265.6621,248,269.6621,258,273.6621" style="stroke:#181818;stroke-width:1.0;"/><line style="stroke:#181818;stroke-width:1.0;stroke-dasharray:2.0,2.0;" x1="252" x2="612" y1="269.6621" y2="269.6621"/><text fill="#000000" font-family="sans-serif" font-size="13" lengthAdjust="spacing" textLength="7" x="426.5" y="264.9199">c</text><polygon fill="#181818" points="63,294.9727,53,298.9727,63,302.9727" style="stroke:#181818;stroke-width:1.0;"/><line style="stroke:#181818;stroke-width:1.0;stroke-dasharray:2.0,2.0;" x1="57" x2="241" y1="298.9727" y2="298.9727"/><text fill="#000000" font-family="sans-serif" font-size="13" lengthAdjust="spacing" textLength="7" x="143.5" y="294.2305">c</text><polygon fill="#181818" points="596,324.2832,606,328.2832,596,332.2832" style="stroke:#181818;stroke-width:1.0;"/><line style="stroke:#181818;stroke-width:1.0;" x1="52" x2="602" y1="328.2832" y2="328.2832"/><text fill="#000000" font-family="sans-serif" font-size="13" lengthAdjust="spacing" textLength="100" x="280" y="323.541">execute(g, data)</text><polygon fill="#181818" points="744,353.5938,754,357.5938,744,361.5938" style="stroke:#181818;stroke-width:1.0;"/><line style="stroke:#181818;stroke-width:1.0;" x1="618" x2="750" y1="357.5938" y2="357.5938"/><text fill="#000000" font-family="sans-serif" font-size="13" lengthAdjust="spacing" textLength="111" x="631.5" y="352.8516">getActivityGoals()</text><polygon fill="#181818" points="629,382.9043,619,386.9043,629,390.9043" style="stroke:#181818;stroke-width:1.0;"/><line style="stroke:#181818;stroke-width:1.0;stroke-dasharray:2.0,2.0;" x1="623" x2="760" y1="386.9043" y2="386.9043"/><text fill="#000000" font-family="sans-serif" font-size="13" lengthAdjust="spacing" textLength="81" x="649" y="382.1621">activityGoals</text><polygon fill="#181818" points="896.5,412.2148,906.5,416.2148,896.5,420.2148" style="stroke:#181818;stroke-width:1.0;"/><line style="stroke:#181818;stroke-width:1.0;" x1="618" x2="902.5" y1="416.2148" y2="416.2148"/><text fill="#000000" font-family="sans-serif" font-size="13" lengthAdjust="spacing" textLength="39" x="743.75" y="411.4727">add(g)</text><polygon fill="#181818" points="629,426.2148,619,430.2148,629,434.2148" style="stroke:#181818;stroke-width:1.0;"/><line style="stroke:#181818;stroke-width:1.0;stroke-dasharray:2.0,2.0;" x1="623" x2="912.5" y1="430.2148" y2="430.2148"/><polygon fill="#181818" points="63,455.5254,53,459.5254,63,463.5254" style="stroke:#181818;stroke-width:1.0;"/><line style="stroke:#181818;stroke-width:1.0;" x1="57" x2="612" y1="459.5254" y2="459.5254"/><text fill="#000000" font-family="sans-serif" font-size="13" lengthAdjust="spacing" textLength="55" x="305" y="454.7832">message</text><line style="stroke:#A80036;stroke-width:2.0;" x1="604" x2="622" y1="450.5254" y2="468.5254"/><line style="stroke:#A80036;stroke-width:2.0;" x1="604" x2="622" y1="468.5254" y2="450.5254"/><!--SRC=[VLJHJeCm57tlLzJjmIs8Uz0d7fOic2nBC3Fw0QQMQzTO2jABoj_R0XdjDiP3KthFkUTmRiFj0R4ooMfLAQQnATGzBukLWUy6D8SubqpKh23cI-gAsHrzmrO1DLXBxk1-PI0zWp5Cm4P9eGlGIBbTe2Ra9eTFgO5c- -qkVK_tsVwLpX_iapuIOdkWvBAoBkWisU110SeqsyqeCtHyzSadd1TM6wWxVB-bSslXW1-gWH0gaWr7-IEntPPCzGhU0Pste5Jv6v9uyWRemzAoA9ZEE_hbqc10r00wR9OpPCcJNJgssupODeGohwy9Z6VIOCSF87uZCWONHTuBZTT3Hb6KqChj1ikBnXxkTDNWaWmfdcDz4mjMYyQDsVW47-5e0MD9WhJZeq0S9rISoOvdSUmLBqVkn2vN5c999iOKEk174VSXnypwqac8qoRW3tY3i11tr0rxMdlTZTzHH8WmDYZINOruKicP2gP_HIR0EJsMTw64j-UQrfNcOKv5_miW90VxfoZRYOx_]--></g></svg>