<?xml version="1.0" encoding="us-ascii" standalone="no"?><svg xmlns="http://www.w3.org/2000/svg" xmlns:xlink="http://www.w3.org/1999/xlink" contentStyleType="text/css" height="501px" preserveAspectRatio="none" style="width:897px;height:501px;background:#FFFFFF;" version="1.1" viewBox="0 0 897 501" width="897px" zoomAndPan="magnify"><defs/><g><rect fill="#FFFFFF" height="422.0371" style="stroke:#181818;stroke-width:1.0;" width="10" x="42" y="62.9766"/><rect fill="#FFFFFF" height="231.1738" style="stroke:#181818;stroke-width:1.0;" width="10" x="237" y="84.2871"/><rect fill="#FFFFFF" height="98.9316" style="stroke:#181818;stroke-width:1.0;" width="10" x="242" y="121.5977"/><rect fill="#FFFFFF" height="29.3105" style="stroke:#181818;stroke-width:1.0;" width="10" x="418" y="155.9082"/><rect fill="#FFFFFF" height="29.3105" style="stroke:#181818;stroke-width:1.0;" width="10" x="552" y="256.8398"/><rect fill="#FFFFFF" height="131.2422" style="stroke:#181818;stroke-width:1.0;" width="10" x="552" y="344.7715"/><rect fill="#FFFFFF" height="29.3105" style="stroke:#181818;stroke-width:1.0;" width="10" x="688" y="374.082"/><rect fill="#FFFFFF" height="14" style="stroke:#181818;stroke-width:1.0;" width="10" x="812" y="432.7031"/><line style="stroke:#181818;stroke-width:0.5;stroke-dasharray:5.0,5.0;" x1="47" x2="47" y1="52.9766" y2="494.0137"/><line style="stroke:#181818;stroke-width:0.5;stroke-dasharray:5.0,5.0;" x1="241.5" x2="241.5" y1="52.9766" y2="494.0137"/><line style="stroke:#181818;stroke-width:0.5;stroke-dasharray:5.0,5.0;" x1="422.5" x2="422.5" y1="52.9766" y2="494.0137"/><line style="stroke:#181818;stroke-width:0.5;stroke-dasharray:5.0,5.0;" x1="556.5" x2="556.5" y1="52.9766" y2="494.0137"/><line style="stroke:#181818;stroke-width:0.5;stroke-dasharray:5.0,5.0;" x1="692.5" x2="692.5" y1="52.9766" y2="494.0137"/><line style="stroke:#181818;stroke-width:0.5;stroke-dasharray:5.0,5.0;" x1="816.5" x2="816.5" y1="52.9766" y2="494.0137"/><rect fill="#3333C4" height="30.4883" rx="2.5" ry="2.5" style="stroke:#181818;stroke-width:0.5;" width="84" x="5" y="21.4883"/><text fill="#000000" font-family="sans-serif" font-size="14" lengthAdjust="spacing" textLength="70" x="12" y="42.0234">:AthletiCLI</text><rect fill="#ADD8E6" height="46.9766" rx="2.5" ry="2.5" style="stroke:#181818;stroke-width:0.5;" width="61" x="211.5" y="5"/><text fill="#000000" font-family="sans-serif" font-size="14" font-style="italic" lengthAdjust="spacing" textLength="47" x="218.5" y="25.5352">&#171;class&#187;</text><text fill="#000000" font-family="sans-serif" font-size="14" lengthAdjust="spacing" textLength="43" x="220.5" y="42.0234">Parser</text><rect fill="#FFFF00" height="30.4883" rx="2.5" ry="2.5" style="stroke:#181818;stroke-width:0.5;" width="75" x="385.5" y="21.4883"/><text fill="#000000" font-family="sans-serif" font-size="14" lengthAdjust="spacing" textLength="61" x="392.5" y="42.0234">a:Activity</text><rect fill="#90EE90" height="30.4883" rx="2.5" ry="2.5" style="stroke:#181818;stroke-width:0.5;" width="173" x="470.5" y="21.4883"/><text fill="#000000" font-family="sans-serif" font-size="14" lengthAdjust="spacing" textLength="159" x="477.5" y="42.0234">c:AddActivityCommand</text><rect fill="#D3D3D3" height="30.4883" rx="2.5" ry="2.5" style="stroke:#181818;stroke-width:0.5;" width="79" x="653.5" y="21.4883"/><text fill="#000000" font-family="sans-serif" font-size="14" lengthAdjust="spacing" textLength="65" x="660.5" y="42.0234">data:Data</text><rect fill="#D3D3D3" height="30.4883" rx="2.5" ry="2.5" style="stroke:#181818;stroke-width:0.5;" width="149" x="742.5" y="21.4883"/><text fill="#000000" font-family="sans-serif" font-size="14" lengthAdjust="spacing" textLength="135" x="749.5" y="42.0234">activities:ActivityList</text><rect fill="#FFFFFF" height="422.0371" style="stroke:#181818;stroke-width:1.0;" width="10" x="42" y="62.9766"/><rect fill="#FFFFFF" height="231.1738" style="stroke:#181818;stroke-width:1.0;" width="10" x="237" y="84.2871"/><rect fill="#FFFFFF" height="98.9316" style="stroke:#181818;stroke-width:1.0;" width="10" x="242" y="121.5977"/><rect fill="#FFFFFF" height="29.3105" style="stroke:#181818;stroke-width:1.0;" width="10" x="418" y="155.9082"/><rect fill="#FFFFFF" height="29.3105" style="stroke:#181818;stroke-width:1.0;" width="10" x="552" y="256.8398"/><rect fill="#FFFFFF" height="131.2422" style="stroke:#181818;stroke-width:1.0;" width="10" x="552" y="344.7715"/><rect fill="#FFFFFF" height="29.3105" style="stroke:#181818;stroke-width:1.0;" width="10" x="688" y="374.082"/><rect fill="#FFFFFF" height="14" style="stroke:#181818;stroke-width:1.0;" width="10" x="812" y="432.7031"/><polygon fill="#181818" points="225,80.2871,235,84.2871,225,88.2871" style="stroke:#181818;stroke-width:1.0;"/><line style="stroke:#181818;stroke-width:1.0;" x1="52" x2="231" y1="84.2871" y2="84.2871"/><text fill="#000000" font-family="sans-serif" font-size="13" lengthAdjust="spacing" textLength="166" x="61.5" y="79.5449">parseCommand(userInput)</text><line style="stroke:#181818;stroke-width:1.0;" x1="247" x2="294" y1="108.5977" y2="108.5977"/><line style="stroke:#181818;stroke-width:1.0;" x1="294" x2="294" y1="108.5977" y2="121.5977"/><line style="stroke:#181818;stroke-width:1.0;" x1="253" x2="294" y1="121.5977" y2="121.5977"/><polygon fill="#181818" points="263,117.5977,253,121.5977,263,125.5977" style="stroke:#181818;stroke-width:1.0;"/><text fill="#000000" font-family="sans-serif" font-size="13" lengthAdjust="spacing" textLength="157" x="259" y="103.8555">parseActivity(arguments)</text><polygon fill="#181818" points="406,151.9082,416,155.9082,406,159.9082" style="stroke:#181818;stroke-width:1.0;"/><line style="stroke:#181818;stroke-width:1.0;" x1="252" x2="412" y1="155.9082" y2="155.9082"/><text fill="#000000" font-family="sans-serif" font-size="13" lengthAdjust="spacing" textLength="56" x="307" y="151.166">Activity()</text><polygon fill="#181818" points="263,181.2188,253,185.2188,263,189.2188" style="stroke:#181818;stroke-width:1.0;"/><line style="stroke:#181818;stroke-width:1.0;stroke-dasharray:2.0,2.0;" x1="257" x2="422" y1="185.2188" y2="185.2188"/><text fill="#000000" font-family="sans-serif" font-size="13" lengthAdjust="spacing" textLength="7" x="334" y="180.4766">a</text><line style="stroke:#181818;stroke-width:1.0;stroke-dasharray:2.0,2.0;" x1="252" x2="294" y1="219.5293" y2="219.5293"/><line style="stroke:#181818;stroke-width:1.0;stroke-dasharray:2.0,2.0;" x1="294" x2="294" y1="219.5293" y2="232.5293"/><line style="stroke:#181818;stroke-width:1.0;stroke-dasharray:2.0,2.0;" x1="247" x2="294" y1="232.5293" y2="232.5293"/><polygon fill="#181818" points="257,228.5293,247,232.5293,257,236.5293" style="stroke:#181818;stroke-width:1.0;"/><text fill="#000000" font-family="sans-serif" font-size="13" lengthAdjust="spacing" textLength="7" x="259" y="214.7871">a</text><polygon fill="#181818" points="540,252.8398,550,256.8398,540,260.8398" style="stroke:#181818;stroke-width:1.0;"/><line style="stroke:#181818;stroke-width:1.0;" x1="247" x2="546" y1="256.8398" y2="256.8398"/><text fill="#000000" font-family="sans-serif" font-size="13" lengthAdjust="spacing" textLength="186" x="306.5" y="252.0977">parseAddActivityCommand(a)</text><polygon fill="#181818" points="258,282.1504,248,286.1504,258,290.1504" style="stroke:#181818;stroke-width:1.0;"/><line style="stroke:#181818;stroke-width:1.0;stroke-dasharray:2.0,2.0;" x1="252" x2="556" y1="286.1504" y2="286.1504"/><text fill="#000000" font-family="sans-serif" font-size="13" lengthAdjust="spacing" textLength="7" x="398.5" y="281.4082">c</text><polygon fill="#181818" points="63,311.4609,53,315.4609,63,319.4609" style="stroke:#181818;stroke-width:1.0;"/><line style="stroke:#181818;stroke-width:1.0;stroke-dasharray:2.0,2.0;" x1="57" x2="241" y1="315.4609" y2="315.4609"/><text fill="#000000" font-family="sans-serif" font-size="13" lengthAdjust="spacing" textLength="7" x="143.5" y="310.7188">c</text><polygon fill="#181818" points="540,340.7715,550,344.7715,540,348.7715" style="stroke:#181818;stroke-width:1.0;"/><line style="stroke:#181818;stroke-width:1.0;" x1="52" x2="546" y1="344.7715" y2="344.7715"/><text fill="#000000" font-family="sans-serif" font-size="13" lengthAdjust="spacing" textLength="99" x="252.5" y="340.0293">execute(a, data)</text><polygon fill="#181818" points="676,370.082,686,374.082,676,378.082" style="stroke:#181818;stroke-width:1.0;"/><line style="stroke:#181818;stroke-width:1.0;" x1="562" x2="682" y1="374.082" y2="374.082"/><text fill="#000000" font-family="sans-serif" font-size="13" lengthAdjust="spacing" textLength="87" x="581.5" y="369.3398">getActivities()</text><polygon fill="#181818" points="573,399.3926,563,403.3926,573,407.3926" style="stroke:#181818;stroke-width:1.0;"/><line style="stroke:#181818;stroke-width:1.0;stroke-dasharray:2.0,2.0;" x1="567" x2="692" y1="403.3926" y2="403.3926"/><text fill="#000000" font-family="sans-serif" font-size="13" lengthAdjust="spacing" textLength="57" x="599" y="398.6504">activities</text><polygon fill="#181818" points="800,428.7031,810,432.7031,800,436.7031" style="stroke:#181818;stroke-width:1.0;"/><line style="stroke:#181818;stroke-width:1.0;" x1="562" x2="806" y1="432.7031" y2="432.7031"/><text fill="#000000" font-family="sans-serif" font-size="13" lengthAdjust="spacing" textLength="38" x="668" y="427.9609">add(a)</text><polygon fill="#181818" points="573,442.7031,563,446.7031,573,450.7031" style="stroke:#181818;stroke-width:1.0;"/><line style="stroke:#181818;stroke-width:1.0;stroke-dasharray:2.0,2.0;" x1="567" x2="816" y1="446.7031" y2="446.7031"/><polygon fill="#181818" points="63,472.0137,53,476.0137,63,480.0137" style="stroke:#181818;stroke-width:1.0;"/><line style="stroke:#181818;stroke-width:1.0;stroke-dasharray:2.0,2.0;" x1="57" x2="556" y1="476.0137" y2="476.0137"/><text fill="#000000" font-family="sans-serif" font-size="13" lengthAdjust="spacing" textLength="55" x="277" y="471.2715">message</text><line style="stroke:#A80036;stroke-width:2.0;" x1="548" x2="566" y1="467.0137" y2="485.0137"/><line style="stroke:#A80036;stroke-width:2.0;" x1="548" x2="566" y1="485.0137" y2="467.0137"/><!--SRC=[TLJBJiCm4BpxAmmzj5K9FS0fgY95GKALYehW0v2nbzJ2SKEy0VBtE8ywpeCS8djtPcSresHvGinDkDtcYcaiCtNBpzdMm5S9caCW94iBbX7pANNEx8c-OgM06Ymah-5-foCzWJ4iXLZ9L6UWaNBxWeAGAm4VKWCz71_toLjoF1nVwEBEFiaz8NO6IYvpkmMz3cCyAK2P7FRNb1dQNttoaFFC2WD50s-FTBVZYXaJHNHXTpdXkofXo65Xp55-IwnQcUv25nKeTVuPWdaO2t619ESiOrgqj4cv4qmB03qS8XYoyC6-6cPzwB7LQBbsfWJZjZn8Wmsnx_bqqlkqsNWN6aIT9vjDIFFwr2swAcrnh_CIrwHpROgzgAzOaPPreiO7Nxert27Nn7aPk85145BccAxS5uF0dpjnjLzeqbengpYDOQZDVUtUdROricjU7Nw1bmWhTaFh8ESreoRM6fu2nYuewycooRjMx_EpGIszD8EEtdZboeGuvbHn19rVoHUqSD4uDjAT6_sVgqFxilQJ9qI0_JESgvbHVm00]--></g></svg>