<?xml version="1.0" encoding="us-ascii" standalone="no"?><svg xmlns="http://www.w3.org/2000/svg" xmlns:xlink="http://www.w3.org/1999/xlink" contentStyleType="text/css" height="591px" preserveAspectRatio="none" style="width:1257px;height:591px;background:#FFFFFF;" version="1.1" viewBox="0 0 1257 591" width="1257px" zoomAndPan="magnify"><defs/><g><!--class StorableList--><g id="elem_StorableList"><rect codeLine="5" fill="#F1F1F1" height="156.3477" id="StorableList" rx="2.5" ry="2.5" style="stroke:#181818;stroke-width:0.5;" width="261" x="312.5" y="7"/><text fill="#000000" font-family="sans-serif" font-size="14" font-style="italic" lengthAdjust="spacing" textLength="75" x="405.5" y="27.1074">StorableList</text><line style="stroke:#181818;stroke-width:0.5;" x1="313.5" x2="572.5" y1="35.6211" y2="35.6211"/><text fill="#000000" font-family="sans-serif" font-size="14" lengthAdjust="spacing" textLength="78" x="318.5" y="54.7285">-path: String</text><line style="stroke:#181818;stroke-width:0.5;" x1="313.5" x2="572.5" y1="62.2422" y2="62.2422"/><text fill="#000000" font-family="sans-serif" font-size="14" lengthAdjust="spacing" textLength="249" x="318.5" y="81.3496">+StorableList(path: String): StorableList</text><text fill="#000000" font-family="sans-serif" font-size="14" lengthAdjust="spacing" textLength="45" x="318.5" y="99.9707">+load()</text><text fill="#000000" font-family="sans-serif" font-size="14" lengthAdjust="spacing" textLength="48" x="318.5" y="118.5918">+save()</text><text fill="#000000" font-family="sans-serif" font-size="14" font-style="italic" lengthAdjust="spacing" textLength="102" x="318.5" y="137.2129">+parse(s:String)</text><text fill="#000000" font-family="sans-serif" font-size="14" font-style="italic" lengthAdjust="spacing" textLength="87" x="318.5" y="155.834">+unparse(t:T)</text></g><!--class <<interface>>\nFindable--><g id="elem_&lt;&lt;interface&gt;&gt;\nFindable"><rect codeLine="15" fill="#F1F1F1" height="81.8633" id="&lt;&lt;interface&gt;&gt;\nFindable" rx="2.5" ry="2.5" style="stroke:#181818;stroke-width:0.5;" width="242" x="731" y="44"/><text fill="#000000" font-family="sans-serif" font-size="14" font-style="italic" lengthAdjust="spacing" textLength="71" x="816.5" y="64.1074">&#171;interface&#187;</text><text fill="#000000" font-family="sans-serif" font-size="14" font-style="italic" lengthAdjust="spacing" textLength="55" x="824.5" y="82.7285">Findable</text><line style="stroke:#181818;stroke-width:0.5;" x1="732" x2="972" y1="91.2422" y2="91.2422"/><line style="stroke:#181818;stroke-width:0.5;" x1="732" x2="972" y1="99.2422" y2="99.2422"/><text fill="#000000" font-family="sans-serif" font-size="14" lengthAdjust="spacing" textLength="230" x="737" y="118.3496">+find(date: LocalDate): ArrayList&lt;T&gt;</text></g><!--class Data--><g id="elem_Data"><rect codeLine="18" fill="#F1F1F1" height="119.1055" id="Data" rx="2.5" ry="2.5" style="stroke:#181818;stroke-width:0.5;" width="137" x="380.5" y="465"/><text fill="#000000" font-family="sans-serif" font-size="14" lengthAdjust="spacing" textLength="30" x="434" y="485.1074">Data</text><line style="stroke:#181818;stroke-width:0.5;" x1="381.5" x2="516.5" y1="493.6211" y2="493.6211"/><line style="stroke:#181818;stroke-width:0.5;" x1="381.5" x2="516.5" y1="501.6211" y2="501.6211"/><text fill="#000000" font-family="sans-serif" font-size="14" lengthAdjust="spacing" textLength="125" x="386.5" y="520.7285">+getInstance():Data</text><text fill="#000000" font-family="sans-serif" font-size="14" lengthAdjust="spacing" textLength="79" x="386.5" y="539.3496">+load(): void</text><text fill="#000000" font-family="sans-serif" font-size="14" lengthAdjust="spacing" textLength="82" x="386.5" y="557.9707">+save(): void</text><text fill="#000000" font-family="sans-serif" font-size="14" lengthAdjust="spacing" textLength="83" x="386.5" y="576.5918">+clear(): void</text></g><!--class ActivityList--><g id="elem_ActivityList"><rect codeLine="24" fill="#F1F1F1" height="100.4844" id="ActivityList" rx="2.5" ry="2.5" style="stroke:#181818;stroke-width:0.5;" width="242" x="1008" y="224"/><text fill="#000000" font-family="sans-serif" font-size="14" lengthAdjust="spacing" textLength="66" x="1096" y="244.1074">ActivityList</text><line style="stroke:#181818;stroke-width:0.5;" x1="1009" x2="1249" y1="252.6211" y2="252.6211"/><line style="stroke:#181818;stroke-width:0.5;" x1="1009" x2="1249" y1="260.6211" y2="260.6211"/><text fill="#000000" font-family="sans-serif" font-size="14" lengthAdjust="spacing" textLength="230" x="1014" y="279.7285">+find(date: LocalDate): ArrayList&lt;T&gt;</text><text fill="#000000" font-family="sans-serif" font-size="14" lengthAdjust="spacing" textLength="102" x="1014" y="298.3496">+parse(s:String)</text><text fill="#000000" font-family="sans-serif" font-size="14" lengthAdjust="spacing" textLength="87" x="1014" y="316.9707">+unparse(t:T)</text></g><!--class DietList--><g id="elem_DietList"><rect codeLine="29" fill="#F1F1F1" height="100.4844" id="DietList" rx="2.5" ry="2.5" style="stroke:#181818;stroke-width:0.5;" width="242" x="454" y="224"/><text fill="#000000" font-family="sans-serif" font-size="14" lengthAdjust="spacing" textLength="47" x="551.5" y="244.1074">DietList</text><line style="stroke:#181818;stroke-width:0.5;" x1="455" x2="695" y1="252.6211" y2="252.6211"/><line style="stroke:#181818;stroke-width:0.5;" x1="455" x2="695" y1="260.6211" y2="260.6211"/><text fill="#000000" font-family="sans-serif" font-size="14" lengthAdjust="spacing" textLength="230" x="460" y="279.7285">+find(date: LocalDate): ArrayList&lt;T&gt;</text><text fill="#000000" font-family="sans-serif" font-size="14" lengthAdjust="spacing" textLength="102" x="460" y="298.3496">+parse(s:String)</text><text fill="#000000" font-family="sans-serif" font-size="14" lengthAdjust="spacing" textLength="87" x="460" y="316.9707">+unparse(t:T)</text></g><!--class SleepList--><g id="elem_SleepList"><rect codeLine="34" fill="#F1F1F1" height="100.4844" id="SleepList" rx="2.5" ry="2.5" style="stroke:#181818;stroke-width:0.5;" width="242" x="731" y="224"/><text fill="#000000" font-family="sans-serif" font-size="14" lengthAdjust="spacing" textLength="58" x="823" y="244.1074">SleepList</text><line style="stroke:#181818;stroke-width:0.5;" x1="732" x2="972" y1="252.6211" y2="252.6211"/><line style="stroke:#181818;stroke-width:0.5;" x1="732" x2="972" y1="260.6211" y2="260.6211"/><text fill="#000000" font-family="sans-serif" font-size="14" lengthAdjust="spacing" textLength="230" x="737" y="279.7285">+find(date: LocalDate): ArrayList&lt;T&gt;</text><text fill="#000000" font-family="sans-serif" font-size="14" lengthAdjust="spacing" textLength="102" x="737" y="298.3496">+parse(s:String)</text><text fill="#000000" font-family="sans-serif" font-size="14" lengthAdjust="spacing" textLength="87" x="737" y="316.9707">+unparse(t:T)</text></g><!--class ActivityGoalList--><g id="elem_ActivityGoalList"><rect codeLine="40" fill="#F1F1F1" height="81.8633" id="ActivityGoalList" rx="2.5" ry="2.5" style="stroke:#181818;stroke-width:0.5;" width="114" x="7" y="233"/><text fill="#000000" font-family="sans-serif" font-size="14" lengthAdjust="spacing" textLength="96" x="16" y="253.1074">ActivityGoalList</text><line style="stroke:#181818;stroke-width:0.5;" x1="8" x2="120" y1="261.6211" y2="261.6211"/><line style="stroke:#181818;stroke-width:0.5;" x1="8" x2="120" y1="269.6211" y2="269.6211"/><text fill="#000000" font-family="sans-serif" font-size="14" lengthAdjust="spacing" textLength="102" x="13" y="288.7285">+parse(s:String)</text><text fill="#000000" font-family="sans-serif" font-size="14" lengthAdjust="spacing" textLength="87" x="13" y="307.3496">+unparse(t:T)</text></g><!--class DietGoalList--><g id="elem_DietGoalList"><rect codeLine="44" fill="#F1F1F1" height="81.8633" id="DietGoalList" rx="2.5" ry="2.5" style="stroke:#181818;stroke-width:0.5;" width="114" x="305" y="233"/><text fill="#000000" font-family="sans-serif" font-size="14" lengthAdjust="spacing" textLength="77" x="323.5" y="253.1074">DietGoalList</text><line style="stroke:#181818;stroke-width:0.5;" x1="306" x2="418" y1="261.6211" y2="261.6211"/><line style="stroke:#181818;stroke-width:0.5;" x1="306" x2="418" y1="269.6211" y2="269.6211"/><text fill="#000000" font-family="sans-serif" font-size="14" lengthAdjust="spacing" textLength="102" x="311" y="288.7285">+parse(s:String)</text><text fill="#000000" font-family="sans-serif" font-size="14" lengthAdjust="spacing" textLength="87" x="311" y="307.3496">+unparse(t:T)</text></g><!--class SleepGoalList--><g id="elem_SleepGoalList"><rect codeLine="48" fill="#F1F1F1" height="81.8633" id="SleepGoalList" rx="2.5" ry="2.5" style="stroke:#181818;stroke-width:0.5;" width="114" x="156" y="233"/><text fill="#000000" font-family="sans-serif" font-size="14" lengthAdjust="spacing" textLength="88" x="169" y="253.1074">SleepGoalList</text><line style="stroke:#181818;stroke-width:0.5;" x1="157" x2="269" y1="261.6211" y2="261.6211"/><line style="stroke:#181818;stroke-width:0.5;" x1="157" x2="269" y1="269.6211" y2="269.6211"/><text fill="#000000" font-family="sans-serif" font-size="14" lengthAdjust="spacing" textLength="102" x="162" y="288.7285">+parse(s:String)</text><text fill="#000000" font-family="sans-serif" font-size="14" lengthAdjust="spacing" textLength="87" x="162" y="307.3496">+unparse(t:T)</text></g><!--reverse link <<interface>>\nFindable to ActivityList--><g id="link_&lt;&lt;interface&gt;&gt;\nFindable_ActivityList"><path codeLine="54" d="M926.3399,136.1896 C968.7899,164.8396 1011.21,193.48 1056.38,223.97 " fill="none" id="&lt;&lt;interface&gt;&gt;\nFindable-backto-ActivityList" style="stroke:#181818;stroke-width:1.0;stroke-dasharray:7.0,7.0;"/><polygon fill="none" points="911.42,126.12,922.9834,141.1629,929.6964,131.2163,911.42,126.12" style="stroke:#181818;stroke-width:1.0;"/></g><!--reverse link <<interface>>\nFindable to DietList--><g id="link_&lt;&lt;interface&gt;&gt;\nFindable_DietList"><path codeLine="55" d="M777.6601,136.1896 C735.2101,164.8396 692.79,193.48 647.62,223.97 " fill="none" id="&lt;&lt;interface&gt;&gt;\nFindable-backto-DietList" style="stroke:#181818;stroke-width:1.0;stroke-dasharray:7.0,7.0;"/><polygon fill="none" points="792.58,126.12,774.3036,131.2163,781.0166,141.1629,792.58,126.12" style="stroke:#181818;stroke-width:1.0;"/></g><!--reverse link <<interface>>\nFindable to SleepList--><g id="link_&lt;&lt;interface&gt;&gt;\nFindable_SleepList"><path codeLine="56" d="M852,144.12 C852,172.77 852,193.48 852,223.97 " fill="none" id="&lt;&lt;interface&gt;&gt;\nFindable-backto-SleepList" style="stroke:#181818;stroke-width:1.0;stroke-dasharray:7.0,7.0;"/><polygon fill="none" points="852,126.12,846,144.12,858,144.12,852,126.12" style="stroke:#181818;stroke-width:1.0;"/></g><!--reverse link StorableList to ActivityList--><g id="link_StorableList_ActivityList"><path codeLine="58" d="M590.8214,129.7661 C635.2414,142.5161 667.99,151.41 714,163 C836.24,193.8 869.81,189.29 991,224 C996.5,225.58 1002.1,227.25 1007.74,229 " fill="none" id="StorableList-backto-ActivityList" style="stroke:#181818;stroke-width:1.0;"/><polygon fill="none" points="573.52,124.8,589.166,135.5332,592.4767,123.9989,573.52,124.8" style="stroke:#181818;stroke-width:1.0;"/></g><!--reverse link StorableList to DietList--><g id="link_StorableList_DietList"><path codeLine="59" d="M507.8328,177.8436 C522.3228,198.3636 527.19,205.27 540.3,223.85 " fill="none" id="StorableList-backto-DietList" style="stroke:#181818;stroke-width:1.0;"/><polygon fill="none" points="497.45,163.14,502.9316,181.3046,512.734,174.3827,497.45,163.14" style="stroke:#181818;stroke-width:1.0;"/></g><!--reverse link StorableList to SleepList--><g id="link_StorableList_SleepList"><path codeLine="60" d="M589.9,153.1649 C645.08,178.3949 692.18,199.93 744.58,223.89 " fill="none" id="StorableList-backto-SleepList" style="stroke:#181818;stroke-width:1.0;"/><polygon fill="none" points="573.53,145.68,587.405,158.6215,592.395,147.7082,573.53,145.68" style="stroke:#181818;stroke-width:1.0;"/></g><!--reverse link StorableList to ActivityGoalList--><g id="link_StorableList_ActivityGoalList"><path codeLine="61" d="M295.8901,146.8039 C241.0501,170.7139 193.7,193.22 138,224 C132.47,227.06 126.81,230.39 121.21,233.83 " fill="none" id="StorableList-backto-ActivityGoalList" style="stroke:#181818;stroke-width:1.0;"/><polygon fill="none" points="312.39,139.61,293.4921,141.3039,298.288,152.3039,312.39,139.61" style="stroke:#181818;stroke-width:1.0;"/></g><!--reverse link StorableList to DietGoalList--><g id="link_StorableList_DietGoalList"><path codeLine="62" d="M402.4296,179.6545 C392.0496,203.5945 388.2,212.51 379.39,232.86 " fill="none" id="StorableList-backto-DietGoalList" style="stroke:#181818;stroke-width:1.0;"/><polygon fill="none" points="409.59,163.14,396.9248,177.2677,407.9344,182.0413,409.59,163.14" style="stroke:#181818;stroke-width:1.0;"/></g><!--reverse link StorableList to SleepGoalList--><g id="link_StorableList_SleepGoalList"><path codeLine="63" d="M334.1527,174.4941 C304.7027,198.4341 287.4,212.51 262.37,232.86 " fill="none" id="StorableList-backto-SleepGoalList" style="stroke:#181818;stroke-width:1.0;"/><polygon fill="none" points="348.12,163.14,330.368,169.8383,337.9374,179.1498,348.12,163.14" style="stroke:#181818;stroke-width:1.0;"/></g><!--link ActivityList to Data--><g id="link_ActivityList_Data"><path codeLine="65" d="M1007.82,319.28 C865.02,371.47 632.66,456.38 517.78,498.36 " fill="none" id="ActivityList-Data" style="stroke:#181818;stroke-width:1.0;"/><polygon fill="#000000" points="831.6962,392.9293,822.1919,393.2736,824.2094,398.7943,831.6962,392.9293" style="stroke:#000000;stroke-width:1.0;"/><text fill="#000000" font-family="sans-serif" font-size="13" lengthAdjust="spacing" textLength="49" x="836" y="400.0283">contains</text><text fill="#000000" font-family="sans-serif" font-size="13" lengthAdjust="spacing" textLength="7" x="992.8327" y="318.6583">1</text><text fill="#000000" font-family="sans-serif" font-size="13" lengthAdjust="spacing" textLength="7" x="525.6856" y="491.6097">1</text></g><!--link DietList to Data--><g id="link_DietList_Data"><path codeLine="66" d="M550.11,324.1 C529.59,364.55 500.45,422.03 478.72,464.89 " fill="none" id="DietList-Data" style="stroke:#181818;stroke-width:1.0;"/><polygon fill="#000000" points="525.2612,390.186,518.5494,396.9242,523.7918,399.5824,525.2612,390.186" style="stroke:#000000;stroke-width:1.0;"/><text fill="#000000" font-family="sans-serif" font-size="13" lengthAdjust="spacing" textLength="49" x="532" y="400.0283">contains</text><text fill="#000000" font-family="sans-serif" font-size="13" lengthAdjust="spacing" textLength="7" x="526.2739" y="346.3553">1</text><text fill="#000000" font-family="sans-serif" font-size="13" lengthAdjust="spacing" textLength="7" x="474.9156" y="453.6287">1</text></g><!--link SleepList to Data--><g id="link_SleepList_Data"><path codeLine="67" d="M772.38,324.1 C698.06,369.92 588.3,437.6 517.72,481.13 " fill="none" id="SleepList-Data" style="stroke:#181818;stroke-width:1.0;"/><polygon fill="#000000" points="679.2559,392.0212,670.0143,394.2671,673.0994,399.2702,679.2559,392.0212" style="stroke:#000000;stroke-width:1.0;"/><text fill="#000000" font-family="sans-serif" font-size="13" lengthAdjust="spacing" textLength="49" x="684" y="400.0283">contains</text><text fill="#000000" font-family="sans-serif" font-size="13" lengthAdjust="spacing" textLength="7" x="753.6913" y="346.3553">1</text><text fill="#000000" font-family="sans-serif" font-size="13" lengthAdjust="spacing" textLength="7" x="525.6191" y="472.4952">1</text></g><!--link ActivityGoalList to Data--><g id="link_ActivityGoalList_Data"><path codeLine="68" d="M116,315.19 C150.73,341.46 197.78,375.95 241,404 C286.42,433.47 339.34,463.83 380.44,486.57 " fill="none" id="ActivityGoalList-Data" style="stroke:#181818;stroke-width:1.0;"/><polygon fill="#000000" points="241.8041,391.9262,247.7962,399.3117,250.9929,394.3792,241.8041,391.9262" style="stroke:#000000;stroke-width:1.0;"/><text fill="#000000" font-family="sans-serif" font-size="13" lengthAdjust="spacing" textLength="49" x="255" y="400.0283">contains</text><text fill="#000000" font-family="sans-serif" font-size="13" lengthAdjust="spacing" textLength="7" x="116.4266" y="336.8598">1</text><text fill="#000000" font-family="sans-serif" font-size="13" lengthAdjust="spacing" textLength="7" x="365.5584" y="478.5302">1</text></g><!--link DietGoalList to Data--><g id="link_DietGoalList_Data"><path codeLine="69" d="M376.07,315.2 C390.26,355.72 412.31,418.7 428.45,464.8 " fill="none" id="DietGoalList-Data" style="stroke:#181818;stroke-width:1.0;"/><polygon fill="#000000" points="410.3477,389.9264,410.5629,399.4345,416.1106,397.4921,410.3477,389.9264" style="stroke:#000000;stroke-width:1.0;"/><text fill="#000000" font-family="sans-serif" font-size="13" lengthAdjust="spacing" textLength="49" x="421" y="400.0283">contains</text><text fill="#000000" font-family="sans-serif" font-size="13" lengthAdjust="spacing" textLength="7" x="370.6885" y="336.8714">1</text><text fill="#000000" font-family="sans-serif" font-size="13" lengthAdjust="spacing" textLength="7" x="414.2752" y="453.5278">1</text></g><!--link SleepGoalList to Data--><g id="link_SleepGoalList_Data"><path codeLine="70" d="M248.63,315.25 C271.57,340.92 302.19,374.74 330,404 C349.06,424.06 370.27,445.59 389.43,464.77 " fill="none" id="SleepGoalList-Data" style="stroke:#181818;stroke-width:1.0;"/><polygon fill="#000000" points="331.5722,391.0054,335.6336,399.6052,339.9127,395.5756,331.5722,391.0054" style="stroke:#000000;stroke-width:1.0;"/><text fill="#000000" font-family="sans-serif" font-size="13" lengthAdjust="spacing" textLength="49" x="344" y="400.0283">contains</text><text fill="#000000" font-family="sans-serif" font-size="13" lengthAdjust="spacing" textLength="7" x="246.5499" y="336.929">1</text><text fill="#000000" font-family="sans-serif" font-size="13" lengthAdjust="spacing" textLength="7" x="375.1375" y="453.92">1</text></g><!--SRC=[jLJ1Ri8m3BtdAwnU1feAspL2I4ZJ9YHkSDp5f06YXRHANAIDyUzBMrfQA30saLDYF_lvlQHzM14bZlVxYKP3wLhtHBpk2utEXP72fSKrSn_A9EXtaCT7H5RDKv9Z4Pkf-fBmn5OgaY2K5LeoXdD75WKLS0Yc55kSQpbHZe8j0xz2I91M7AQ-bLdceKUeuphrV9StSdkuZZ7gTFS7XnjP7RRb13jFOvtiEBvlT0f8JG4XFkiojcDC6P9sWK92C1XKX-7mtRmg4sKp1B3TzrduI2T2aXmciK3zuhT-s96r-9bDEfWDVSl21f_3icufQMmSeH5-Q9vb6feuR68LDPGrGjvbj5Mi91W9KXj5EV4j0nR8TgCQxbHAbAI2v4u4KorbSYU68xFUOjHrmswquH_bkSW_rJDs_cKEldkznakuXYqlyngkkXFFtlYWVJeCZoXR00UUbkIX-QNUfLbd-ry4DFncBFle87WE80pJCD_K9G07_tCZLCR1y0JhBoMe15s61WTjru37CblnK2keI_xL5EtWRFq0]--></g></svg>