<?xml version="1.0" encoding="us-ascii" standalone="no"?><svg xmlns="http://www.w3.org/2000/svg" xmlns:xlink="http://www.w3.org/1999/xlink" contentStyleType="text/css" height="275.4px" preserveAspectRatio="none" style="width:395px;height:275px;background:#FFFFFF;" version="1.1" viewBox="0 0 395 275" width="395.4px" zoomAndPan="magnify"><defs/><g><!--class StorableList--><g id="elem_StorableList"><rect codeLine="5" fill="#F1F1F1" height="71.4633" id="StorableList" rx="1.5" ry="1.5" style="stroke:#181818;stroke-width:0.3;" width="63.6" x="154.2" y="4.2"/><text fill="#000000" font-family="sans-serif" font-size="8.4" lengthAdjust="spacing" textLength="45" x="163.5" y="16.2645">StorableList</text><line style="stroke:#181818;stroke-width:0.3;" x1="154.8" x2="217.2" y1="21.3727" y2="21.3727"/><line style="stroke:#181818;stroke-width:0.3;" x1="154.8" x2="217.2" y1="26.1727" y2="26.1727"/><text fill="#000000" font-family="sans-serif" font-size="8.4" lengthAdjust="spacing" textLength="22.2" x="157.8" y="37.6371">load()</text><text fill="#000000" font-family="sans-serif" font-size="8.4" lengthAdjust="spacing" textLength="24" x="157.8" y="48.8098">save()</text><text fill="#000000" font-family="sans-serif" font-size="8.4" font-style="italic" lengthAdjust="spacing" textLength="56.4" x="157.8" y="59.9824">parse(s:String)</text><text fill="#000000" font-family="sans-serif" font-size="8.4" font-style="italic" lengthAdjust="spacing" textLength="47.4" x="157.8" y="71.1551">unparse(t:T)</text></g><!--class ActivityList--><g id="elem_ActivityList"><rect codeLine="13" fill="#F1F1F1" height="26.7727" id="ActivityList" rx="1.5" ry="1.5" style="stroke:#181818;stroke-width:0.3;" width="43.2" x="348" y="111.6"/><text fill="#000000" font-family="sans-serif" font-size="8.4" lengthAdjust="spacing" textLength="39.6" x="349.8" y="123.6645">ActivityList</text><line style="stroke:#181818;stroke-width:0.3;" x1="348.6" x2="390.6" y1="128.7727" y2="128.7727"/><line style="stroke:#181818;stroke-width:0.3;" x1="348.6" x2="390.6" y1="133.5727" y2="133.5727"/></g><!--class ActivityGoalLIst--><g id="elem_ActivityGoalLIst"><rect codeLine="14" fill="#F1F1F1" height="26.7727" id="ActivityGoalLIst" rx="1.5" ry="1.5" style="stroke:#181818;stroke-width:0.3;" width="61.2" x="153" y="111.6"/><text fill="#000000" font-family="sans-serif" font-size="8.4" lengthAdjust="spacing" textLength="57.6" x="154.8" y="123.6645">ActivityGoalLIst</text><line style="stroke:#181818;stroke-width:0.3;" x1="153.6" x2="213.6" y1="128.7727" y2="128.7727"/><line style="stroke:#181818;stroke-width:0.3;" x1="153.6" x2="213.6" y1="133.5727" y2="133.5727"/></g><!--class DietList--><g id="elem_DietList"><rect codeLine="15" fill="#F1F1F1" height="26.7727" id="DietList" rx="1.5" ry="1.5" style="stroke:#181818;stroke-width:0.3;" width="31.8" x="294.9" y="111.6"/><text fill="#000000" font-family="sans-serif" font-size="8.4" lengthAdjust="spacing" textLength="28.2" x="296.7" y="123.6645">DietList</text><line style="stroke:#181818;stroke-width:0.3;" x1="295.5" x2="326.1" y1="128.7727" y2="128.7727"/><line style="stroke:#181818;stroke-width:0.3;" x1="295.5" x2="326.1" y1="133.5727" y2="133.5727"/></g><!--class DietGoalList--><g id="elem_DietGoalList"><rect codeLine="16" fill="#F1F1F1" height="26.7727" id="DietGoalList" rx="1.5" ry="1.5" style="stroke:#181818;stroke-width:0.3;" width="49.8" x="81.9" y="111.6"/><text fill="#000000" font-family="sans-serif" font-size="8.4" lengthAdjust="spacing" textLength="46.2" x="83.7" y="123.6645">DietGoalList</text><line style="stroke:#181818;stroke-width:0.3;" x1="82.5" x2="131.1" y1="128.7727" y2="128.7727"/><line style="stroke:#181818;stroke-width:0.3;" x1="82.5" x2="131.1" y1="133.5727" y2="133.5727"/></g><!--class SleepList--><g id="elem_SleepList"><rect codeLine="17" fill="#F1F1F1" height="26.7727" id="SleepList" rx="1.5" ry="1.5" style="stroke:#181818;stroke-width:0.3;" width="38.4" x="235.2" y="111.6"/><text fill="#000000" font-family="sans-serif" font-size="8.4" lengthAdjust="spacing" textLength="34.8" x="237" y="123.6645">SleepList</text><line style="stroke:#181818;stroke-width:0.3;" x1="235.8" x2="273" y1="128.7727" y2="128.7727"/><line style="stroke:#181818;stroke-width:0.3;" x1="235.8" x2="273" y1="133.5727" y2="133.5727"/></g><!--class SleepGoalList--><g id="elem_SleepGoalList"><rect codeLine="18" fill="#F1F1F1" height="26.7727" id="SleepGoalList" rx="1.5" ry="1.5" style="stroke:#181818;stroke-width:0.3;" width="56.4" x="4.2" y="111.6"/><text fill="#000000" font-family="sans-serif" font-size="8.4" lengthAdjust="spacing" textLength="52.8" x="6" y="123.6645">SleepGoalList</text><line style="stroke:#181818;stroke-width:0.3;" x1="4.8" x2="60" y1="128.7727" y2="128.7727"/><line style="stroke:#181818;stroke-width:0.3;" x1="4.8" x2="60" y1="133.5727" y2="133.5727"/></g><!--class Findable--><g id="elem_Findable"><rect codeLine="21" fill="#F1F1F1" height="37.9453" id="Findable" rx="1.5" ry="1.5" style="stroke:#181818;stroke-width:0.3;" width="140.4" x="240.6" y="21"/><text fill="#000000" font-family="sans-serif" font-size="8.4" font-style="italic" lengthAdjust="spacing" textLength="33" x="294.3" y="33.0645">Findable</text><line style="stroke:#181818;stroke-width:0.3;" x1="241.2" x2="380.4" y1="38.1727" y2="38.1727"/><line style="stroke:#181818;stroke-width:0.3;" x1="241.2" x2="380.4" y1="42.9727" y2="42.9727"/><text fill="#000000" font-family="sans-serif" font-size="8.4" lengthAdjust="spacing" textLength="133.2" x="244.2" y="54.4371">find(date: LocalDate): ArrayList&lt;T&gt;</text></g><!--class Data--><g id="elem_Data"><rect codeLine="24" fill="#F1F1F1" height="60.2906" id="Data" rx="1.5" ry="1.5" style="stroke:#181818;stroke-width:0.3;" width="79.8" x="179.1" y="211.2"/><text fill="#000000" font-family="sans-serif" font-size="8.4" lengthAdjust="spacing" textLength="18" x="210" y="223.2645">Data</text><line style="stroke:#181818;stroke-width:0.3;" x1="179.7" x2="258.3" y1="228.3727" y2="228.3727"/><line style="stroke:#181818;stroke-width:0.3;" x1="179.7" x2="258.3" y1="233.1727" y2="233.1727"/><text fill="#000000" font-family="sans-serif" font-size="8.4" lengthAdjust="spacing" textLength="72.6" x="182.7" y="244.6371">getInstance(): Data</text><text fill="#000000" font-family="sans-serif" font-size="8.4" lengthAdjust="spacing" textLength="22.2" x="182.7" y="255.8098">load()</text><text fill="#000000" font-family="sans-serif" font-size="8.4" lengthAdjust="spacing" textLength="24" x="182.7" y="266.9824">save()</text></g><!--reverse link Findable to ActivityList--><g id="link_Findable_ActivityList"><path codeLine="30" d="M329.8974,67.7811 C341.0514,83.7231 350.7,97.5 360.552,111.576 " fill="none" id="Findable-backto-ActivityList" style="stroke:#181818;stroke-width:0.6;stroke-dasharray:7.0,7.0;"/><polygon fill="none" points="323.706,58.932,326.9477,69.8449,332.8471,65.7173,323.706,58.932" style="stroke:#181818;stroke-width:0.6;"/></g><!--reverse link Findable to DietList--><g id="link_Findable_DietList"><path codeLine="31" d="M310.8,69.732 C310.8,85.674 310.8,97.5 310.8,111.576 " fill="none" id="Findable-backto-DietList" style="stroke:#181818;stroke-width:0.6;stroke-dasharray:7.0,7.0;"/><polygon fill="none" points="310.8,58.932,307.2,69.732,314.4,69.732,310.8,58.932" style="stroke:#181818;stroke-width:0.6;"/></g><!--reverse link Findable to SleepList--><g id="link_Findable_SleepList"><path codeLine="32" d="M292.404,67.8999 C281.706,83.8419 272.526,97.5 263.076,111.576 " fill="none" id="Findable-backto-SleepList" style="stroke:#181818;stroke-width:0.6;stroke-dasharray:7.0,7.0;"/><polygon fill="none" points="298.422,58.932,289.4147,65.8939,295.3933,69.9059,298.422,58.932" style="stroke:#181818;stroke-width:0.6;"/></g><!--reverse link StorableList to ActivityList--><g id="link_StorableList_ActivityList"><path codeLine="34" d="M226.7043,74.3153 C230.5923,77.0513 225.78,73.404 229.8,75.6 C273.99,99.714 289.926,94.284 337.2,111.6 C340.668,112.872 344.322,114.27 347.88,115.662 " fill="none" id="StorableList-backto-ActivityList" style="stroke:#181818;stroke-width:0.6;"/><polygon fill="none" points="217.872,68.1,224.6325,77.2594,228.7761,71.3712,217.872,68.1" style="stroke:#181818;stroke-width:0.6;"/></g><!--reverse link StorableList to DietList--><g id="link_StorableList_DietList"><path codeLine="35" d="M226.4954,73.4413 C230.4374,76.4593 225.882,72.87 229.8,75.6 C251.622,90.828 278.262,106.368 294.882,115.722 " fill="none" id="StorableList-backto-DietList" style="stroke:#181818;stroke-width:0.6;"/><polygon fill="none" points="217.92,66.876,224.3069,76.2998,228.6838,70.5829,217.92,66.876" style="stroke:#181818;stroke-width:0.6;"/></g><!--reverse link StorableList to SleepList--><g id="link_StorableList_SleepList"><path codeLine="36" d="M221.432,84.0118 C231.752,96.6898 235.956,101.85 243.774,111.45 " fill="none" id="StorableList-backto-SleepList" style="stroke:#181818;stroke-width:0.6;"/><polygon fill="none" points="214.614,75.636,218.6401,86.2845,224.224,81.7392,214.614,75.636" style="stroke:#181818;stroke-width:0.6;"/></g><!--reverse link StorableList to ActivityGoalLIst--><g id="link_StorableList_ActivityGoalLIst"><path codeLine="37" d="M184.6863,86.4315 C184.3203,99.1095 184.248,101.85 183.972,111.45 " fill="none" id="StorableList-backto-ActivityGoalLIst" style="stroke:#181818;stroke-width:0.6;"/><polygon fill="none" points="184.998,75.636,181.0878,86.3276,188.2848,86.5354,184.998,75.636" style="stroke:#181818;stroke-width:0.6;"/></g><!--reverse link StorableList to DietGoalList--><g id="link_StorableList_DietGoalList"><path codeLine="38" d="M146.6051,82.282 C134.3291,95.302 128.442,101.544 119.1,111.456 " fill="none" id="StorableList-backto-DietGoalList" style="stroke:#181818;stroke-width:0.6;"/><polygon fill="none" points="154.014,74.424,143.9857,79.8123,149.2244,84.7516,154.014,74.424" style="stroke:#181818;stroke-width:0.6;"/></g><!--reverse link StorableList to SleepGoalList--><g id="link_StorableList_SleepGoalList"><path codeLine="39" d="M144.7,63.0873 C115.522,79.0413 82.458,97.122 56.154,111.51 " fill="none" id="StorableList-backto-SleepGoalList" style="stroke:#181818;stroke-width:0.6;"/><polygon fill="none" points="154.176,57.906,142.9729,59.9286,146.4271,66.246,154.176,57.906" style="stroke:#181818;stroke-width:0.6;"/></g><!--link ActivityList to Data--><g id="link_ActivityList_Data"><path codeLine="41" d="M352.62,138.66 C329.73,156.12 288.33,187.704 257.658,211.11 " fill="none" id="ActivityList-Data" style="stroke:#181818;stroke-width:0.6;"/></g><!--link DietList to Data--><g id="link_DietList_Data"><path codeLine="42" d="M300.45,138.66 C286.524,156.09 261.348,187.602 242.658,210.99 " fill="none" id="DietList-Data" style="stroke:#181818;stroke-width:0.6;"/></g><!--link SleepList to Data--><g id="link_SleepList_Data"><path codeLine="43" d="M250.41,138.66 C245.04,156.09 235.332,187.602 228.12,210.99 " fill="none" id="SleepList-Data" style="stroke:#181818;stroke-width:0.6;"/></g><!--link ActivityGoalLIst to Data--><g id="link_ActivityGoalLIst_Data"><path codeLine="44" d="M187.59,138.66 C192.96,156.09 202.668,187.602 209.88,210.99 " fill="none" id="ActivityGoalLIst-Data" style="stroke:#181818;stroke-width:0.6;"/></g><!--link DietGoalList to Data--><g id="link_DietGoalList_Data"><path codeLine="45" d="M119.454,138.66 C136.476,156.09 167.244,187.602 190.086,210.99 " fill="none" id="DietGoalList-Data" style="stroke:#181818;stroke-width:0.6;"/></g><!--link SleepGoalList to Data--><g id="link_SleepGoalList_Data"><path codeLine="46" d="M53.442,138.66 C83.802,157.35 140.454,192.234 178.944,215.934 " fill="none" id="SleepGoalList-Data" style="stroke:#181818;stroke-width:0.6;"/></g><!--SRC=[TL7BReCm4BpxAtmh782x5LMA5BMAn8tymCOun98no5uYLId_NcEAUGcVrZFhcTdrnnEnjIpBMWKQkrgblAaphi3Qf9HG6QZ9KvQ2Sccu4eGGpz426mDt9N9fyKseEwg1CefzQU4b_iitt2qQuDZJ5emLaMK56gch7TtfiG7PBIQadupE7ELBueytwZVWTmCglow8YnIuwXm0txK42oL4kqT2ts0lDGhp02xebzJbCEeuviFTeX9GC9et7DJ5bJ6ZPsF0PppTFaam1uJnLINmgYs2vcunp1C7ItE3JuRqz9kcgmLig6dQ3Hp68sJvJOvCahNSdWwIUsgMFLQTFkH0UThmaNhWoR0XcYJT9l0CXw0pD0VSlmx1rWh1SACo1t7d3m00]--></g></svg>