<?xml version="1.0" encoding="us-ascii" standalone="no"?><svg xmlns="http://www.w3.org/2000/svg" xmlns:xlink="http://www.w3.org/1999/xlink" contentStyleType="text/css" height="397px" preserveAspectRatio="none" style="width:790px;height:397px;background:#FFFFFF;" version="1.1" viewBox="0 0 790 397" width="790px" zoomAndPan="magnify"><defs/><g><!--class StorableList--><g id="elem_StorableList"><rect codeLine="5" fill="#F1F1F1" height="119.1055" id="StorableList" rx="2.5" ry="2.5" style="stroke:#181818;stroke-width:0.5;" width="106" x="422.56" y="167"/><text fill="#000000" font-family="sans-serif" font-size="14" lengthAdjust="spacing" textLength="75" x="438.06" y="187.1074">StorableList</text><line style="stroke:#181818;stroke-width:0.5;" x1="423.56" x2="527.56" y1="195.6211" y2="195.6211"/><line style="stroke:#181818;stroke-width:0.5;" x1="423.56" x2="527.56" y1="203.6211" y2="203.6211"/><text fill="#000000" font-family="sans-serif" font-size="14" lengthAdjust="spacing" textLength="67" x="428.56" y="222.7285">void load()</text><text fill="#000000" font-family="sans-serif" font-size="14" lengthAdjust="spacing" textLength="70" x="428.56" y="241.3496">void save()</text><text fill="#000000" font-family="sans-serif" font-size="14" font-style="italic" lengthAdjust="spacing" textLength="94" x="428.56" y="259.9707">parse(s:String)</text><text fill="#000000" font-family="sans-serif" font-size="14" font-style="italic" lengthAdjust="spacing" textLength="79" x="428.56" y="278.5918">unparse(t:T)</text></g><!--class ActivityList--><g id="elem_ActivityList"><rect codeLine="13" fill="#F1F1F1" height="44.6211" id="ActivityList" rx="2.5" ry="2.5" style="stroke:#181818;stroke-width:0.5;" width="72" x="102.56" y="346"/><text fill="#000000" font-family="sans-serif" font-size="14" lengthAdjust="spacing" textLength="66" x="105.56" y="366.1074">ActivityList</text><line style="stroke:#181818;stroke-width:0.5;" x1="103.56" x2="173.56" y1="374.6211" y2="374.6211"/><line style="stroke:#181818;stroke-width:0.5;" x1="103.56" x2="173.56" y1="382.6211" y2="382.6211"/></g><!--class ActivityGoalLIst--><g id="elem_ActivityGoalLIst"><rect codeLine="14" fill="#F1F1F1" height="44.6211" id="ActivityGoalLIst" rx="2.5" ry="2.5" style="stroke:#181818;stroke-width:0.5;" width="102" x="681.56" y="346"/><text fill="#000000" font-family="sans-serif" font-size="14" lengthAdjust="spacing" textLength="96" x="684.56" y="366.1074">ActivityGoalLIst</text><line style="stroke:#181818;stroke-width:0.5;" x1="682.56" x2="782.56" y1="374.6211" y2="374.6211"/><line style="stroke:#181818;stroke-width:0.5;" x1="682.56" x2="782.56" y1="382.6211" y2="382.6211"/></g><!--class DietList--><g id="elem_DietList"><rect codeLine="15" fill="#F1F1F1" height="44.6211" id="DietList" rx="2.5" ry="2.5" style="stroke:#181818;stroke-width:0.5;" width="53" x="210.06" y="346"/><text fill="#000000" font-family="sans-serif" font-size="14" lengthAdjust="spacing" textLength="47" x="213.06" y="366.1074">DietList</text><line style="stroke:#181818;stroke-width:0.5;" x1="211.06" x2="262.06" y1="374.6211" y2="374.6211"/><line style="stroke:#181818;stroke-width:0.5;" x1="211.06" x2="262.06" y1="382.6211" y2="382.6211"/></g><!--class DietGoalList--><g id="elem_DietGoalList"><rect codeLine="16" fill="#F1F1F1" height="44.6211" id="DietGoalList" rx="2.5" ry="2.5" style="stroke:#181818;stroke-width:0.5;" width="83" x="434.06" y="346"/><text fill="#000000" font-family="sans-serif" font-size="14" lengthAdjust="spacing" textLength="77" x="437.06" y="366.1074">DietGoalList</text><line style="stroke:#181818;stroke-width:0.5;" x1="435.06" x2="516.06" y1="374.6211" y2="374.6211"/><line style="stroke:#181818;stroke-width:0.5;" x1="435.06" x2="516.06" y1="382.6211" y2="382.6211"/></g><!--class SleepList--><g id="elem_SleepList"><rect codeLine="17" fill="#F1F1F1" height="44.6211" id="SleepList" rx="2.5" ry="2.5" style="stroke:#181818;stroke-width:0.5;" width="64" x="334.56" y="346"/><text fill="#000000" font-family="sans-serif" font-size="14" lengthAdjust="spacing" textLength="58" x="337.56" y="366.1074">SleepList</text><line style="stroke:#181818;stroke-width:0.5;" x1="335.56" x2="397.56" y1="374.6211" y2="374.6211"/><line style="stroke:#181818;stroke-width:0.5;" x1="335.56" x2="397.56" y1="382.6211" y2="382.6211"/></g><!--class SleepGoalList--><g id="elem_SleepGoalList"><rect codeLine="18" fill="#F1F1F1" height="44.6211" id="SleepGoalList" rx="2.5" ry="2.5" style="stroke:#181818;stroke-width:0.5;" width="94" x="552.56" y="346"/><text fill="#000000" font-family="sans-serif" font-size="14" lengthAdjust="spacing" textLength="88" x="555.56" y="366.1074">SleepGoalList</text><line style="stroke:#181818;stroke-width:0.5;" x1="553.56" x2="645.56" y1="374.6211" y2="374.6211"/><line style="stroke:#181818;stroke-width:0.5;" x1="553.56" x2="645.56" y1="382.6211" y2="382.6211"/></g><!--class Findable--><g id="elem_Findable"><rect codeLine="21" fill="#F1F1F1" height="63.2422" id="Findable" rx="2.5" ry="2.5" style="stroke:#181818;stroke-width:0.5;" width="230" x="86.56" y="195"/><text fill="#000000" font-family="sans-serif" font-size="14" font-style="italic" lengthAdjust="spacing" textLength="55" x="174.06" y="215.1074">Findable</text><line style="stroke:#181818;stroke-width:0.5;" x1="87.56" x2="315.56" y1="223.6211" y2="223.6211"/><line style="stroke:#181818;stroke-width:0.5;" x1="87.56" x2="315.56" y1="231.6211" y2="231.6211"/><text fill="#000000" font-family="sans-serif" font-size="14" lengthAdjust="spacing" textLength="218" x="92.56" y="250.7285">ArrayList&lt;T&gt; find(date: LocalDate)</text></g><!--class Data--><g id="elem_Data"><rect codeLine="24" fill="#F1F1F1" height="100.4844" id="Data" rx="2.5" ry="2.5" style="stroke:#181818;stroke-width:0.5;" width="129" x="411.06" y="7"/><text fill="#000000" font-family="sans-serif" font-size="14" lengthAdjust="spacing" textLength="30" x="460.56" y="27.1074">Data</text><line style="stroke:#181818;stroke-width:0.5;" x1="412.06" x2="539.06" y1="35.6211" y2="35.6211"/><line style="stroke:#181818;stroke-width:0.5;" x1="412.06" x2="539.06" y1="43.6211" y2="43.6211"/><text fill="#000000" font-family="sans-serif" font-size="14" lengthAdjust="spacing" textLength="117" x="417.06" y="62.7285">Data getInstance()</text><text fill="#000000" font-family="sans-serif" font-size="14" lengthAdjust="spacing" textLength="67" x="417.06" y="81.3496">void load()</text><text fill="#000000" font-family="sans-serif" font-size="14" lengthAdjust="spacing" textLength="70" x="417.06" y="99.9707">void save()</text></g><!--reverse link Findable to ActivityList--><g id="link_Findable_ActivityList"><path codeLine="30" d="M180.3468,274.6361 C168.3968,301.2061 158.81,322.5 148.25,345.96 " fill="none" id="Findable-backto-ActivityList" style="stroke:#181818;stroke-width:1.0;"/><polygon fill="none" points="187.73,258.22,174.8747,272.175,185.8188,277.0972,187.73,258.22" style="stroke:#181818;stroke-width:1.0;"/></g><!--reverse link Findable to DietList--><g id="link_Findable_DietList"><path codeLine="31" d="M213.6041,275.683 C220.2441,302.253 225.31,322.5 231.17,345.96 " fill="none" id="Findable-backto-DietList" style="stroke:#181818;stroke-width:1.0;"/><polygon fill="none" points="209.24,258.22,207.7831,277.1376,219.4251,274.2283,209.24,258.22" style="stroke:#181818;stroke-width:1.0;"/></g><!--reverse link Findable to SleepList--><g id="link_Findable_SleepList"><path codeLine="32" d="M251.4925,269.8688 C282.7925,296.4388 313.52,322.5 341.17,345.96 " fill="none" id="Findable-backto-SleepList" style="stroke:#181818;stroke-width:1.0;"/><polygon fill="none" points="237.77,258.22,247.6096,274.4429,255.3754,265.2946,237.77,258.22" style="stroke:#181818;stroke-width:1.0;"/></g><!--reverse link StorableList to ActivityList--><g id="link_StorableList_ActivityList"><path codeLine="34" d="M416.989,251.8317 C347.849,280.5517 234.28,327.74 174.69,352.49 " fill="none" id="StorableList-backto-ActivityList" style="stroke:#181818;stroke-width:1.0;"/><polygon fill="#181818" points="422.53,249.53,412.6841,249.2885,417.9125,251.448,415.753,256.6765,422.53,249.53" style="stroke:#181818;stroke-width:1.0;"/></g><!--reverse link StorableList to DietList--><g id="link_StorableList_DietList"><path codeLine="35" d="M417.3329,261.6027 C367.9629,290.5227 301.58,329.41 263.22,351.88 " fill="none" id="StorableList-backto-DietList" style="stroke:#181818;stroke-width:1.0;"/><polygon fill="#181818" points="422.51,258.57,412.7225,259.6676,418.1957,261.0972,416.7661,266.5704,422.51,258.57" style="stroke:#181818;stroke-width:1.0;"/></g><!--reverse link StorableList to SleepList--><g id="link_StorableList_SleepList"><path codeLine="36" d="M426.2742,290.7944 C409.8242,311.9244 395.95,329.75 383.49,345.75 " fill="none" id="StorableList-backto-SleepList" style="stroke:#181818;stroke-width:1.0;"/><polygon fill="#181818" points="429.96,286.06,421.275,290.7044,426.8885,290.0054,427.5876,295.6188,429.96,286.06" style="stroke:#181818;stroke-width:1.0;"/></g><!--reverse link StorableList to ActivityGoalLIst--><g id="link_StorableList_ActivityGoalLIst"><path codeLine="37" d="M534.0789,259.3803 C582.8889,285.9703 648.8,321.87 692.81,345.85 " fill="none" id="StorableList-backto-ActivityGoalLIst" style="stroke:#181818;stroke-width:1.0;"/><polygon fill="#181818" points="528.81,256.51,534.7998,264.3281,533.2007,258.9019,538.6269,257.3029,528.81,256.51" style="stroke:#181818;stroke-width:1.0;"/></g><!--reverse link StorableList to DietGoalList--><g id="link_StorableList_DietGoalList"><path codeLine="38" d="M475.56,292.06 C475.56,313.19 475.56,329.75 475.56,345.75 " fill="none" id="StorableList-backto-DietGoalList" style="stroke:#181818;stroke-width:1.0;"/><polygon fill="#181818" points="475.56,286.06,471.56,295.06,475.56,291.06,479.56,295.06,475.56,286.06" style="stroke:#181818;stroke-width:1.0;"/></g><!--reverse link StorableList to SleepGoalList--><g id="link_StorableList_SleepGoalList"><path codeLine="39" d="M531.4076,290.5521 C550.1176,311.6821 566.12,329.75 580.3,345.75 " fill="none" id="StorableList-backto-SleepGoalList" style="stroke:#181818;stroke-width:1.0;"/><polygon fill="#181818" points="527.43,286.06,530.4017,295.4498,530.7447,289.8034,536.3911,290.1464,527.43,286.06" style="stroke:#181818;stroke-width:1.0;"/></g><!--link Data to ActivityList--><g id="link_Data_ActivityList"><path codeLine="41" d="M410.77,64.52 C300.56,77.11 84.05,108.77 38.56,167 C6,208.68 15.86,238.23 38.56,286 C51.72,313.72 79.44,335.11 102.36,349.01 " fill="none" id="Data-ActivityList" style="stroke:#181818;stroke-width:1.0;"/></g><!--link Data to DietList--><g id="link_Data_DietList"><path codeLine="42" d="M411.03,65.77 C307.11,79.77 110.09,112.89 68.56,167 C36.36,208.96 40.48,241.18 68.56,286 C69.07,286.82 162.82,332.02 210.03,354.74 " fill="none" id="Data-DietList" style="stroke:#181818;stroke-width:1.0;"/></g><!--link Data to SleepList--><g id="link_Data_SleepList"><path codeLine="43" d="M438.4,107.12 C426.32,125.14 413.89,146.23 405.56,167 C380.67,229.04 371.29,308.42 368.07,345.97 " fill="none" id="Data-SleepList" style="stroke:#181818;stroke-width:1.0;"/></g><!--link Data to ActivityGoalLIst--><g id="link_Data_ActivityGoalLIst"><path codeLine="44" d="M540.39,99.95 C566.03,118.52 594.56,141.85 616.56,167 C666.86,224.51 706.39,307.1 723.43,345.86 " fill="none" id="Data-ActivityGoalLIst" style="stroke:#181818;stroke-width:1.0;"/></g><!--link Data to DietGoalList--><g id="link_Data_DietGoalList"><path codeLine="45" d="M516.11,107.06 C528.37,124.84 540.26,145.78 546.56,167 C561.61,217.7 565.11,236.47 546.56,286 C537.67,309.72 518.41,331.09 502.19,345.99 " fill="none" id="Data-DietGoalList" style="stroke:#181818;stroke-width:1.0;"/></g><!--link Data to SleepGoalList--><g id="link_Data_SleepGoalList"><path codeLine="46" d="M535.09,107.26 C551.91,124.38 568.39,144.88 578.56,167 C606.18,227.11 604.46,307.75 601.67,345.84 " fill="none" id="Data-SleepGoalList" style="stroke:#181818;stroke-width:1.0;"/></g><!--SRC=[TL7BReCm4BpxAtmh72XtX2f5Ybf5uaP-O6Csn9AnaRr1gbB-lJoAUHMVx9dTcTdrsuEeTaaSrmeqFIlrBamL2mNEHOM4qaB57h90BgGL2XbZ0yTpCXPk2ZFfwCLuTneZ2wuC544ulnqq-FT-mSsH1K4jhy4w35oIavMwtD5FFHPGSWqPQoVBao3PIFeUBDiD-6L0PPS5SPP8gyeU6AgMOAuGwptYwtfxgGdj7GJoJwcBVkXnu9ErC8H9hn_ytb510OG9pum0TUwk8VFUG30szJTU8bsq8z02byiwM5wtWCcOfpzHj5h4Xfgcti1-JCQM7yVJhTgEzO8xPjOyb9m-vN_PQSa7qfvcmywYRLIF-eWUcQFjMdsaLRltMalC4Rhp2m00]--></g></svg>