<?xml version="1.0" encoding="us-ascii" standalone="no"?><svg xmlns="http://www.w3.org/2000/svg" xmlns:xlink="http://www.w3.org/1999/xlink" contentStyleType="text/css" height="837px" preserveAspectRatio="none" style="width:1343px;height:837px;background:#FFFFFF;" version="1.1" viewBox="0 0 1343 837" width="1343px" zoomAndPan="magnify"><defs/><g><rect fill="#FFFFFF" height="772.7715" style="stroke:#181818;stroke-width:1.0;" width="10" x="39" y="48.6211"/><rect fill="#FFFFFF" height="502.7344" style="stroke:#181818;stroke-width:1.0;" width="10" x="339" y="71.9121"/><rect fill="#FFFFFF" height="350.2402" style="stroke:#181818;stroke-width:1.0;" width="10" x="344" y="111.2031"/><rect fill="#FFFFFF" height="33.6211" style="stroke:#181818;stroke-width:1.0;" width="10" x="593" y="284.9883"/><rect fill="#FFFFFF" height="33.6211" style="stroke:#181818;stroke-width:1.0;" width="10" x="731" y="376.5313"/><rect fill="#FFFFFF" height="33.6211" style="stroke:#181818;stroke-width:1.0;" width="10" x="888" y="509.7344"/><rect fill="#FFFFFF" height="206.4551" style="stroke:#181818;stroke-width:1.0;" width="10" x="888" y="605.9375"/><rect fill="#FFFFFF" height="33.6211" style="stroke:#181818;stroke-width:1.0;" width="10" x="1040" y="157.4941"/><rect fill="#FFFFFF" height="31.291" style="stroke:#181818;stroke-width:1.0;" width="10" x="1151" y="637.2285"/><rect fill="#FFFFFF" height="30" style="stroke:#181818;stroke-width:1.0;" width="10" x="1260.5" y="726.1016"/><rect fill="none" height="219.0371" style="stroke:#000000;stroke-width:1.5;" width="530" x="294" y="206.1152"/><rect fill="none" height="185.7461" style="stroke:#000000;stroke-width:1.5;" width="510" x="304" y="232.4063"/><rect fill="none" height="80.582" style="stroke:#000000;stroke-width:1.5;" width="533" x="804" y="683.5195"/><line style="stroke:#181818;stroke-width:0.5;stroke-dasharray:5.0,5.0;" x1="44" x2="44" y1="38.6211" y2="830.3926"/><line style="stroke:#181818;stroke-width:0.5;stroke-dasharray:5.0,5.0;" x1="344" x2="344" y1="38.6211" y2="830.3926"/><line style="stroke:#181818;stroke-width:0.5;stroke-dasharray:5.0,5.0;" x1="598" x2="598" y1="283.5078" y2="830.3926"/><line style="stroke:#181818;stroke-width:0.5;stroke-dasharray:5.0,5.0;" x1="736" x2="736" y1="375.0508" y2="830.3926"/><line style="stroke:#181818;stroke-width:0.5;stroke-dasharray:5.0,5.0;" x1="893" x2="893" y1="508.2539" y2="830.3926"/><line style="stroke:#181818;stroke-width:0.5;stroke-dasharray:5.0,5.0;" x1="1045" x2="1045" y1="156.0137" y2="830.3926"/><line style="stroke:#181818;stroke-width:0.5;stroke-dasharray:5.0,5.0;" x1="1156" x2="1156" y1="38.6211" y2="830.3926"/><line style="stroke:#181818;stroke-width:0.5;stroke-dasharray:5.0,5.0;" x1="1265" x2="1265" y1="38.6211" y2="830.3926"/><rect fill="#ADD8E6" height="32.6211" rx="2.5" ry="2.5" style="stroke:#181818;stroke-width:0.5;" width="78" x="5" y="5"/><text fill="#000000" font-family="sans-serif" font-size="14" lengthAdjust="spacing" textLength="64" x="12" y="27.1074">:AthletiCLI</text><rect fill="#90EE90" height="32.6211" rx="2.5" ry="2.5" style="stroke:#181818;stroke-width:0.5;" width="60" x="314" y="5"/><text fill="#000000" font-family="sans-serif" font-size="14" lengthAdjust="spacing" textLength="46" x="321" y="27.1074">:Parser</text><rect fill="#E2E2F0" height="32.6211" rx="2.5" ry="2.5" style="stroke:#181818;stroke-width:0.5;" width="76" x="1118" y="5"/><text fill="#000000" font-family="sans-serif" font-size="14" lengthAdjust="spacing" textLength="62" x="1125" y="27.1074">data:Data</text><rect fill="#FFFF00" height="32.6211" rx="2.5" ry="2.5" style="stroke:#181818;stroke-width:0.5;" width="123" x="1204" y="5"/><text fill="#000000" font-family="sans-serif" font-size="14" lengthAdjust="spacing" textLength="109" x="1211" y="27.1074">data:DietGoalList</text><rect fill="#FFFFFF" height="772.7715" style="stroke:#181818;stroke-width:1.0;" width="10" x="39" y="48.6211"/><rect fill="#FFFFFF" height="502.7344" style="stroke:#181818;stroke-width:1.0;" width="10" x="339" y="71.9121"/><rect fill="#FFFFFF" height="350.2402" style="stroke:#181818;stroke-width:1.0;" width="10" x="344" y="111.2031"/><rect fill="#FFFFFF" height="33.6211" style="stroke:#181818;stroke-width:1.0;" width="10" x="593" y="284.9883"/><rect fill="#FFFFFF" height="33.6211" style="stroke:#181818;stroke-width:1.0;" width="10" x="731" y="376.5313"/><rect fill="#FFFFFF" height="33.6211" style="stroke:#181818;stroke-width:1.0;" width="10" x="888" y="509.7344"/><rect fill="#FFFFFF" height="206.4551" style="stroke:#181818;stroke-width:1.0;" width="10" x="888" y="605.9375"/><rect fill="#FFFFFF" height="33.6211" style="stroke:#181818;stroke-width:1.0;" width="10" x="1040" y="157.4941"/><rect fill="#FFFFFF" height="31.291" style="stroke:#181818;stroke-width:1.0;" width="10" x="1151" y="637.2285"/><rect fill="#FFFFFF" height="30" style="stroke:#181818;stroke-width:1.0;" width="10" x="1260.5" y="726.1016"/><polygon fill="#181818" points="327,67.9121,337,71.9121,327,75.9121" style="stroke:#181818;stroke-width:1.0;"/><line style="stroke:#181818;stroke-width:1.0;" x1="49" x2="333" y1="71.9121" y2="71.9121"/><text fill="#000000" font-family="sans-serif" font-size="13" lengthAdjust="spacing" textLength="271" x="58.5" y="66.6494">ParseCommand("set-diet-goal WEEKLY fat/1")</text><line style="stroke:#181818;stroke-width:1.0;" x1="349" x2="396" y1="98.2031" y2="98.2031"/><line style="stroke:#181818;stroke-width:1.0;" x1="396" x2="396" y1="98.2031" y2="111.2031"/><line style="stroke:#181818;stroke-width:1.0;" x1="355" x2="396" y1="111.2031" y2="111.2031"/><polygon fill="#181818" points="365,107.2031,355,111.2031,365,115.2031" style="stroke:#181818;stroke-width:1.0;"/><text fill="#000000" font-family="sans-serif" font-size="13" lengthAdjust="spacing" textLength="230" x="361" y="92.9404">ParseDietGoalSetEdit("WEEKLY fat/1")</text><polygon fill="#181818" points="970,143.4941,980,147.4941,970,151.4941" style="stroke:#181818;stroke-width:1.0;"/><line style="stroke:#181818;stroke-width:1.0;" x1="354" x2="976" y1="147.4941" y2="147.4941"/><text fill="#000000" font-family="sans-serif" font-size="13" lengthAdjust="spacing" textLength="77" x="629.5" y="142.2314">dietGoalList()</text><rect fill="#FFFF00" height="32.6211" rx="2.5" ry="2.5" style="stroke:#181818;stroke-width:0.5;" width="126" x="982" y="124.2031"/><text fill="#000000" font-family="sans-serif" font-size="14" lengthAdjust="spacing" textLength="112" x="989" y="146.3105">temp:DietGoalList</text><polygon fill="#181818" points="365,187.1152,355,191.1152,365,195.1152" style="stroke:#181818;stroke-width:1.0;"/><line style="stroke:#181818;stroke-width:1.0;stroke-dasharray:2.0,2.0;" x1="359" x2="1044" y1="191.1152" y2="191.1152"/><text fill="#000000" font-family="sans-serif" font-size="13" lengthAdjust="spacing" textLength="104" x="647.5" y="185.8525">temp:DietGoalList</text><path d="M294,206.1152 L367,206.1152 L367,215.4063 L357,225.4063 L294,225.4063 L294,206.1152 " fill="#EEEEEE" style="stroke:#000000;stroke-width:1.5;"/><rect fill="none" height="219.0371" style="stroke:#000000;stroke-width:1.5;" width="530" x="294" y="206.1152"/><text fill="#000000" font-family="sans-serif" font-size="13" font-weight="bold" lengthAdjust="spacing" textLength="28" x="309" y="221.1436">loop</text><text fill="#000000" font-family="sans-serif" font-size="11" font-weight="bold" lengthAdjust="spacing" textLength="178" x="382" y="219.9854">[number of valid new diet goals]</text><path d="M304,232.4063 L365,232.4063 L365,241.6973 L355,251.6973 L304,251.6973 L304,232.4063 " fill="#EEEEEE" style="stroke:#000000;stroke-width:1.5;"/><rect fill="none" height="185.7461" style="stroke:#000000;stroke-width:1.5;" width="510" x="304" y="232.4063"/><text fill="#000000" font-family="sans-serif" font-size="13" font-weight="bold" lengthAdjust="spacing" textLength="16" x="319" y="247.4346">alt</text><text fill="#000000" font-family="sans-serif" font-size="11" font-weight="bold" lengthAdjust="spacing" textLength="87" x="380" y="246.2764">[is healthy goal]</text><polygon fill="#181818" points="526,270.9883,536,274.9883,526,278.9883" style="stroke:#181818;stroke-width:1.0;"/><line style="stroke:#181818;stroke-width:1.0;" x1="354" x2="532" y1="274.9883" y2="274.9883"/><text fill="#000000" font-family="sans-serif" font-size="13" lengthAdjust="spacing" textLength="102" x="395" y="269.7256">HealthyDietGoal()</text><rect fill="#FFFFE0" height="32.6211" rx="2.5" ry="2.5" style="stroke:#181818;stroke-width:0.5;" width="120" x="538" y="251.6973"/><text fill="#000000" font-family="sans-serif" font-size="14" lengthAdjust="spacing" textLength="106" x="545" y="273.8047">:HealthyDietGoal</text><polygon fill="#181818" points="365,314.6094,355,318.6094,365,322.6094" style="stroke:#181818;stroke-width:1.0;"/><line style="stroke:#181818;stroke-width:1.0;stroke-dasharray:2.0,2.0;" x1="359" x2="597" y1="318.6094" y2="318.6094"/><text fill="#000000" font-family="sans-serif" font-size="13" lengthAdjust="spacing" textLength="98" x="427" y="313.3467">:HealthyDietGoal</text><line style="stroke:#000000;stroke-width:1.0;stroke-dasharray:2.0,2.0;" x1="304" x2="814" y1="327.6094" y2="327.6094"/><text fill="#000000" font-family="sans-serif" font-size="11" font-weight="bold" lengthAdjust="spacing" textLength="101" x="309" y="339.4795">[is unhealthy goal]</text><polygon fill="#181818" points="656,362.5313,666,366.5313,656,370.5313" style="stroke:#181818;stroke-width:1.0;"/><line style="stroke:#181818;stroke-width:1.0;" x1="354" x2="662" y1="366.5313" y2="366.5313"/><text fill="#000000" font-family="sans-serif" font-size="13" lengthAdjust="spacing" textLength="116" x="453" y="361.2686">UnhealthyDietGoal()</text><rect fill="#FFFFE0" height="32.6211" rx="2.5" ry="2.5" style="stroke:#181818;stroke-width:0.5;" width="136" x="668" y="343.2402"/><text fill="#000000" font-family="sans-serif" font-size="14" lengthAdjust="spacing" textLength="122" x="675" y="365.3477">:UnhealthyDietGoal</text><polygon fill="#181818" points="365,406.1523,355,410.1523,365,414.1523" style="stroke:#181818;stroke-width:1.0;"/><line style="stroke:#181818;stroke-width:1.0;stroke-dasharray:2.0,2.0;" x1="359" x2="735" y1="410.1523" y2="410.1523"/><text fill="#000000" font-family="sans-serif" font-size="13" lengthAdjust="spacing" textLength="54" x="518" y="404.8896">:DietGoal</text><line style="stroke:#181818;stroke-width:1.0;stroke-dasharray:2.0,2.0;" x1="354" x2="396" y1="460.4434" y2="460.4434"/><line style="stroke:#181818;stroke-width:1.0;stroke-dasharray:2.0,2.0;" x1="396" x2="396" y1="460.4434" y2="473.4434"/><line style="stroke:#181818;stroke-width:1.0;stroke-dasharray:2.0,2.0;" x1="349" x2="396" y1="473.4434" y2="473.4434"/><polygon fill="#181818" points="359,469.4434,349,473.4434,359,477.4434" style="stroke:#181818;stroke-width:1.0;"/><text fill="#000000" font-family="sans-serif" font-size="13" lengthAdjust="spacing" textLength="104" x="361" y="455.1807">temp:DietGoalList</text><polygon fill="#181818" points="802,495.7344,812,499.7344,802,503.7344" style="stroke:#181818;stroke-width:1.0;"/><line style="stroke:#181818;stroke-width:1.0;" x1="349" x2="808" y1="499.7344" y2="499.7344"/><text fill="#000000" font-family="sans-serif" font-size="13" lengthAdjust="spacing" textLength="137" x="513" y="494.4717">SetDietGoalCommand()</text><rect fill="#FFB6C1" height="32.6211" rx="2.5" ry="2.5" style="stroke:#181818;stroke-width:0.5;" width="158" x="814" y="476.4434"/><text fill="#000000" font-family="sans-serif" font-size="14" lengthAdjust="spacing" textLength="144" x="821" y="498.5508">:SetDietGoalCommand</text><polygon fill="#181818" points="360,539.3555,350,543.3555,360,547.3555" style="stroke:#181818;stroke-width:1.0;"/><line style="stroke:#181818;stroke-width:1.0;stroke-dasharray:2.0,2.0;" x1="354" x2="892" y1="543.3555" y2="543.3555"/><text fill="#000000" font-family="sans-serif" font-size="13" lengthAdjust="spacing" textLength="133" x="554.5" y="538.0928">:SetDietGoalCommand</text><polygon fill="#181818" points="60,570.6465,50,574.6465,60,578.6465" style="stroke:#181818;stroke-width:1.0;"/><line style="stroke:#181818;stroke-width:1.0;stroke-dasharray:2.0,2.0;" x1="54" x2="343" y1="574.6465" y2="574.6465"/><text fill="#000000" font-family="sans-serif" font-size="13" lengthAdjust="spacing" textLength="133" x="130" y="569.3838">:SetDietGoalCommand</text><polygon fill="#181818" points="876,601.9375,886,605.9375,876,609.9375" style="stroke:#181818;stroke-width:1.0;"/><line style="stroke:#181818;stroke-width:1.0;" x1="49" x2="882" y1="605.9375" y2="605.9375"/><text fill="#000000" font-family="sans-serif" font-size="13" lengthAdjust="spacing" textLength="54" x="441.5" y="600.6748">execute()</text><polygon fill="#181818" points="1139,633.2285,1149,637.2285,1139,641.2285" style="stroke:#181818;stroke-width:1.0;"/><line style="stroke:#181818;stroke-width:1.0;" x1="898" x2="1145" y1="637.2285" y2="637.2285"/><text fill="#000000" font-family="sans-serif" font-size="13" lengthAdjust="spacing" textLength="83" x="983" y="631.9658">getDietGoals()</text><polygon fill="#181818" points="909,664.5195,899,668.5195,909,672.5195" style="stroke:#181818;stroke-width:1.0;"/><line style="stroke:#181818;stroke-width:1.0;stroke-dasharray:2.0,2.0;" x1="903" x2="1155" y1="668.5195" y2="668.5195"/><text fill="#000000" font-family="sans-serif" font-size="13" lengthAdjust="spacing" textLength="100" x="977" y="663.2568">data:DietGoalList</text><path d="M804,683.5195 L877,683.5195 L877,692.8105 L867,702.8105 L804,702.8105 L804,683.5195 " fill="#EEEEEE" style="stroke:#000000;stroke-width:1.5;"/><rect fill="none" height="80.582" style="stroke:#000000;stroke-width:1.5;" width="533" x="804" y="683.5195"/><text fill="#000000" font-family="sans-serif" font-size="13" font-weight="bold" lengthAdjust="spacing" textLength="28" x="819" y="698.5479">loop</text><text fill="#000000" font-family="sans-serif" font-size="11" font-weight="bold" lengthAdjust="spacing" textLength="277" x="892" y="697.3896">[number of valid new healthy and unhealthy goals]</text><polygon fill="#181818" points="1248.5,722.1016,1258.5,726.1016,1248.5,730.1016" style="stroke:#181818;stroke-width:1.0;"/><line style="stroke:#181818;stroke-width:1.0;" x1="898" x2="1254.5" y1="726.1016" y2="726.1016"/><text fill="#000000" font-family="sans-serif" font-size="13" lengthAdjust="spacing" textLength="29" x="1064.75" y="720.8389">add()</text><line style="stroke:#A80036;stroke-width:2.0;" x1="1036" x2="1054" y1="771.1016" y2="789.1016"/><line style="stroke:#A80036;stroke-width:2.0;" x1="1036" x2="1054" y1="789.1016" y2="771.1016"/><polygon fill="#181818" points="60,808.3926,50,812.3926,60,816.3926" style="stroke:#181818;stroke-width:1.0;"/><line style="stroke:#181818;stroke-width:1.0;stroke-dasharray:2.0,2.0;" x1="54" x2="892" y1="812.3926" y2="812.3926"/><text fill="#000000" font-family="sans-serif" font-size="13" lengthAdjust="spacing" textLength="98" x="422" y="807.1299">messages:String</text><line style="stroke:#A80036;stroke-width:2.0;" x1="884" x2="902" y1="803.3926" y2="821.3926"/><line style="stroke:#A80036;stroke-width:2.0;" x1="884" x2="902" y1="821.3926" y2="803.3926"/><!--SRC=[bLLDRzmW4BtpAz3ca8rMxgfN7o95oQg9kfKghQggHs9FR1ICNJDkkl- -0yPVu4rK7sm3xmrllk2wH6nCkjytIcZiAlKfgwkzWTyTw0oIN8gY5HKphr8tWlxu2SyAkC5MPXO-N_6aRs2CAE1EoK9Ne95dz8AM4Gfb9XlQXs_IEomLeBm_FcsuC7mQyYiYblYiEWWetqLhe7Nm_jT3YnP01zX740hByuC4_58BvKZbSiwppw1K_HRGV-XonK2d_yF42N20tTTL9NJkRCJJtaWZzUlI14BLf0FuA0qw0tPsFiclrhRF1OhqWLwEOqTsi8O9xJlicdt6haM7jUwgPyhcbB3TRZRWoQrFpcx7q_xN-xdT642gA7eLDdO_3uUlnr_yHU3-y-Q6-PIky0Sr5Bf3Bd6x2PXP2m8X2ipCOhZaREUpYUqDY-AQZ5AIXE1HDXZZzAYwRdWV4rw_y3z2oPnhU7FckNNKE9nzg7Qu7ElGBOvhzl6E14MsW4m-1IZdKb3rvDMS6nPlu63OCoCNb06hUop_fNAlEceE5ckEC4vrr6mptN7BXQfZkJfdmtUiWOzowPs8ktDMHV6YanzFa_wLDW-5lxCN8QUMkeXUTjq5TV0NiWxXWgJRyMXmu6A2668CQqvGJ7V2eaFaWxOOIiXklooela_UKHasiCXjf2qhEhEIXB6f27AW-we-noV4XIm5iQ_w2ysa9xhrT37PMyd9Fm00]--></g></svg>