<?xml version="1.0" encoding="us-ascii" standalone="no"?><svg xmlns="http://www.w3.org/2000/svg" xmlns:xlink="http://www.w3.org/1999/xlink" contentStyleType="text/css" height="712px" preserveAspectRatio="none" style="width:1187px;height:712px;background:#FFFFFF;" version="1.1" viewBox="0 0 1187 712" width="1187px" zoomAndPan="magnify"><defs/><g><rect fill="#FFFFFF" height="647.9375" style="stroke:#181818;stroke-width:1.0;" width="10" x="39" y="48.6211"/><rect fill="#FFFFFF" height="377.9004" style="stroke:#181818;stroke-width:1.0;" width="10" x="346" y="71.9121"/><rect fill="#FFFFFF" height="225.4063" style="stroke:#181818;stroke-width:1.0;" width="10" x="351" y="111.2031"/><rect fill="#FFFFFF" height="33.6211" style="stroke:#181818;stroke-width:1.0;" width="10" x="607" y="258.6973"/><rect fill="#FFFFFF" height="33.6211" style="stroke:#181818;stroke-width:1.0;" width="10" x="732.5" y="384.9004"/><rect fill="#FFFFFF" height="206.4551" style="stroke:#181818;stroke-width:1.0;" width="10" x="732.5" y="481.1035"/><rect fill="#FFFFFF" height="33.6211" style="stroke:#181818;stroke-width:1.0;" width="10" x="884.5" y="157.4941"/><rect fill="#FFFFFF" height="31.291" style="stroke:#181818;stroke-width:1.0;" width="10" x="995.5" y="512.3945"/><rect fill="#FFFFFF" height="30" style="stroke:#181818;stroke-width:1.0;" width="10" x="1105" y="601.2676"/><rect fill="none" height="94.2031" style="stroke:#000000;stroke-width:1.5;" width="347.5" x="311" y="206.1152"/><rect fill="none" height="80.582" style="stroke:#000000;stroke-width:1.5;" width="533" x="648.5" y="558.6855"/><line style="stroke:#181818;stroke-width:0.5;stroke-dasharray:5.0,5.0;" x1="44" x2="44" y1="38.6211" y2="705.5586"/><line style="stroke:#181818;stroke-width:0.5;stroke-dasharray:5.0,5.0;" x1="351" x2="351" y1="38.6211" y2="705.5586"/><line style="stroke:#181818;stroke-width:0.5;stroke-dasharray:5.0,5.0;" x1="611.5" x2="611.5" y1="257.2168" y2="705.5586"/><line style="stroke:#181818;stroke-width:0.5;stroke-dasharray:5.0,5.0;" x1="737.5" x2="737.5" y1="383.4199" y2="705.5586"/><line style="stroke:#181818;stroke-width:0.5;stroke-dasharray:5.0,5.0;" x1="889.5" x2="889.5" y1="156.0137" y2="705.5586"/><line style="stroke:#181818;stroke-width:0.5;stroke-dasharray:5.0,5.0;" x1="1000.5" x2="1000.5" y1="38.6211" y2="705.5586"/><line style="stroke:#181818;stroke-width:0.5;stroke-dasharray:5.0,5.0;" x1="1109.5" x2="1109.5" y1="38.6211" y2="705.5586"/><rect fill="#ADD8E6" height="32.6211" rx="2.5" ry="2.5" style="stroke:#181818;stroke-width:0.5;" width="78" x="5" y="5"/><text fill="#000000" font-family="sans-serif" font-size="14" lengthAdjust="spacing" textLength="64" x="12" y="27.1074">:AthletiCLI</text><rect fill="#90EE90" height="32.6211" rx="2.5" ry="2.5" style="stroke:#181818;stroke-width:0.5;" width="60" x="321" y="5"/><text fill="#000000" font-family="sans-serif" font-size="14" lengthAdjust="spacing" textLength="46" x="328" y="27.1074">:Parser</text><rect fill="#E2E2F0" height="32.6211" rx="2.5" ry="2.5" style="stroke:#181818;stroke-width:0.5;" width="76" x="962.5" y="5"/><text fill="#000000" font-family="sans-serif" font-size="14" lengthAdjust="spacing" textLength="62" x="969.5" y="27.1074">data:Data</text><rect fill="#FFFF00" height="32.6211" rx="2.5" ry="2.5" style="stroke:#181818;stroke-width:0.5;" width="123" x="1048.5" y="5"/><text fill="#000000" font-family="sans-serif" font-size="14" lengthAdjust="spacing" textLength="109" x="1055.5" y="27.1074">data:DietGoalList</text><rect fill="#FFFFFF" height="647.9375" style="stroke:#181818;stroke-width:1.0;" width="10" x="39" y="48.6211"/><rect fill="#FFFFFF" height="377.9004" style="stroke:#181818;stroke-width:1.0;" width="10" x="346" y="71.9121"/><rect fill="#FFFFFF" height="225.4063" style="stroke:#181818;stroke-width:1.0;" width="10" x="351" y="111.2031"/><rect fill="#FFFFFF" height="33.6211" style="stroke:#181818;stroke-width:1.0;" width="10" x="607" y="258.6973"/><rect fill="#FFFFFF" height="33.6211" style="stroke:#181818;stroke-width:1.0;" width="10" x="732.5" y="384.9004"/><rect fill="#FFFFFF" height="206.4551" style="stroke:#181818;stroke-width:1.0;" width="10" x="732.5" y="481.1035"/><rect fill="#FFFFFF" height="33.6211" style="stroke:#181818;stroke-width:1.0;" width="10" x="884.5" y="157.4941"/><rect fill="#FFFFFF" height="31.291" style="stroke:#181818;stroke-width:1.0;" width="10" x="995.5" y="512.3945"/><rect fill="#FFFFFF" height="30" style="stroke:#181818;stroke-width:1.0;" width="10" x="1105" y="601.2676"/><polygon fill="#181818" points="334,67.9121,344,71.9121,334,75.9121" style="stroke:#181818;stroke-width:1.0;"/><line style="stroke:#181818;stroke-width:1.0;" x1="49" x2="340" y1="71.9121" y2="71.9121"/><text fill="#000000" font-family="sans-serif" font-size="13" lengthAdjust="spacing" textLength="278" x="58.5" y="66.6494">ParseCommand("set-diet-goal WEEKLY fats/1")</text><line style="stroke:#181818;stroke-width:1.0;" x1="356" x2="403" y1="98.2031" y2="98.2031"/><line style="stroke:#181818;stroke-width:1.0;" x1="403" x2="403" y1="98.2031" y2="111.2031"/><line style="stroke:#181818;stroke-width:1.0;" x1="362" x2="403" y1="111.2031" y2="111.2031"/><polygon fill="#181818" points="372,107.2031,362,111.2031,372,115.2031" style="stroke:#181818;stroke-width:1.0;"/><text fill="#000000" font-family="sans-serif" font-size="13" lengthAdjust="spacing" textLength="237" x="368" y="92.9404">ParseDietGoalSetEdit("WEEKLY fats/1")</text><polygon fill="#181818" points="814.5,143.4941,824.5,147.4941,814.5,151.4941" style="stroke:#181818;stroke-width:1.0;"/><line style="stroke:#181818;stroke-width:1.0;" x1="361" x2="820.5" y1="147.4941" y2="147.4941"/><text fill="#000000" font-family="sans-serif" font-size="13" lengthAdjust="spacing" textLength="77" x="555.25" y="142.2314">dietGoalList()</text><rect fill="#FFFF00" height="32.6211" rx="2.5" ry="2.5" style="stroke:#181818;stroke-width:0.5;" width="126" x="826.5" y="124.2031"/><text fill="#000000" font-family="sans-serif" font-size="14" lengthAdjust="spacing" textLength="112" x="833.5" y="146.3105">temp:DietGoalList</text><polygon fill="#181818" points="372,187.1152,362,191.1152,372,195.1152" style="stroke:#181818;stroke-width:1.0;"/><line style="stroke:#181818;stroke-width:1.0;stroke-dasharray:2.0,2.0;" x1="366" x2="888.5" y1="191.1152" y2="191.1152"/><text fill="#000000" font-family="sans-serif" font-size="13" lengthAdjust="spacing" textLength="104" x="573.25" y="185.8525">temp:DietGoalList</text><path d="M311,206.1152 L384,206.1152 L384,215.4063 L374,225.4063 L311,225.4063 L311,206.1152 " fill="#EEEEEE" style="stroke:#000000;stroke-width:1.5;"/><rect fill="none" height="94.2031" style="stroke:#000000;stroke-width:1.5;" width="347.5" x="311" y="206.1152"/><text fill="#000000" font-family="sans-serif" font-size="13" font-weight="bold" lengthAdjust="spacing" textLength="28" x="326" y="221.1436">loop</text><text fill="#000000" font-family="sans-serif" font-size="11" font-weight="bold" lengthAdjust="spacing" textLength="178" x="399" y="219.9854">[number of valid new diet goals]</text><polygon fill="#181818" points="563.5,244.6973,573.5,248.6973,563.5,252.6973" style="stroke:#181818;stroke-width:1.0;"/><line style="stroke:#181818;stroke-width:1.0;" x1="361" x2="569.5" y1="248.6973" y2="248.6973"/><text fill="#000000" font-family="sans-serif" font-size="13" lengthAdjust="spacing" textLength="58" x="439.25" y="243.4346">DietGoal()</text><rect fill="#FFFFE0" height="32.6211" rx="2.5" ry="2.5" style="stroke:#181818;stroke-width:0.5;" width="73" x="575.5" y="225.4063"/><text fill="#000000" font-family="sans-serif" font-size="14" lengthAdjust="spacing" textLength="59" x="582.5" y="247.5137">:DietGoal</text><polygon fill="#181818" points="372,288.3184,362,292.3184,372,296.3184" style="stroke:#181818;stroke-width:1.0;"/><line style="stroke:#181818;stroke-width:1.0;stroke-dasharray:2.0,2.0;" x1="366" x2="611" y1="292.3184" y2="292.3184"/><text fill="#000000" font-family="sans-serif" font-size="13" lengthAdjust="spacing" textLength="54" x="459.5" y="287.0557">:DietGoal</text><line style="stroke:#181818;stroke-width:1.0;stroke-dasharray:2.0,2.0;" x1="361" x2="403" y1="335.6094" y2="335.6094"/><line style="stroke:#181818;stroke-width:1.0;stroke-dasharray:2.0,2.0;" x1="403" x2="403" y1="335.6094" y2="348.6094"/><line style="stroke:#181818;stroke-width:1.0;stroke-dasharray:2.0,2.0;" x1="356" x2="403" y1="348.6094" y2="348.6094"/><polygon fill="#181818" points="366,344.6094,356,348.6094,366,352.6094" style="stroke:#181818;stroke-width:1.0;"/><text fill="#000000" font-family="sans-serif" font-size="13" lengthAdjust="spacing" textLength="104" x="368" y="330.3467">temp:DietGoalList</text><polygon fill="#181818" points="646.5,370.9004,656.5,374.9004,646.5,378.9004" style="stroke:#181818;stroke-width:1.0;"/><line style="stroke:#181818;stroke-width:1.0;" x1="356" x2="652.5" y1="374.9004" y2="374.9004"/><text fill="#000000" font-family="sans-serif" font-size="13" lengthAdjust="spacing" textLength="137" x="438.75" y="369.6377">SetDietGoalCommand()</text><rect fill="#FFB6C1" height="32.6211" rx="2.5" ry="2.5" style="stroke:#181818;stroke-width:0.5;" width="158" x="658.5" y="351.6094"/><text fill="#000000" font-family="sans-serif" font-size="14" lengthAdjust="spacing" textLength="144" x="665.5" y="373.7168">:SetDietGoalCommand</text><polygon fill="#181818" points="367,414.5215,357,418.5215,367,422.5215" style="stroke:#181818;stroke-width:1.0;"/><line style="stroke:#181818;stroke-width:1.0;stroke-dasharray:2.0,2.0;" x1="361" x2="736.5" y1="418.5215" y2="418.5215"/><text fill="#000000" font-family="sans-serif" font-size="13" lengthAdjust="spacing" textLength="133" x="480.25" y="413.2588">:SetDietGoalCommand</text><polygon fill="#181818" points="60,445.8125,50,449.8125,60,453.8125" style="stroke:#181818;stroke-width:1.0;"/><line style="stroke:#181818;stroke-width:1.0;stroke-dasharray:2.0,2.0;" x1="54" x2="350" y1="449.8125" y2="449.8125"/><text fill="#000000" font-family="sans-serif" font-size="13" lengthAdjust="spacing" textLength="133" x="133.5" y="444.5498">:SetDietGoalCommand</text><polygon fill="#181818" points="720.5,477.1035,730.5,481.1035,720.5,485.1035" style="stroke:#181818;stroke-width:1.0;"/><line style="stroke:#181818;stroke-width:1.0;" x1="49" x2="726.5" y1="481.1035" y2="481.1035"/><text fill="#000000" font-family="sans-serif" font-size="13" lengthAdjust="spacing" textLength="54" x="363.75" y="475.8408">execute()</text><polygon fill="#181818" points="983.5,508.3945,993.5,512.3945,983.5,516.3945" style="stroke:#181818;stroke-width:1.0;"/><line style="stroke:#181818;stroke-width:1.0;" x1="742.5" x2="989.5" y1="512.3945" y2="512.3945"/><text fill="#000000" font-family="sans-serif" font-size="13" lengthAdjust="spacing" textLength="83" x="827.5" y="507.1318">getDietGoals()</text><polygon fill="#181818" points="753.5,539.6855,743.5,543.6855,753.5,547.6855" style="stroke:#181818;stroke-width:1.0;"/><line style="stroke:#181818;stroke-width:1.0;stroke-dasharray:2.0,2.0;" x1="747.5" x2="999.5" y1="543.6855" y2="543.6855"/><text fill="#000000" font-family="sans-serif" font-size="13" lengthAdjust="spacing" textLength="100" x="821.5" y="538.4229">data:DietGoalList</text><path d="M648.5,558.6855 L721.5,558.6855 L721.5,567.9766 L711.5,577.9766 L648.5,577.9766 L648.5,558.6855 " fill="#EEEEEE" style="stroke:#000000;stroke-width:1.5;"/><rect fill="none" height="80.582" style="stroke:#000000;stroke-width:1.5;" width="533" x="648.5" y="558.6855"/><text fill="#000000" font-family="sans-serif" font-size="13" font-weight="bold" lengthAdjust="spacing" textLength="28" x="663.5" y="573.7139">loop</text><text fill="#000000" font-family="sans-serif" font-size="11" font-weight="bold" lengthAdjust="spacing" textLength="178" x="736.5" y="572.5557">[number of valid new diet goals]</text><polygon fill="#181818" points="1093,597.2676,1103,601.2676,1093,605.2676" style="stroke:#181818;stroke-width:1.0;"/><line style="stroke:#181818;stroke-width:1.0;" x1="742.5" x2="1099" y1="601.2676" y2="601.2676"/><text fill="#000000" font-family="sans-serif" font-size="13" lengthAdjust="spacing" textLength="29" x="909.25" y="596.0049">add()</text><line style="stroke:#A80036;stroke-width:2.0;" x1="880.5" x2="898.5" y1="646.2676" y2="664.2676"/><line style="stroke:#A80036;stroke-width:2.0;" x1="880.5" x2="898.5" y1="664.2676" y2="646.2676"/><polygon fill="#181818" points="60,683.5586,50,687.5586,60,691.5586" style="stroke:#181818;stroke-width:1.0;"/><line style="stroke:#181818;stroke-width:1.0;stroke-dasharray:2.0,2.0;" x1="54" x2="736.5" y1="687.5586" y2="687.5586"/><text fill="#000000" font-family="sans-serif" font-size="13" lengthAdjust="spacing" textLength="98" x="344.25" y="682.2959">messages:String</text><line style="stroke:#A80036;stroke-width:2.0;" x1="728.5" x2="746.5" y1="678.5586" y2="696.5586"/><line style="stroke:#A80036;stroke-width:2.0;" x1="728.5" x2="746.5" y1="696.5586" y2="678.5586"/><!--SRC=[bLHDRzmW4BtpAv1po4OhkkhLXqXHiggYRgLAUwXw96RYHU73CUEc- - -BCVu8U1FL1mk6zsOUZu7h4sBZojskKTnWfzMNokgTWzSEJ0LCI5wtN1Ft8at3_OWUyQo0EcnbrSENAv7q0vpZDTmfMHiD1cdbVz0IZq9PoSRNeKLvXoS5AEyFZmNbZivJUkM99tnI7IIKdxnrq0RuC8pGkWKm2VP10dwpN0MqY9E8FuDIzYqX7057phtLcXiHg7au9ccaUNcV0a4tKzs3T1WIzD5ba5wjbHSSUVdWVuDUF-WdQvWqVy2kvIVacdTeJQUVlFcplzljOaBPRVHokwNbC8pxt1GEaFNMiRhtxjT-__tmcpvpTBklnGs9Hx2IO9JZlTiBYPiYfLOjS8JCcaNAT2aa5ul0vePaph992sCUdfq78TH_ojg63gvG-qp_S2K5DV0MqjD-goxWeiYnQ8ZD0iTm43OMyQ9wrDHkYQ19J4214MJQyMVAevYy6nUUvOj1N1xsCbVQEXNxGIsFd5le8lfzbrrG1t-XwX0kIBgTha80rpF4USQu5WJbz20ikpJ_rmGVY4gxaulUs9wLNKd629dFN81_FUqvR_yBXv9OhOVdrPL7_mQRUiwtSWJ_0000]--></g></svg>