<?xml version="1.0" encoding="us-ascii" standalone="no"?><svg xmlns="http://www.w3.org/2000/svg" xmlns:xlink="http://www.w3.org/1999/xlink" contentStyleType="text/css" height="753.3px" preserveAspectRatio="none" style="width:1221px;height:753px;background:#FFFFFF;" version="1.1" viewBox="0 0 1221 753" width="1221.3px" zoomAndPan="magnify"><defs/><g><rect fill="#FFFFFF" height="695.4943" style="stroke:#181818;stroke-width:0.9;" width="9" x="35.1" y="43.759"/><rect fill="#FFFFFF" height="452.4609" style="stroke:#181818;stroke-width:0.9;" width="9" x="311.4" y="64.7209"/><rect fill="#FFFFFF" height="315.2162" style="stroke:#181818;stroke-width:0.9;" width="9" x="315.9" y="100.0828"/><rect fill="#FFFFFF" height="30.259" style="stroke:#181818;stroke-width:0.9;" width="9" x="546.3" y="256.4895"/><rect fill="#FFFFFF" height="30.259" style="stroke:#181818;stroke-width:0.9;" width="9" x="670.5" y="338.8781"/><rect fill="#FFFFFF" height="30.259" style="stroke:#181818;stroke-width:0.9;" width="9" x="811.8" y="458.7609"/><rect fill="#FFFFFF" height="185.8096" style="stroke:#181818;stroke-width:0.9;" width="9" x="811.8" y="545.3438"/><rect fill="#FFFFFF" height="30.259" style="stroke:#181818;stroke-width:0.9;" width="9" x="948.6" y="141.7447"/><rect fill="#FFFFFF" height="28.1619" style="stroke:#181818;stroke-width:0.9;" width="9" x="1048.5" y="573.5057"/><rect fill="#FFFFFF" height="27" style="stroke:#181818;stroke-width:0.9;" width="9" x="1147.05" y="653.4914"/><rect fill="none" height="197.1334" style="stroke:#000000;stroke-width:1.35;" width="483.3" x="270.9" y="185.5037"/><rect fill="none" height="167.1715" style="stroke:#000000;stroke-width:1.35;" width="465.3" x="279.9" y="209.1656"/><rect fill="none" height="72.5238" style="stroke:#000000;stroke-width:1.35;" width="479.7" x="736.2" y="615.1676"/><line style="stroke:#181818;stroke-width:0.45;stroke-dasharray:5.0,5.0;" x1="39.6" x2="39.6" y1="34.759" y2="747.3533"/><line style="stroke:#181818;stroke-width:0.45;stroke-dasharray:5.0,5.0;" x1="315.9" x2="315.9" y1="34.759" y2="747.3533"/><line style="stroke:#181818;stroke-width:0.45;stroke-dasharray:5.0,5.0;" x1="550.8" x2="550.8" y1="255.157" y2="747.3533"/><line style="stroke:#181818;stroke-width:0.45;stroke-dasharray:5.0,5.0;" x1="675" x2="675" y1="337.5457" y2="747.3533"/><line style="stroke:#181818;stroke-width:0.45;stroke-dasharray:5.0,5.0;" x1="816.3" x2="816.3" y1="457.4285" y2="747.3533"/><line style="stroke:#181818;stroke-width:0.45;stroke-dasharray:5.0,5.0;" x1="953.1" x2="953.1" y1="140.4123" y2="747.3533"/><line style="stroke:#181818;stroke-width:0.45;stroke-dasharray:5.0,5.0;" x1="1053" x2="1053" y1="34.759" y2="747.3533"/><line style="stroke:#181818;stroke-width:0.45;stroke-dasharray:5.0,5.0;" x1="1151.1" x2="1151.1" y1="34.759" y2="747.3533"/><rect fill="#ADD8E6" height="29.359" rx="2.25" ry="2.25" style="stroke:#181818;stroke-width:0.45;" width="70.2" x="4.5" y="4.5"/><text fill="#000000" font-family="sans-serif" font-size="12.6" lengthAdjust="spacing" textLength="57.6" x="10.8" y="24.3967">:AthletiCLI</text><rect fill="#90EE90" height="29.359" rx="2.25" ry="2.25" style="stroke:#181818;stroke-width:0.45;" width="54" x="288.9" y="4.5"/><text fill="#000000" font-family="sans-serif" font-size="12.6" lengthAdjust="spacing" textLength="41.4" x="295.2" y="24.3967">:Parser</text><rect fill="#E2E2F0" height="29.359" rx="2.25" ry="2.25" style="stroke:#181818;stroke-width:0.45;" width="68.4" x="1018.8" y="4.5"/><text fill="#000000" font-family="sans-serif" font-size="12.6" lengthAdjust="spacing" textLength="55.8" x="1025.1" y="24.3967">data:Data</text><rect fill="#FFFF00" height="29.359" rx="2.25" ry="2.25" style="stroke:#181818;stroke-width:0.45;" width="110.7" x="1096.2" y="4.5"/><text fill="#000000" font-family="sans-serif" font-size="12.6" lengthAdjust="spacing" textLength="98.1" x="1102.5" y="24.3967">data:DietGoalList</text><rect fill="#FFFFFF" height="695.4943" style="stroke:#181818;stroke-width:0.9;" width="9" x="35.1" y="43.759"/><rect fill="#FFFFFF" height="452.4609" style="stroke:#181818;stroke-width:0.9;" width="9" x="311.4" y="64.7209"/><rect fill="#FFFFFF" height="315.2162" style="stroke:#181818;stroke-width:0.9;" width="9" x="315.9" y="100.0828"/><rect fill="#FFFFFF" height="30.259" style="stroke:#181818;stroke-width:0.9;" width="9" x="546.3" y="256.4895"/><rect fill="#FFFFFF" height="30.259" style="stroke:#181818;stroke-width:0.9;" width="9" x="670.5" y="338.8781"/><rect fill="#FFFFFF" height="30.259" style="stroke:#181818;stroke-width:0.9;" width="9" x="811.8" y="458.7609"/><rect fill="#FFFFFF" height="185.8096" style="stroke:#181818;stroke-width:0.9;" width="9" x="811.8" y="545.3438"/><rect fill="#FFFFFF" height="30.259" style="stroke:#181818;stroke-width:0.9;" width="9" x="948.6" y="141.7447"/><rect fill="#FFFFFF" height="28.1619" style="stroke:#181818;stroke-width:0.9;" width="9" x="1048.5" y="573.5057"/><rect fill="#FFFFFF" height="27" style="stroke:#181818;stroke-width:0.9;" width="9" x="1147.05" y="653.4914"/><polygon fill="#181818" points="300.6,61.1209,309.6,64.7209,300.6,68.3209" style="stroke:#181818;stroke-width:0.9;"/><line style="stroke:#181818;stroke-width:0.9;" x1="44.1" x2="306" y1="64.7209" y2="64.7209"/><text fill="#000000" font-family="sans-serif" font-size="11.7" lengthAdjust="spacing" textLength="250.2" x="52.65" y="59.9845">ParseCommand("set-diet-goal WEEKLY fats/1")</text><line style="stroke:#181818;stroke-width:0.9;" x1="320.4" x2="362.7" y1="88.3828" y2="88.3828"/><line style="stroke:#181818;stroke-width:0.9;" x1="362.7" x2="362.7" y1="88.3828" y2="100.0828"/><line style="stroke:#181818;stroke-width:0.9;" x1="325.8" x2="362.7" y1="100.0828" y2="100.0828"/><polygon fill="#181818" points="334.8,96.4828,325.8,100.0828,334.8,103.6828" style="stroke:#181818;stroke-width:0.9;"/><text fill="#000000" font-family="sans-serif" font-size="11.7" lengthAdjust="spacing" textLength="213.3" x="331.2" y="83.6464">ParseDietGoalSetEdit("WEEKLY fats/1")</text><polygon fill="#181818" points="885.6,129.1447,894.6,132.7447,885.6,136.3447" style="stroke:#181818;stroke-width:0.9;"/><line style="stroke:#181818;stroke-width:0.9;" x1="324.9" x2="891" y1="132.7447" y2="132.7447"/><text fill="#000000" font-family="sans-serif" font-size="11.7" lengthAdjust="spacing" textLength="69.3" x="576" y="128.0083">dietGoalList()</text><rect fill="#FFFF00" height="29.359" rx="2.25" ry="2.25" style="stroke:#181818;stroke-width:0.45;" width="113.4" x="896.4" y="111.7828"/><text fill="#000000" font-family="sans-serif" font-size="12.6" lengthAdjust="spacing" textLength="100.8" x="902.7" y="131.6795">temp:DietGoalList</text><polygon fill="#181818" points="334.8,168.4037,325.8,172.0037,334.8,175.6037" style="stroke:#181818;stroke-width:0.9;"/><line style="stroke:#181818;stroke-width:0.9;stroke-dasharray:2.0,2.0;" x1="329.4" x2="952.2" y1="172.0037" y2="172.0037"/><text fill="#000000" font-family="sans-serif" font-size="11.7" lengthAdjust="spacing" textLength="93.6" x="592.2" y="167.2673">temp:DietGoalList</text><path d="M270.9,185.5037 L336.6,185.5037 L336.6,193.8656 L327.6,202.8656 L270.9,202.8656 L270.9,185.5037 " fill="#EEEEEE" style="stroke:#000000;stroke-width:1.35;"/><rect fill="none" height="197.1334" style="stroke:#000000;stroke-width:1.35;" width="483.3" x="270.9" y="185.5037"/><text fill="#000000" font-family="sans-serif" font-size="11.7" font-weight="bold" lengthAdjust="spacing" textLength="25.2" x="284.4" y="199.0292">loop</text><text fill="#000000" font-family="sans-serif" font-size="9.9" font-weight="bold" lengthAdjust="spacing" textLength="160.2" x="350.1" y="197.9868">[number of valid new diet goals]</text><path d="M279.9,209.1656 L334.8,209.1656 L334.8,217.5275 L325.8,226.5275 L279.9,226.5275 L279.9,209.1656 " fill="#EEEEEE" style="stroke:#000000;stroke-width:1.35;"/><rect fill="none" height="167.1715" style="stroke:#000000;stroke-width:1.35;" width="465.3" x="279.9" y="209.1656"/><text fill="#000000" font-family="sans-serif" font-size="11.7" font-weight="bold" lengthAdjust="spacing" textLength="14.4" x="293.4" y="222.6911">alt</text><text fill="#000000" font-family="sans-serif" font-size="9.9" font-weight="bold" lengthAdjust="spacing" textLength="78.3" x="348.3" y="221.6487">[is healthy goal]</text><polygon fill="#181818" points="486,243.8895,495,247.4895,486,251.0895" style="stroke:#181818;stroke-width:0.9;"/><line style="stroke:#181818;stroke-width:0.9;" x1="324.9" x2="491.4" y1="247.4895" y2="247.4895"/><text fill="#000000" font-family="sans-serif" font-size="11.7" lengthAdjust="spacing" textLength="91.8" x="364.95" y="242.753">HealthyDietGoal()</text><rect fill="#FFFFE0" height="29.359" rx="2.25" ry="2.25" style="stroke:#181818;stroke-width:0.45;" width="108" x="496.8" y="226.5275"/><text fill="#000000" font-family="sans-serif" font-size="12.6" lengthAdjust="spacing" textLength="95.4" x="503.1" y="246.4242">:HealthyDietGoal</text><polygon fill="#181818" points="334.8,283.1484,325.8,286.7484,334.8,290.3484" style="stroke:#181818;stroke-width:0.9;"/><line style="stroke:#181818;stroke-width:0.9;stroke-dasharray:2.0,2.0;" x1="329.4" x2="549.9" y1="286.7484" y2="286.7484"/><text fill="#000000" font-family="sans-serif" font-size="11.7" lengthAdjust="spacing" textLength="88.2" x="393.75" y="282.012">:HealthyDietGoal</text><line style="stroke:#000000;stroke-width:0.9;stroke-dasharray:2.0,2.0;" x1="279.9" x2="745.2" y1="294.8484" y2="294.8484"/><text fill="#000000" font-family="sans-serif" font-size="9.9" font-weight="bold" lengthAdjust="spacing" textLength="90.9" x="284.4" y="305.5315">[is unhealthy goal]</text><polygon fill="#181818" points="603,326.2781,612,329.8781,603,333.4781" style="stroke:#181818;stroke-width:0.9;"/><line style="stroke:#181818;stroke-width:0.9;" x1="324.9" x2="608.4" y1="329.8781" y2="329.8781"/><text fill="#000000" font-family="sans-serif" font-size="11.7" lengthAdjust="spacing" textLength="104.4" x="417.15" y="325.1417">UnhealthyDietGoal()</text><rect fill="#FFFFE0" height="29.359" rx="2.25" ry="2.25" style="stroke:#181818;stroke-width:0.45;" width="122.4" x="613.8" y="308.9162"/><text fill="#000000" font-family="sans-serif" font-size="12.6" lengthAdjust="spacing" textLength="109.8" x="620.1" y="328.8129">:UnhealthyDietGoal</text><polygon fill="#181818" points="334.8,365.5371,325.8,369.1371,334.8,372.7371" style="stroke:#181818;stroke-width:0.9;"/><line style="stroke:#181818;stroke-width:0.9;stroke-dasharray:2.0,2.0;" x1="329.4" x2="674.1" y1="369.1371" y2="369.1371"/><text fill="#000000" font-family="sans-serif" font-size="11.7" lengthAdjust="spacing" textLength="48.6" x="475.65" y="364.4007">:DietGoal</text><line style="stroke:#181818;stroke-width:0.9;stroke-dasharray:2.0,2.0;" x1="324.9" x2="362.7" y1="414.399" y2="414.399"/><line style="stroke:#181818;stroke-width:0.9;stroke-dasharray:2.0,2.0;" x1="362.7" x2="362.7" y1="414.399" y2="426.099"/><line style="stroke:#181818;stroke-width:0.9;stroke-dasharray:2.0,2.0;" x1="320.4" x2="362.7" y1="426.099" y2="426.099"/><polygon fill="#181818" points="329.4,422.499,320.4,426.099,329.4,429.699" style="stroke:#181818;stroke-width:0.9;"/><text fill="#000000" font-family="sans-serif" font-size="11.7" lengthAdjust="spacing" textLength="93.6" x="331.2" y="409.6626">temp:DietGoalList</text><polygon fill="#181818" points="734.4,446.1609,743.4,449.7609,734.4,453.3609" style="stroke:#181818;stroke-width:0.9;"/><line style="stroke:#181818;stroke-width:0.9;" x1="320.4" x2="739.8" y1="449.7609" y2="449.7609"/><text fill="#000000" font-family="sans-serif" font-size="11.7" lengthAdjust="spacing" textLength="123.3" x="471.15" y="445.0245">SetDietGoalCommand()</text><rect fill="#FFB6C1" height="29.359" rx="2.25" ry="2.25" style="stroke:#181818;stroke-width:0.45;" width="142.2" x="745.2" y="428.799"/><text fill="#000000" font-family="sans-serif" font-size="12.6" lengthAdjust="spacing" textLength="129.6" x="751.5" y="448.6957">:SetDietGoalCommand</text><polygon fill="#181818" points="330.3,485.4199,321.3,489.0199,330.3,492.6199" style="stroke:#181818;stroke-width:0.9;"/><line style="stroke:#181818;stroke-width:0.9;stroke-dasharray:2.0,2.0;" x1="324.9" x2="815.4" y1="489.0199" y2="489.0199"/><text fill="#000000" font-family="sans-serif" font-size="11.7" lengthAdjust="spacing" textLength="119.7" x="508.5" y="484.2835">:SetDietGoalCommand</text><polygon fill="#181818" points="54,513.5818,45,517.1818,54,520.7818" style="stroke:#181818;stroke-width:0.9;"/><line style="stroke:#181818;stroke-width:0.9;stroke-dasharray:2.0,2.0;" x1="48.6" x2="315" y1="517.1818" y2="517.1818"/><text fill="#000000" font-family="sans-serif" font-size="11.7" lengthAdjust="spacing" textLength="119.7" x="120.15" y="512.4454">:SetDietGoalCommand</text><polygon fill="#181818" points="801,541.7438,810,545.3438,801,548.9438" style="stroke:#181818;stroke-width:0.9;"/><line style="stroke:#181818;stroke-width:0.9;" x1="44.1" x2="806.4" y1="545.3438" y2="545.3438"/><text fill="#000000" font-family="sans-serif" font-size="11.7" lengthAdjust="spacing" textLength="48.6" x="403.65" y="540.6073">execute()</text><polygon fill="#181818" points="1037.7,569.9057,1046.7,573.5057,1037.7,577.1057" style="stroke:#181818;stroke-width:0.9;"/><line style="stroke:#181818;stroke-width:0.9;" x1="820.8" x2="1043.1" y1="573.5057" y2="573.5057"/><text fill="#000000" font-family="sans-serif" font-size="11.7" lengthAdjust="spacing" textLength="74.7" x="897.3" y="568.7692">getDietGoals()</text><polygon fill="#181818" points="830.7,598.0676,821.7,601.6676,830.7,605.2676" style="stroke:#181818;stroke-width:0.9;"/><line style="stroke:#181818;stroke-width:0.9;stroke-dasharray:2.0,2.0;" x1="825.3" x2="1052.1" y1="601.6676" y2="601.6676"/><text fill="#000000" font-family="sans-serif" font-size="11.7" lengthAdjust="spacing" textLength="90" x="891.9" y="596.9312">data:DietGoalList</text><path d="M736.2,615.1676 L801.9,615.1676 L801.9,623.5295 L792.9,632.5295 L736.2,632.5295 L736.2,615.1676 " fill="#EEEEEE" style="stroke:#000000;stroke-width:1.35;"/><rect fill="none" height="72.5238" style="stroke:#000000;stroke-width:1.35;" width="479.7" x="736.2" y="615.1676"/><text fill="#000000" font-family="sans-serif" font-size="11.7" font-weight="bold" lengthAdjust="spacing" textLength="25.2" x="749.7" y="628.6931">loop</text><text fill="#000000" font-family="sans-serif" font-size="9.9" font-weight="bold" lengthAdjust="spacing" textLength="249.3" x="815.4" y="627.6507">[number of valid new healthy and unhealthy goals]</text><polygon fill="#181818" points="1136.25,649.8914,1145.25,653.4914,1136.25,657.0914" style="stroke:#181818;stroke-width:0.9;"/><line style="stroke:#181818;stroke-width:0.9;" x1="820.8" x2="1141.65" y1="653.4914" y2="653.4914"/><text fill="#000000" font-family="sans-serif" font-size="11.7" lengthAdjust="spacing" textLength="26.1" x="970.875" y="648.755">add()</text><line style="stroke:#A80036;stroke-width:1.8;" x1="945" x2="961.2" y1="693.9914" y2="710.1914"/><line style="stroke:#A80036;stroke-width:1.8;" x1="945" x2="961.2" y1="710.1914" y2="693.9914"/><polygon fill="#181818" points="54,727.5533,45,731.1533,54,734.7533" style="stroke:#181818;stroke-width:0.9;"/><line style="stroke:#181818;stroke-width:0.9;stroke-dasharray:2.0,2.0;" x1="48.6" x2="815.4" y1="731.1533" y2="731.1533"/><text fill="#000000" font-family="sans-serif" font-size="11.7" lengthAdjust="spacing" textLength="88.2" x="386.1" y="726.4169">messages:String</text><line style="stroke:#A80036;stroke-width:1.8;" x1="808.2" x2="824.4" y1="723.0533" y2="739.2533"/><line style="stroke:#A80036;stroke-width:1.8;" x1="808.2" x2="824.4" y1="739.2533" y2="723.0533"/><!--SRC=[bLLDRzmW4BtpAz3ca8rMxgfN7o95oQg9kfKghQggHs9FR1ICNJDkkl- -0yPVu4rK7sm3xmrllk2wH6nCkjytIcZiAlKfgwkzWTyTw0oIN8gY5HKphr8tWlxu2SyAkC5MPXO-N_6aRs2CAE1EoK9Ne95dz8AM4Gfb9XlQXs_IEomLeBm_FcsuC7mQyYiYblYiEWWetqLhe7Nm_jT3YnP01zX740hByuC4_58BvKZbSiwppw1K_HRGV-XonK2d_yF42N20tTTL9NJkRCJJtaWZzUlI14BLf0FuA0qw0tPsFiclrhRF1OhqWLwEOqTsi8O9xJlicdt6haM7jUwgPyhcbB3TRZRWoQrFpcx7q_xN-xdT642gA7eLDdO_3uUlnr_yHQ3PVzxSC9_J5GE378hT8PUutOJKh0M148LcPZ9SSiRpsSJsXaMHJKOjIKBmA1-CSNfKNJUyZmglN_WVeMJEDRmvyzowQXpEFbGzN8wLw1R7DVjuHu8oMq0cdmAKSoceU_9gpWtBDt0mx9gH2yg0rJqsm5AvLnsr1uirHnYdEcgtcUwuwKBLiLoTi-4xri17kVHEnFqvgw9uqScFfqd_IgE7mj_PYv1JKrr4B_lkWZhu2rc7S47IxNWuE70nGGmnXZKdAAOxOT4nya5R32LajryMLDydxwWC6rZaDjAM5PrQISBOL0Gvq8rLd-CJuaAMWjXN_PLcqXFTUxgOxAtav1y0]--></g></svg>