<?xml version="1.0" encoding="us-ascii" standalone="no"?><svg xmlns="http://www.w3.org/2000/svg" xmlns:xlink="http://www.w3.org/1999/xlink" contentStyleType="text/css" height="449px" preserveAspectRatio="none" style="width:729px;height:449px;background:#FFFFFF;" version="1.1" viewBox="0 0 729 449" width="729px" zoomAndPan="magnify"><defs/><g><rect fill="#FFFFFF" height="340.2402" style="stroke:#181818;stroke-width:1.0;" width="10" x="39" y="93.6211"/><rect fill="#FFFFFF" height="106.2031" style="stroke:#181818;stroke-width:1.0;" width="10" x="251" y="210.7852"/><rect fill="#FFFFFF" height="33.6211" style="stroke:#181818;stroke-width:1.0;" width="10" x="511" y="252.0762"/><rect fill="#FFFFFF" height="31.291" style="stroke:#181818;stroke-width:1.0;" width="10" x="511" y="348.2793"/><rect fill="#FFFFFF" height="62.582" style="stroke:#181818;stroke-width:1.0;" width="10" x="591" y="116.9121"/><rect fill="#FFFFFF" height="14" style="stroke:#181818;stroke-width:1.0;" width="10" x="591" y="410.8613"/><line style="stroke:#181818;stroke-width:0.5;stroke-dasharray:5.0,5.0;" x1="44" x2="44" y1="83.6211" y2="442.8613"/><line style="stroke:#181818;stroke-width:0.5;stroke-dasharray:5.0,5.0;" x1="256" x2="256" y1="83.6211" y2="442.8613"/><line style="stroke:#181818;stroke-width:0.5;stroke-dasharray:5.0,5.0;" x1="516" x2="516" y1="250.5957" y2="442.8613"/><line style="stroke:#181818;stroke-width:0.5;stroke-dasharray:5.0,5.0;" x1="596" x2="596" y1="83.6211" y2="442.8613"/><line style="stroke:#181818;stroke-width:0.5;stroke-dasharray:5.0,5.0;" x1="708.5" x2="708.5" y1="83.6211" y2="442.8613"/><rect fill="#ADD8E6" height="32.6211" rx="2.5" ry="2.5" style="stroke:#181818;stroke-width:0.5;" width="78" x="5" y="50"/><text fill="#000000" font-family="sans-serif" font-size="14" lengthAdjust="spacing" textLength="64" x="12" y="72.1074">:AthletiCLI</text><rect fill="#90EE90" height="51.2422" rx="2.5" ry="2.5" style="stroke:#181818;stroke-width:0.5;" width="62" x="225" y="31.3789"/><text fill="#000000" font-family="sans-serif" font-size="14" lengthAdjust="spacing" textLength="48" x="232" y="53.4863">&#171;class&#187;</text><text fill="#000000" font-family="sans-serif" font-size="14" lengthAdjust="spacing" textLength="42" x="235" y="72.1074">Parser</text><rect fill="#FFFFE0" height="32.6211" rx="2.5" ry="2.5" style="stroke:#181818;stroke-width:0.5;" width="30" x="581" y="50"/><text fill="#000000" font-family="sans-serif" font-size="14" lengthAdjust="spacing" textLength="16" x="588" y="72.1074">:Ui</text><text fill="#000000" font-family="sans-serif" font-size="14" lengthAdjust="spacing" textLength="29" x="691.5" y="80.1074">User</text><ellipse cx="709" cy="13.5" fill="#E2E2F0" rx="8" ry="8" style="stroke:#181818;stroke-width:0.5;"/><path d="M709,21.5 L709,48.5 M696,29.5 L722,29.5 M709,48.5 L696,63.5 M709,48.5 L722,63.5 " fill="none" style="stroke:#181818;stroke-width:0.5;"/><rect fill="#FFFFFF" height="340.2402" style="stroke:#181818;stroke-width:1.0;" width="10" x="39" y="93.6211"/><rect fill="#FFFFFF" height="106.2031" style="stroke:#181818;stroke-width:1.0;" width="10" x="251" y="210.7852"/><rect fill="#FFFFFF" height="33.6211" style="stroke:#181818;stroke-width:1.0;" width="10" x="511" y="252.0762"/><rect fill="#FFFFFF" height="31.291" style="stroke:#181818;stroke-width:1.0;" width="10" x="511" y="348.2793"/><rect fill="#FFFFFF" height="62.582" style="stroke:#181818;stroke-width:1.0;" width="10" x="591" y="116.9121"/><rect fill="#FFFFFF" height="14" style="stroke:#181818;stroke-width:1.0;" width="10" x="591" y="410.8613"/><polygon fill="#181818" points="579,112.9121,589,116.9121,579,120.9121" style="stroke:#181818;stroke-width:1.0;"/><line style="stroke:#181818;stroke-width:1.0;" x1="49" x2="585" y1="116.9121" y2="116.9121"/><text fill="#000000" font-family="sans-serif" font-size="13" lengthAdjust="spacing" textLength="112" x="264" y="111.6494">getUserCommand()</text><polygon fill="#181818" points="612,144.2031,602,148.2031,612,152.2031" style="stroke:#181818;stroke-width:1.0;"/><line style="stroke:#181818;stroke-width:1.0;" x1="606" x2="708" y1="148.2031" y2="148.2031"/><text fill="#000000" font-family="sans-serif" font-size="13" lengthAdjust="spacing" textLength="84" x="613" y="142.9404">"help add-diet"</text><polygon fill="#181818" points="60,175.4941,50,179.4941,60,183.4941" style="stroke:#181818;stroke-width:1.0;"/><line style="stroke:#181818;stroke-width:1.0;stroke-dasharray:2.0,2.0;" x1="54" x2="595" y1="179.4941" y2="179.4941"/><text fill="#000000" font-family="sans-serif" font-size="13" lengthAdjust="spacing" textLength="84" x="280.5" y="174.2314">"help add-diet"</text><polygon fill="#181818" points="239,206.7852,249,210.7852,239,214.7852" style="stroke:#181818;stroke-width:1.0;"/><line style="stroke:#181818;stroke-width:1.0;" x1="49" x2="245" y1="210.7852" y2="210.7852"/><text fill="#000000" font-family="sans-serif" font-size="13" lengthAdjust="spacing" textLength="183" x="58.5" y="205.5225">parseCommand("help add-diet")</text><polygon fill="#181818" points="449,238.0762,459,242.0762,449,246.0762" style="stroke:#181818;stroke-width:1.0;"/><line style="stroke:#181818;stroke-width:1.0;" x1="261" x2="455" y1="242.0762" y2="242.0762"/><text fill="#000000" font-family="sans-serif" font-size="13" lengthAdjust="spacing" textLength="176" x="273" y="236.8135">new HelpCommand("add-diet")</text><rect fill="#FFB6C1" height="32.6211" rx="2.5" ry="2.5" style="stroke:#181818;stroke-width:0.5;" width="110" x="461" y="218.7852"/><text fill="#000000" font-family="sans-serif" font-size="14" lengthAdjust="spacing" textLength="96" x="468" y="240.8926">:HelpCommand</text><polygon fill="#181818" points="272,281.6973,262,285.6973,272,289.6973" style="stroke:#181818;stroke-width:1.0;"/><line style="stroke:#181818;stroke-width:1.0;stroke-dasharray:2.0,2.0;" x1="266" x2="515" y1="285.6973" y2="285.6973"/><text fill="#000000" font-family="sans-serif" font-size="13" lengthAdjust="spacing" textLength="89" x="344" y="280.4346">:HelpCommand</text><polygon fill="#181818" points="60,312.9883,50,316.9883,60,320.9883" style="stroke:#181818;stroke-width:1.0;"/><line style="stroke:#181818;stroke-width:1.0;stroke-dasharray:2.0,2.0;" x1="54" x2="255" y1="316.9883" y2="316.9883"/><text fill="#000000" font-family="sans-serif" font-size="13" lengthAdjust="spacing" textLength="89" x="108" y="311.7256">:HelpCommand</text><polygon fill="#181818" points="499,344.2793,509,348.2793,499,352.2793" style="stroke:#181818;stroke-width:1.0;"/><line style="stroke:#181818;stroke-width:1.0;" x1="49" x2="505" y1="348.2793" y2="348.2793"/><text fill="#000000" font-family="sans-serif" font-size="13" lengthAdjust="spacing" textLength="79" x="240.5" y="343.0166">execute(data)</text><polygon fill="#181818" points="60,375.5703,50,379.5703,60,383.5703" style="stroke:#181818;stroke-width:1.0;"/><line style="stroke:#181818;stroke-width:1.0;stroke-dasharray:2.0,2.0;" x1="54" x2="515" y1="379.5703" y2="379.5703"/><text fill="#000000" font-family="sans-serif" font-size="13" lengthAdjust="spacing" textLength="90" x="237.5" y="374.3076">feedback:String</text><polygon fill="#181818" points="579,406.8613,589,410.8613,579,414.8613" style="stroke:#181818;stroke-width:1.0;"/><line style="stroke:#181818;stroke-width:1.0;" x1="49" x2="585" y1="410.8613" y2="410.8613"/><text fill="#000000" font-family="sans-serif" font-size="13" lengthAdjust="spacing" textLength="150" x="245" y="405.5986">showMessages(feedback)</text><polygon fill="#181818" points="60,420.8613,50,424.8613,60,428.8613" style="stroke:#181818;stroke-width:1.0;"/><line style="stroke:#181818;stroke-width:1.0;stroke-dasharray:2.0,2.0;" x1="54" x2="595" y1="424.8613" y2="424.8613"/><line style="stroke:#A80036;stroke-width:2.0;" x1="507" x2="525" y1="415.8613" y2="433.8613"/><line style="stroke:#A80036;stroke-width:2.0;" x1="507" x2="525" y1="433.8613" y2="415.8613"/><!--SRC=[RLBBReCm4BpxAonwI294SqTHf2gNLcgbIb5klMpC5gmOG-r5QVw-YqCQGxXWxsDcTWSlAgBMv-jrQy1ILvjdrTHhZpyTMeLPeQ5qK0j_qhO5liazNGnAJqwhlZsk3A0Fz1vAV36wj3LQaee_w0HtaLQwPHsPv2zK6IIzUtzB97Xv3-KJ0oiwcWx7aCr66V1-k_sod-0ykW2yNWTGwH3jHEWLJRjhwXfi4G1HFA1QRKyJq467teCUMYveJ7CMeAXnyj0BzbK-XH0BwAYnNNtawBv6caQ1pBRCbQOoboLIZnicMAv4O0jrhYOLJoUXADXvf4HmCkFQdIdBPhh6GbT7WbZRNszI4zHAA8T061iY1ZUP9Se6AeldEBTC8gBOqkn_WZ1gFiV-kD6eRRpET13yHTKHBWiWU9IUy7uZ5aTGftpF3zQMyx_4LyrvUBH-UKEivhmNea1- -irbPDeV]--></g></svg>