<?xml version="1.0" encoding="us-ascii" standalone="no"?><svg xmlns="http://www.w3.org/2000/svg" xmlns:xlink="http://www.w3.org/1999/xlink" contentStyleType="text/css" height="232.8px" preserveAspectRatio="none" style="width:386px;height:232px;background:#FFFFFF;" version="1.1" viewBox="0 0 386 232" width="386.4px" zoomAndPan="magnify"><defs/><g><rect fill="#FFFFFF" height="207.2258" style="stroke:#181818;stroke-width:0.4000000000000001;" width="4" x="15.6" y="19.4484"/><rect fill="#FFFFFF" height="151.1602" style="stroke:#181818;stroke-width:0.4000000000000001;" width="4" x="114.4" y="28.7648"/><rect fill="#FFFFFF" height="90.1625" style="stroke:#181818;stroke-width:0.4000000000000001;" width="4" x="116.4" y="44.4813"/><rect fill="#FFFFFF" height="13.4484" style="stroke:#181818;stroke-width:0.4000000000000001;" width="4" x="194.8" y="103.4789"/><rect fill="#FFFFFF" height="13.4484" style="stroke:#181818;stroke-width:0.4000000000000001;" width="4" x="244.6" y="153.9602"/><rect fill="#FFFFFF" height="30.6328" style="stroke:#181818;stroke-width:0.4000000000000001;" width="4" x="244.6" y="192.4414"/><rect fill="#FFFFFF" height="13.4484" style="stroke:#181818;stroke-width:0.4000000000000001;" width="4" x="305" y="62.9977"/><rect fill="#FFFFFF" height="5.6" style="stroke:#181818;stroke-width:0.4000000000000001;" width="4" x="358" y="204.9578"/><rect fill="none" height="37.6813" style="stroke:#000000;stroke-width:0.6000000000000001;" width="114.6" x="100.4" y="82.4461"/><line style="stroke:#181818;stroke-width:0.20000000000000004;stroke-dasharray:5.0,5.0;" x1="17.6" x2="17.6" y1="15.4484" y2="230.2742"/><line style="stroke:#181818;stroke-width:0.20000000000000004;stroke-dasharray:5.0,5.0;" x1="116.4" x2="116.4" y1="15.4484" y2="230.2742"/><line style="stroke:#181818;stroke-width:0.20000000000000004;stroke-dasharray:5.0,5.0;" x1="196.6" x2="196.6" y1="102.8867" y2="230.2742"/><line style="stroke:#181818;stroke-width:0.20000000000000004;stroke-dasharray:5.0,5.0;" x1="246.6" x2="246.6" y1="153.368" y2="230.2742"/><line style="stroke:#181818;stroke-width:0.20000000000000004;stroke-dasharray:5.0,5.0;" x1="307" x2="307" y1="62.4055" y2="230.2742"/><line style="stroke:#181818;stroke-width:0.20000000000000004;stroke-dasharray:5.0,5.0;" x1="359.8" x2="359.8" y1="15.4484" y2="230.2742"/><rect fill="#ADD8E6" height="13.0484" rx="1" ry="1" style="stroke:#181818;stroke-width:0.20000000000000004;" width="31.2" x="2" y="2"/><text fill="#000000" font-family="sans-serif" font-size="5.6" lengthAdjust="spacing" textLength="25.6" x="4.8" y="10.843">:AthletiCLI</text><rect fill="#E2E2F0" height="13.0484" rx="1" ry="1" style="stroke:#181818;stroke-width:0.20000000000000004;" width="24" x="104.4" y="2"/><text fill="#000000" font-family="sans-serif" font-size="5.6" lengthAdjust="spacing" textLength="18.4" x="107.2" y="10.843">:Parser</text><rect fill="#E2E2F0" height="13.0484" rx="1" ry="1" style="stroke:#181818;stroke-width:0.20000000000000004;" width="48.4" x="335.8" y="2"/><text fill="#000000" font-family="sans-serif" font-size="5.6" lengthAdjust="spacing" textLength="42.8" x="338.6" y="10.843">data:dietGoalList</text><rect fill="#FFFFFF" height="207.2258" style="stroke:#181818;stroke-width:0.4000000000000001;" width="4" x="15.6" y="19.4484"/><rect fill="#FFFFFF" height="151.1602" style="stroke:#181818;stroke-width:0.4000000000000001;" width="4" x="114.4" y="28.7648"/><rect fill="#FFFFFF" height="90.1625" style="stroke:#181818;stroke-width:0.4000000000000001;" width="4" x="116.4" y="44.4813"/><rect fill="#FFFFFF" height="13.4484" style="stroke:#181818;stroke-width:0.4000000000000001;" width="4" x="194.8" y="103.4789"/><rect fill="#FFFFFF" height="13.4484" style="stroke:#181818;stroke-width:0.4000000000000001;" width="4" x="244.6" y="153.9602"/><rect fill="#FFFFFF" height="30.6328" style="stroke:#181818;stroke-width:0.4000000000000001;" width="4" x="244.6" y="192.4414"/><rect fill="#FFFFFF" height="13.4484" style="stroke:#181818;stroke-width:0.4000000000000001;" width="4" x="305" y="62.9977"/><rect fill="#FFFFFF" height="5.6" style="stroke:#181818;stroke-width:0.4000000000000001;" width="4" x="358" y="204.9578"/><polygon fill="#181818" points="109.6,27.1648,113.6,28.7648,109.6,30.3648" style="stroke:#181818;stroke-width:0.4000000000000001;"/><line style="stroke:#181818;stroke-width:0.4000000000000001;" x1="19.6" x2="112" y1="28.7648" y2="28.7648"/><text fill="#000000" font-family="sans-serif" font-size="5.2" lengthAdjust="spacing" textLength="87.2" x="23.4" y="26.6598">ParseCommand("set-diet-goal fats/1")</text><line style="stroke:#181818;stroke-width:0.4000000000000001;" x1="118.4" x2="137.2" y1="39.2813" y2="39.2813"/><line style="stroke:#181818;stroke-width:0.4000000000000001;" x1="137.2" x2="137.2" y1="39.2813" y2="44.4813"/><line style="stroke:#181818;stroke-width:0.4000000000000001;" x1="120.8" x2="137.2" y1="44.4813" y2="44.4813"/><polygon fill="#181818" points="124.8,42.8813,120.8,44.4813,124.8,46.0813" style="stroke:#181818;stroke-width:0.4000000000000001;"/><text fill="#000000" font-family="sans-serif" font-size="5.2" lengthAdjust="spacing" textLength="70.8" x="123.2" y="37.1762">ParseDietGoalSetEdit("fats/1")</text><polygon fill="#181818" points="277.4,57.3977,281.4,58.9977,277.4,60.5977" style="stroke:#181818;stroke-width:0.4000000000000001;"/><line style="stroke:#181818;stroke-width:0.4000000000000001;" x1="120.4" x2="279.8" y1="58.9977" y2="58.9977"/><text fill="#000000" font-family="sans-serif" font-size="5.2" lengthAdjust="spacing" textLength="30.8" x="185.9" y="56.8926">dietGoalList()</text><rect fill="#E2E2F0" height="13.0484" rx="1" ry="1" style="stroke:#181818;stroke-width:0.20000000000000004;" width="49.6" x="282.2" y="49.6813"/><text fill="#000000" font-family="sans-serif" font-size="5.6" lengthAdjust="spacing" textLength="44" x="285" y="58.5242">temp:dietGoalList</text><polygon fill="#181818" points="124.8,74.8461,120.8,76.4461,124.8,78.0461" style="stroke:#181818;stroke-width:0.4000000000000001;"/><line style="stroke:#181818;stroke-width:0.4000000000000001;stroke-dasharray:2.0,2.0;" x1="122.4" x2="306.6" y1="76.4461" y2="76.4461"/><text fill="#000000" font-family="sans-serif" font-size="5.2" lengthAdjust="spacing" textLength="27.6" x="199.9" y="74.341">dietGoalList</text><path d="M100.4,82.4461 L129.6,82.4461 L129.6,86.1625 L125.6,90.1625 L100.4,90.1625 L100.4,82.4461 " fill="#EEEEEE" style="stroke:#000000;stroke-width:0.6000000000000001;"/><rect fill="none" height="37.6813" style="stroke:#000000;stroke-width:0.6000000000000001;" width="114.6" x="100.4" y="82.4461"/><text fill="#000000" font-family="sans-serif" font-size="5.2" font-weight="bold" lengthAdjust="spacing" textLength="11.2" x="106.4" y="88.4574">loop</text><text fill="#000000" font-family="sans-serif" font-size="4.4" font-weight="bold" lengthAdjust="spacing" textLength="71.2" x="135.6" y="87.9941">[number of valid new diet goals]</text><polygon fill="#181818" points="177.8,97.8789,181.8,99.4789,177.8,101.0789" style="stroke:#181818;stroke-width:0.4000000000000001;"/><line style="stroke:#181818;stroke-width:0.4000000000000001;" x1="120.4" x2="180.2" y1="99.4789" y2="99.4789"/><text fill="#000000" font-family="sans-serif" font-size="5.2" lengthAdjust="spacing" textLength="22.4" x="140.3" y="97.3738">dietGoal()</text><rect fill="#E2E2F0" height="13.0484" rx="1" ry="1" style="stroke:#181818;stroke-width:0.20000000000000004;" width="28.4" x="182.6" y="90.1625"/><text fill="#000000" font-family="sans-serif" font-size="5.6" lengthAdjust="spacing" textLength="22.8" x="185.4" y="99.0055">:dietGoal</text><polygon fill="#181818" points="124.8,115.3273,120.8,116.9273,124.8,118.5273" style="stroke:#181818;stroke-width:0.4000000000000001;"/><line style="stroke:#181818;stroke-width:0.4000000000000001;stroke-dasharray:2.0,2.0;" x1="122.4" x2="196.4" y1="116.9273" y2="116.9273"/><text fill="#000000" font-family="sans-serif" font-size="5.2" lengthAdjust="spacing" textLength="19.2" x="149" y="114.8223">dietGoal</text><line style="stroke:#181818;stroke-width:0.4000000000000001;stroke-dasharray:2.0,2.0;" x1="120.4" x2="137.2" y1="134.2438" y2="134.2438"/><line style="stroke:#181818;stroke-width:0.4000000000000001;stroke-dasharray:2.0,2.0;" x1="137.2" x2="137.2" y1="134.2438" y2="139.4438"/><line style="stroke:#181818;stroke-width:0.4000000000000001;stroke-dasharray:2.0,2.0;" x1="118.4" x2="137.2" y1="139.4438" y2="139.4438"/><polygon fill="#181818" points="122.4,137.8438,118.4,139.4438,122.4,141.0438" style="stroke:#181818;stroke-width:0.4000000000000001;"/><text fill="#000000" font-family="sans-serif" font-size="5.2" lengthAdjust="spacing" textLength="27.6" x="123.2" y="132.1387">dietGoalList</text><polygon fill="#181818" points="210.2,148.3602,214.2,149.9602,210.2,151.5602" style="stroke:#181818;stroke-width:0.4000000000000001;"/><line style="stroke:#181818;stroke-width:0.4000000000000001;" x1="118.4" x2="212.6" y1="149.9602" y2="149.9602"/><text fill="#000000" font-family="sans-serif" font-size="5.2" lengthAdjust="spacing" textLength="54.8" x="139.3" y="147.8551">SetDietGoalCommand()</text><rect fill="#E2E2F0" height="13.0484" rx="1" ry="1" style="stroke:#181818;stroke-width:0.20000000000000004;" width="63.2" x="215" y="140.6438"/><text fill="#000000" font-family="sans-serif" font-size="5.6" lengthAdjust="spacing" textLength="57.6" x="217.8" y="149.4867">:SetDietGoalCommand</text><polygon fill="#181818" points="122.8,165.8086,118.8,167.4086,122.8,169.0086" style="stroke:#181818;stroke-width:0.4000000000000001;"/><line style="stroke:#181818;stroke-width:0.4000000000000001;stroke-dasharray:2.0,2.0;" x1="120.4" x2="246.2" y1="167.4086" y2="167.4086"/><text fill="#000000" font-family="sans-serif" font-size="5.2" lengthAdjust="spacing" textLength="51.6" x="156.7" y="165.3035">SetDietGoalCommand</text><polygon fill="#181818" points="24,178.325,20,179.925,24,181.525" style="stroke:#181818;stroke-width:0.4000000000000001;"/><line style="stroke:#181818;stroke-width:0.4000000000000001;stroke-dasharray:2.0,2.0;" x1="21.6" x2="116" y1="179.925" y2="179.925"/><text fill="#000000" font-family="sans-serif" font-size="5.2" lengthAdjust="spacing" textLength="51.6" x="42.2" y="177.8199">SetDietGoalCommand</text><polygon fill="#181818" points="239.8,190.8414,243.8,192.4414,239.8,194.0414" style="stroke:#181818;stroke-width:0.4000000000000001;"/><line style="stroke:#181818;stroke-width:0.4000000000000001;" x1="19.6" x2="242.2" y1="192.4414" y2="192.4414"/><text fill="#000000" font-family="sans-serif" font-size="5.2" lengthAdjust="spacing" textLength="21.6" x="121.3" y="190.3363">execute()</text><polygon fill="#181818" points="353.2,203.3578,357.2,204.9578,353.2,206.5578" style="stroke:#181818;stroke-width:0.4000000000000001;"/><line style="stroke:#181818;stroke-width:0.4000000000000001;" x1="248.6" x2="355.6" y1="204.9578" y2="204.9578"/><text fill="#000000" font-family="sans-serif" font-size="5.2" lengthAdjust="spacing" textLength="11.6" x="297.5" y="202.8527">add()</text><polygon fill="#181818" points="253,208.9578,249,210.5578,253,212.1578" style="stroke:#181818;stroke-width:0.4000000000000001;"/><line style="stroke:#181818;stroke-width:0.4000000000000001;stroke-dasharray:2.0,2.0;" x1="250.6" x2="359.6" y1="210.5578" y2="210.5578"/><line style="stroke:#A80036;stroke-width:0.8000000000000002;" x1="303.4" x2="310.6" y1="206.9578" y2="214.1578"/><line style="stroke:#A80036;stroke-width:0.8000000000000002;" x1="303.4" x2="310.6" y1="214.1578" y2="206.9578"/><polygon fill="#181818" points="24,221.4742,20,223.0742,24,224.6742" style="stroke:#181818;stroke-width:0.4000000000000001;"/><line style="stroke:#181818;stroke-width:0.4000000000000001;stroke-dasharray:2.0,2.0;" x1="21.6" x2="246.2" y1="223.0742" y2="223.0742"/><text fill="#000000" font-family="sans-serif" font-size="5.2" lengthAdjust="spacing" textLength="24" x="121.1" y="220.9691">messages</text><line style="stroke:#A80036;stroke-width:0.8000000000000002;" x1="243" x2="250.2" y1="219.4742" y2="226.6742"/><line style="stroke:#A80036;stroke-width:0.8000000000000002;" x1="243" x2="250.2" y1="226.6742" y2="219.4742"/><!--SRC=[VLRRRXiv37tNLn3fWnCa7gElUMWHf8jjWIvsWUmFo1Bj4QAHPdM9Et-_9EVYMzB026QaG_8StknLMqgV7pURtkjGQkSR4xjDnlyg1eDhw_G-wKxbLnTwJK_mKWQFa4joXk6dDvFHNvYptkEJT_lGOIXWw1ycHQZYZEif3jmyFfNMOt7FFt_SWCvmV8LFPDYMhQzuOVAFJXcJmCV7YtlhiFmPjHV4_7A1US7oRRfvZbsdWnNqzV6vNS6kN_p_TBc85Pz-Epayjx6ww6iRFZspKIjTImorsvAWOnhkxqzUOFrbadn_3u_ZuyJpzYPZMNEOzPvSmawNlFbySwT6_7kMStWI_OTrvVPciJ49TS5hNKTVbrVYzLJaxPswnC1w8R5UNy2L0lhpCVOmfW3Y3jwqTnO27WGAh2iBRkAtr9RFZjpcupDEn8THy-j7N0I4LFP5wsyuJpJUQPeZcUjBeNLzJ0Il3o_3_oOK0O-DyX7ul9K-u8Q_qDI27n3wSjMwOgGjAxYy4bhNNjPhPP5sHnokU-o395newyRbafLQFBqZLsrMwj_MPQ2FXdcRmRJDO1SJb1PXTJOwAp1Jt8ChxTI4ijgGrbTkbBElS6XrWH8Xwu4Qz5Tf6hNQI3ps8nFeMR_hUezag8kBeL5dkJauxs6BCuQMemKNoAc6LkUsq_t8W2c6IfkMbsWW6h9pwF0L1yKy-Td4b33tCLWNziTvcQ6aec8pvsABHjUCV9DmJ4v0YawnTrXCgyv2YXzR4plc2wHb0HotzfRxlq_HK3aQzNrYhRsFXmmriqDj-58CnP4BeBj8-p5JmBzlFzz1SHqsYWf5AYgf2EMO4icRC0pmb98UE7CDVESwFh2lc2nrFrTo3BTpKq9oZyRjd57po3x00U4GgxUBMDatfKsnxiSqKqH76LaYCSYqQ5xFYn1tag5bcH0_QGWAaAZ9o8LjG99DDQc-Y6YA5lR4DTKWaYM5p23FdQ02Sgvq6aGGQjEEoMPrOwvfAywHntqeVKTjz-8wvtLYmf7BEjvIRJ1BGiF913qipAaR0e5ToR1BiHFVUalpf0rzNtkTinBOf8O-jYB7OE3esmYfX3tvbcAT8F98ofM1CIUyLAwaZNepUyH-uihveBZkZV5dufx2Q7lH5kHpAS4yJ1osaYRjIpiirmqyZvtbXmSuBLrMCVW1SkrxwacvSe7tUkO77aVzYikYU2CjaVfiRWIQf5h0HgIZMDIf5-koYJNfFK_DLBN96xqj3Xf5NpPiZB8_rAgDXwLr8RVIhew4VPrVPDWr3Uda65EAYKUQ0GTghHY_qcy9dwDCdxLpCMGViNjw_o5WmadRwcsiqvLiaa0DK4s9IN8rWAQH46rPAfjBvO68U-IYDEf_]--></g></svg>