<?xml version="1.0" encoding="us-ascii" standalone="no"?><svg xmlns="http://www.w3.org/2000/svg" xmlns:xlink="http://www.w3.org/1999/xlink" contentStyleType="text/css" height="139.2px" preserveAspectRatio="none" style="width:212px;height:139px;background:#FFFFFF;" version="1.1" viewBox="0 0 212 139" width="212.4px" zoomAndPan="magnify"><defs/><g><rect fill="#FFFFFF" height="126.3875" style="stroke:#181818;stroke-width:0.20000000000000004;" width="2" x="7.8" y="9.7242"/><rect fill="#FFFFFF" height="75.5801" style="stroke:#181818;stroke-width:0.20000000000000004;" width="2" x="57.2" y="14.3824"/><rect fill="#FFFFFF" height="45.0813" style="stroke:#181818;stroke-width:0.20000000000000004;" width="2" x="58.2" y="22.2406"/><rect fill="#FFFFFF" height="6.7242" style="stroke:#181818;stroke-width:0.20000000000000004;" width="2" x="97.4" y="51.7395"/><rect fill="#FFFFFF" height="6.7242" style="stroke:#181818;stroke-width:0.20000000000000004;" width="2" x="122.3" y="76.9801"/><rect fill="#FFFFFF" height="38.091" style="stroke:#181818;stroke-width:0.20000000000000004;" width="2" x="122.3" y="96.2207"/><rect fill="#FFFFFF" height="6.7242" style="stroke:#181818;stroke-width:0.20000000000000004;" width="2" x="152.5" y="31.4988"/><rect fill="#FFFFFF" height="6.2582" style="stroke:#181818;stroke-width:0.20000000000000004;" width="2" x="174.5" y="102.4789"/><rect fill="#FFFFFF" height="2.8" style="stroke:#181818;stroke-width:0.20000000000000004;" width="2" x="196.2" y="120.2535"/><rect fill="none" height="18.8406" style="stroke:#000000;stroke-width:0.30000000000000004;" width="57.3" x="50.2" y="41.223"/><rect fill="none" height="12.9164" style="stroke:#000000;stroke-width:0.30000000000000004;" width="105.8" x="105.5" y="111.7371"/><line style="stroke:#181818;stroke-width:0.10000000000000002;stroke-dasharray:5.0,5.0;" x1="8.8" x2="8.8" y1="7.7242" y2="137.9117"/><line style="stroke:#181818;stroke-width:0.10000000000000002;stroke-dasharray:5.0,5.0;" x1="58.2" x2="58.2" y1="7.7242" y2="137.9117"/><line style="stroke:#181818;stroke-width:0.10000000000000002;stroke-dasharray:5.0,5.0;" x1="98.3" x2="98.3" y1="51.4434" y2="137.9117"/><line style="stroke:#181818;stroke-width:0.10000000000000002;stroke-dasharray:5.0,5.0;" x1="123.3" x2="123.3" y1="76.684" y2="137.9117"/><line style="stroke:#181818;stroke-width:0.10000000000000002;stroke-dasharray:5.0,5.0;" x1="153.5" x2="153.5" y1="31.2027" y2="137.9117"/><line style="stroke:#181818;stroke-width:0.10000000000000002;stroke-dasharray:5.0,5.0;" x1="175.5" x2="175.5" y1="7.7242" y2="137.9117"/><line style="stroke:#181818;stroke-width:0.10000000000000002;stroke-dasharray:5.0,5.0;" x1="197.1" x2="197.1" y1="7.7242" y2="137.9117"/><rect fill="#ADD8E6" height="6.5242" rx="0.5" ry="0.5" style="stroke:#181818;stroke-width:0.10000000000000002;" width="15.6" x="1" y="1"/><text fill="#000000" font-family="sans-serif" font-size="2.8" lengthAdjust="spacing" textLength="12.8" x="2.4" y="5.4215">:AthletiCLI</text><rect fill="#90EE90" height="6.5242" rx="0.5" ry="0.5" style="stroke:#181818;stroke-width:0.10000000000000002;" width="12" x="52.2" y="1"/><text fill="#000000" font-family="sans-serif" font-size="2.8" lengthAdjust="spacing" textLength="9.2" x="53.6" y="5.4215">:Parser</text><rect fill="#E2E2F0" height="6.5242" rx="0.5" ry="0.5" style="stroke:#181818;stroke-width:0.10000000000000002;" width="15.2" x="167.9" y="1"/><text fill="#000000" font-family="sans-serif" font-size="2.8" lengthAdjust="spacing" textLength="12.4" x="169.3" y="5.4215">data:Data</text><rect fill="#FFFF00" height="6.5242" rx="0.5" ry="0.5" style="stroke:#181818;stroke-width:0.10000000000000002;" width="24.2" x="185.1" y="1"/><text fill="#000000" font-family="sans-serif" font-size="2.8" lengthAdjust="spacing" textLength="21.4" x="186.5" y="5.4215">data:dietGoalList</text><rect fill="#FFFFFF" height="126.3875" style="stroke:#181818;stroke-width:0.20000000000000004;" width="2" x="7.8" y="9.7242"/><rect fill="#FFFFFF" height="75.5801" style="stroke:#181818;stroke-width:0.20000000000000004;" width="2" x="57.2" y="14.3824"/><rect fill="#FFFFFF" height="45.0813" style="stroke:#181818;stroke-width:0.20000000000000004;" width="2" x="58.2" y="22.2406"/><rect fill="#FFFFFF" height="6.7242" style="stroke:#181818;stroke-width:0.20000000000000004;" width="2" x="97.4" y="51.7395"/><rect fill="#FFFFFF" height="6.7242" style="stroke:#181818;stroke-width:0.20000000000000004;" width="2" x="122.3" y="76.9801"/><rect fill="#FFFFFF" height="38.091" style="stroke:#181818;stroke-width:0.20000000000000004;" width="2" x="122.3" y="96.2207"/><rect fill="#FFFFFF" height="6.7242" style="stroke:#181818;stroke-width:0.20000000000000004;" width="2" x="152.5" y="31.4988"/><rect fill="#FFFFFF" height="6.2582" style="stroke:#181818;stroke-width:0.20000000000000004;" width="2" x="174.5" y="102.4789"/><rect fill="#FFFFFF" height="2.8" style="stroke:#181818;stroke-width:0.20000000000000004;" width="2" x="196.2" y="120.2535"/><polygon fill="#181818" points="54.8,13.5824,56.8,14.3824,54.8,15.1824" style="stroke:#181818;stroke-width:0.20000000000000004;"/><line style="stroke:#181818;stroke-width:0.20000000000000004;" x1="9.8" x2="56" y1="14.3824" y2="14.3824"/><text fill="#000000" font-family="sans-serif" font-size="2.6" lengthAdjust="spacing" textLength="43.6" x="11.7" y="13.3299">ParseCommand("set-diet-goal fats/1")</text><line style="stroke:#181818;stroke-width:0.20000000000000004;" x1="59.2" x2="68.6" y1="19.6406" y2="19.6406"/><line style="stroke:#181818;stroke-width:0.20000000000000004;" x1="68.6" x2="68.6" y1="19.6406" y2="22.2406"/><line style="stroke:#181818;stroke-width:0.20000000000000004;" x1="60.4" x2="68.6" y1="22.2406" y2="22.2406"/><polygon fill="#181818" points="62.4,21.4406,60.4,22.2406,62.4,23.0406" style="stroke:#181818;stroke-width:0.20000000000000004;"/><text fill="#000000" font-family="sans-serif" font-size="2.6" lengthAdjust="spacing" textLength="35.4" x="61.6" y="18.5881">ParseDietGoalSetEdit("fats/1")</text><polygon fill="#181818" points="138.7,28.6988,140.7,29.4988,138.7,30.2988" style="stroke:#181818;stroke-width:0.20000000000000004;"/><line style="stroke:#181818;stroke-width:0.20000000000000004;" x1="60.2" x2="139.9" y1="29.4988" y2="29.4988"/><text fill="#000000" font-family="sans-serif" font-size="2.6" lengthAdjust="spacing" textLength="15.4" x="92.95" y="28.4463">dietGoalList()</text><rect fill="#FFFF00" height="6.5242" rx="0.5" ry="0.5" style="stroke:#181818;stroke-width:0.10000000000000002;" width="24.8" x="141.1" y="24.8406"/><text fill="#000000" font-family="sans-serif" font-size="2.8" lengthAdjust="spacing" textLength="22" x="142.5" y="29.2621">temp:dietGoalList</text><polygon fill="#181818" points="62.4,37.423,60.4,38.223,62.4,39.023" style="stroke:#181818;stroke-width:0.20000000000000004;"/><line style="stroke:#181818;stroke-width:0.20000000000000004;stroke-dasharray:2.0,2.0;" x1="61.2" x2="153.3" y1="38.223" y2="38.223"/><text fill="#000000" font-family="sans-serif" font-size="2.6" lengthAdjust="spacing" textLength="13.8" x="99.95" y="37.1705">dietGoalList</text><path d="M50.2,41.223 L64.8,41.223 L64.8,43.0813 L62.8,45.0813 L50.2,45.0813 L50.2,41.223 " fill="#EEEEEE" style="stroke:#000000;stroke-width:0.30000000000000004;"/><rect fill="none" height="18.8406" style="stroke:#000000;stroke-width:0.30000000000000004;" width="57.3" x="50.2" y="41.223"/><text fill="#000000" font-family="sans-serif" font-size="2.6" font-weight="bold" lengthAdjust="spacing" textLength="5.6" x="53.2" y="44.2287">loop</text><text fill="#000000" font-family="sans-serif" font-size="2.2" font-weight="bold" lengthAdjust="spacing" textLength="35.6" x="67.8" y="43.9971">[number of valid new diet goals]</text><polygon fill="#181818" points="88.9,48.9395,90.9,49.7395,88.9,50.5395" style="stroke:#181818;stroke-width:0.20000000000000004;"/><line style="stroke:#181818;stroke-width:0.20000000000000004;" x1="60.2" x2="90.1" y1="49.7395" y2="49.7395"/><text fill="#000000" font-family="sans-serif" font-size="2.6" lengthAdjust="spacing" textLength="11.2" x="70.15" y="48.6869">dietGoal()</text><rect fill="#FFFFE0" height="6.5242" rx="0.5" ry="0.5" style="stroke:#181818;stroke-width:0.10000000000000002;" width="14.2" x="91.3" y="45.0813"/><text fill="#000000" font-family="sans-serif" font-size="2.8" lengthAdjust="spacing" textLength="11.4" x="92.7" y="49.5027">:dietGoal</text><polygon fill="#181818" points="62.4,57.6637,60.4,58.4637,62.4,59.2637" style="stroke:#181818;stroke-width:0.20000000000000004;"/><line style="stroke:#181818;stroke-width:0.20000000000000004;stroke-dasharray:2.0,2.0;" x1="61.2" x2="98.2" y1="58.4637" y2="58.4637"/><text fill="#000000" font-family="sans-serif" font-size="2.6" lengthAdjust="spacing" textLength="9.6" x="74.5" y="57.4111">dietGoal</text><line style="stroke:#181818;stroke-width:0.20000000000000004;stroke-dasharray:2.0,2.0;" x1="60.2" x2="68.6" y1="67.1219" y2="67.1219"/><line style="stroke:#181818;stroke-width:0.20000000000000004;stroke-dasharray:2.0,2.0;" x1="68.6" x2="68.6" y1="67.1219" y2="69.7219"/><line style="stroke:#181818;stroke-width:0.20000000000000004;stroke-dasharray:2.0,2.0;" x1="59.2" x2="68.6" y1="69.7219" y2="69.7219"/><polygon fill="#181818" points="61.2,68.9219,59.2,69.7219,61.2,70.5219" style="stroke:#181818;stroke-width:0.20000000000000004;"/><text fill="#000000" font-family="sans-serif" font-size="2.6" lengthAdjust="spacing" textLength="13.8" x="61.6" y="66.0693">dietGoalList</text><polygon fill="#181818" points="105.1,74.1801,107.1,74.9801,105.1,75.7801" style="stroke:#181818;stroke-width:0.20000000000000004;"/><line style="stroke:#181818;stroke-width:0.20000000000000004;" x1="59.2" x2="106.3" y1="74.9801" y2="74.9801"/><text fill="#000000" font-family="sans-serif" font-size="2.6" lengthAdjust="spacing" textLength="27.4" x="69.65" y="73.9275">SetDietGoalCommand()</text><rect fill="#FFB6C1" height="6.5242" rx="0.5" ry="0.5" style="stroke:#181818;stroke-width:0.10000000000000002;" width="31.6" x="107.5" y="70.3219"/><text fill="#000000" font-family="sans-serif" font-size="2.8" lengthAdjust="spacing" textLength="28.8" x="108.9" y="74.7434">:SetDietGoalCommand</text><polygon fill="#181818" points="61.4,82.9043,59.4,83.7043,61.4,84.5043" style="stroke:#181818;stroke-width:0.20000000000000004;"/><line style="stroke:#181818;stroke-width:0.20000000000000004;stroke-dasharray:2.0,2.0;" x1="60.2" x2="123.1" y1="83.7043" y2="83.7043"/><text fill="#000000" font-family="sans-serif" font-size="2.6" lengthAdjust="spacing" textLength="25.8" x="78.35" y="82.6518">SetDietGoalCommand</text><polygon fill="#181818" points="12,89.1625,10,89.9625,12,90.7625" style="stroke:#181818;stroke-width:0.20000000000000004;"/><line style="stroke:#181818;stroke-width:0.20000000000000004;stroke-dasharray:2.0,2.0;" x1="10.8" x2="58" y1="89.9625" y2="89.9625"/><text fill="#000000" font-family="sans-serif" font-size="2.6" lengthAdjust="spacing" textLength="25.8" x="21.1" y="88.91">SetDietGoalCommand</text><polygon fill="#181818" points="119.9,95.4207,121.9,96.2207,119.9,97.0207" style="stroke:#181818;stroke-width:0.20000000000000004;"/><line style="stroke:#181818;stroke-width:0.20000000000000004;" x1="9.8" x2="121.1" y1="96.2207" y2="96.2207"/><text fill="#000000" font-family="sans-serif" font-size="2.6" lengthAdjust="spacing" textLength="10.8" x="60.65" y="95.1682">execute()</text><polygon fill="#181818" points="172.1,101.6789,174.1,102.4789,172.1,103.2789" style="stroke:#181818;stroke-width:0.20000000000000004;"/><line style="stroke:#181818;stroke-width:0.20000000000000004;" x1="124.3" x2="173.3" y1="102.4789" y2="102.4789"/><text fill="#000000" font-family="sans-serif" font-size="2.6" lengthAdjust="spacing" textLength="16.6" x="141.1" y="101.4264">getDietGoals()</text><polygon fill="#181818" points="126.5,107.9371,124.5,108.7371,126.5,109.5371" style="stroke:#181818;stroke-width:0.20000000000000004;"/><line style="stroke:#181818;stroke-width:0.20000000000000004;stroke-dasharray:2.0,2.0;" x1="125.3" x2="175.3" y1="108.7371" y2="108.7371"/><text fill="#000000" font-family="sans-serif" font-size="2.6" lengthAdjust="spacing" textLength="19.6" x="140.1" y="107.6846">data:dietGoalList</text><path d="M105.5,111.7371 L120.1,111.7371 L120.1,113.5953 L118.1,115.5953 L105.5,115.5953 L105.5,111.7371 " fill="#EEEEEE" style="stroke:#000000;stroke-width:0.30000000000000004;"/><rect fill="none" height="12.9164" style="stroke:#000000;stroke-width:0.30000000000000004;" width="105.8" x="105.5" y="111.7371"/><text fill="#000000" font-family="sans-serif" font-size="2.6" font-weight="bold" lengthAdjust="spacing" textLength="5.6" x="108.5" y="114.7428">loop</text><text fill="#000000" font-family="sans-serif" font-size="2.2" font-weight="bold" lengthAdjust="spacing" textLength="35.6" x="123.1" y="114.5111">[number of valid new diet goals]</text><polygon fill="#181818" points="193.8,119.4535,195.8,120.2535,193.8,121.0535" style="stroke:#181818;stroke-width:0.20000000000000004;"/><line style="stroke:#181818;stroke-width:0.20000000000000004;" x1="124.3" x2="195" y1="120.2535" y2="120.2535"/><text fill="#000000" font-family="sans-serif" font-size="2.6" lengthAdjust="spacing" textLength="5.8" x="157.35" y="119.201">add()</text><polygon fill="#181818" points="126.5,122.2535,124.5,123.0535,126.5,123.8535" style="stroke:#181818;stroke-width:0.20000000000000004;"/><line style="stroke:#181818;stroke-width:0.20000000000000004;stroke-dasharray:2.0,2.0;" x1="125.3" x2="197" y1="123.0535" y2="123.0535"/><line style="stroke:#A80036;stroke-width:0.4000000000000001;" x1="151.7" x2="155.3" y1="126.0535" y2="129.6535"/><line style="stroke:#A80036;stroke-width:0.4000000000000001;" x1="151.7" x2="155.3" y1="129.6535" y2="126.0535"/><polygon fill="#181818" points="12,133.5117,10,134.3117,12,135.1117" style="stroke:#181818;stroke-width:0.20000000000000004;"/><line style="stroke:#181818;stroke-width:0.20000000000000004;stroke-dasharray:2.0,2.0;" x1="10.8" x2="123.1" y1="134.3117" y2="134.3117"/><text fill="#000000" font-family="sans-serif" font-size="2.6" lengthAdjust="spacing" textLength="12" x="60.55" y="133.2592">messages</text><line style="stroke:#A80036;stroke-width:0.4000000000000001;" x1="121.5" x2="125.1" y1="132.5117" y2="136.1117"/><line style="stroke:#A80036;stroke-width:0.4000000000000001;" x1="121.5" x2="125.1" y1="136.1117" y2="132.5117"/><!--SRC=[bLJBJiCm4BpxAwnmQ54LAguz826A4198I7o1YPVKmeyGRoZzUnp7UTHEAf53PAzdTiVZjLS7nChkjjjACesDaZU5KLiBtmte0d8kM5apHUoNq1Lp8_gE9mdKOYsA5ZvT2QHNi9QLS2z5gHLef8NxGKqS2aKXAbU7PhjxF4X0yV3od55cwJYbLuvum0_PG4HvOxM5siExOO2MDO2Ei5m0FXacFRgV1Fm9f3J7YF0Ek0-m1wCKqznJqt18KWdzTPu2GLL3tHTXqITee_j9a5xDbUSCsMxlVfrUDsWdCvWalyVEvITanHeqkb4VplpHtyrcCg7vNV1oiw6xRXZskSuiODxMoylMkq-6TdkRNPFW_Gopr-5CU-G2rzd0AMfW28aParpnaiywtUtwcYHUveE8F8_WX53tIMCgsbb0pIVzOL9mgk7eeRJTb_MueAzFu6EZjZvyfidfQL53RoreyI3Gd0nxlQ0vo4YRRc9KkkXbfM4dSAPxe_8NIZdWs2XBuFDMMj06lr0q20k2xeP-z-1oX5Z7wDUydfJUUHZVZFyT_WLHSKCopljpZ-_Tahwn0JYuPzESqbkmS4oH-wfxL-sOQEOy_W00]--></g></svg>