<?xml version="1.0" encoding="us-ascii" standalone="no"?><svg xmlns="http://www.w3.org/2000/svg" xmlns:xlink="http://www.w3.org/1999/xlink" contentStyleType="text/css" height="427.2px" preserveAspectRatio="none" style="width:640px;height:427px;background:#FFFFFF;" version="1.1" viewBox="0 0 640 427" width="640.2px" zoomAndPan="magnify"><defs/><g><rect fill="#FFFFFF" height="388.7625" style="stroke:#181818;stroke-width:0.6;" width="6" x="23.4" y="29.1727"/><rect fill="#FFFFFF" height="226.7402" style="stroke:#181818;stroke-width:0.6;" width="6" x="171.6" y="43.1473"/><rect fill="#FFFFFF" height="135.2438" style="stroke:#181818;stroke-width:0.6;" width="6" x="174.6" y="66.7219"/><rect fill="#FFFFFF" height="20.1727" style="stroke:#181818;stroke-width:0.6;" width="6" x="292.2" y="155.2184"/><rect fill="#FFFFFF" height="20.1727" style="stroke:#181818;stroke-width:0.6;" width="6" x="367.5" y="230.9402"/><rect fill="#FFFFFF" height="123.873" style="stroke:#181818;stroke-width:0.6;" width="6" x="367.5" y="288.6621"/><rect fill="#FFFFFF" height="20.1727" style="stroke:#181818;stroke-width:0.6;" width="6" x="458.7" y="94.4965"/><rect fill="#FFFFFF" height="18.7746" style="stroke:#181818;stroke-width:0.6;" width="6" x="525.3" y="307.4367"/><rect fill="#FFFFFF" height="18" style="stroke:#181818;stroke-width:0.6;" width="6" x="591" y="360.7605"/><rect fill="none" height="56.5219" style="stroke:#000000;stroke-width:0.8999999999999999;" width="172.5" x="150.6" y="123.6691"/><rect fill="none" height="48.3492" style="stroke:#000000;stroke-width:0.8999999999999999;" width="319.8" x="317.1" y="335.2113"/><line style="stroke:#181818;stroke-width:0.3;stroke-dasharray:5.0,5.0;" x1="26.4" x2="26.4" y1="23.1727" y2="423.3352"/><line style="stroke:#181818;stroke-width:0.3;stroke-dasharray:5.0,5.0;" x1="174.6" x2="174.6" y1="23.1727" y2="423.3352"/><line style="stroke:#181818;stroke-width:0.3;stroke-dasharray:5.0,5.0;" x1="294.9" x2="294.9" y1="154.3301" y2="423.3352"/><line style="stroke:#181818;stroke-width:0.3;stroke-dasharray:5.0,5.0;" x1="370.5" x2="370.5" y1="230.052" y2="423.3352"/><line style="stroke:#181818;stroke-width:0.3;stroke-dasharray:5.0,5.0;" x1="461.7" x2="461.7" y1="93.6082" y2="423.3352"/><line style="stroke:#181818;stroke-width:0.3;stroke-dasharray:5.0,5.0;" x1="528.3" x2="528.3" y1="23.1727" y2="423.3352"/><line style="stroke:#181818;stroke-width:0.3;stroke-dasharray:5.0,5.0;" x1="593.7" x2="593.7" y1="23.1727" y2="423.3352"/><rect fill="#ADD8E6" height="19.5727" rx="1.5" ry="1.5" style="stroke:#181818;stroke-width:0.3;" width="46.8" x="3" y="3"/><text fill="#000000" font-family="sans-serif" font-size="8.4" lengthAdjust="spacing" textLength="38.4" x="7.2" y="16.2645">:AthletiCLI</text><rect fill="#90EE90" height="19.5727" rx="1.5" ry="1.5" style="stroke:#181818;stroke-width:0.3;" width="36" x="156.6" y="3"/><text fill="#000000" font-family="sans-serif" font-size="8.4" lengthAdjust="spacing" textLength="27.6" x="160.8" y="16.2645">:Parser</text><rect fill="#E2E2F0" height="19.5727" rx="1.5" ry="1.5" style="stroke:#181818;stroke-width:0.3;" width="45.6" x="505.5" y="3"/><text fill="#000000" font-family="sans-serif" font-size="8.4" lengthAdjust="spacing" textLength="37.2" x="509.7" y="16.2645">data:Data</text><rect fill="#FFFF00" height="19.5727" rx="1.5" ry="1.5" style="stroke:#181818;stroke-width:0.3;" width="73.8" x="557.1" y="3"/><text fill="#000000" font-family="sans-serif" font-size="8.4" lengthAdjust="spacing" textLength="65.4" x="561.3" y="16.2645">data:DietGoalList</text><rect fill="#FFFFFF" height="388.7625" style="stroke:#181818;stroke-width:0.6;" width="6" x="23.4" y="29.1727"/><rect fill="#FFFFFF" height="226.7402" style="stroke:#181818;stroke-width:0.6;" width="6" x="171.6" y="43.1473"/><rect fill="#FFFFFF" height="135.2438" style="stroke:#181818;stroke-width:0.6;" width="6" x="174.6" y="66.7219"/><rect fill="#FFFFFF" height="20.1727" style="stroke:#181818;stroke-width:0.6;" width="6" x="292.2" y="155.2184"/><rect fill="#FFFFFF" height="20.1727" style="stroke:#181818;stroke-width:0.6;" width="6" x="367.5" y="230.9402"/><rect fill="#FFFFFF" height="123.873" style="stroke:#181818;stroke-width:0.6;" width="6" x="367.5" y="288.6621"/><rect fill="#FFFFFF" height="20.1727" style="stroke:#181818;stroke-width:0.6;" width="6" x="458.7" y="94.4965"/><rect fill="#FFFFFF" height="18.7746" style="stroke:#181818;stroke-width:0.6;" width="6" x="525.3" y="307.4367"/><rect fill="#FFFFFF" height="18" style="stroke:#181818;stroke-width:0.6;" width="6" x="591" y="360.7605"/><polygon fill="#181818" points="164.4,40.7473,170.4,43.1473,164.4,45.5473" style="stroke:#181818;stroke-width:0.6;"/><line style="stroke:#181818;stroke-width:0.6;" x1="29.4" x2="168" y1="43.1473" y2="43.1473"/><text fill="#000000" font-family="sans-serif" font-size="7.8" lengthAdjust="spacing" textLength="130.8" x="35.1" y="39.9896">ParseCommand("set-diet-goal fats/1")</text><line style="stroke:#181818;stroke-width:0.6;" x1="177.6" x2="205.8" y1="58.9219" y2="58.9219"/><line style="stroke:#181818;stroke-width:0.6;" x1="205.8" x2="205.8" y1="58.9219" y2="66.7219"/><line style="stroke:#181818;stroke-width:0.6;" x1="181.2" x2="205.8" y1="66.7219" y2="66.7219"/><polygon fill="#181818" points="187.2,64.3219,181.2,66.7219,187.2,69.1219" style="stroke:#181818;stroke-width:0.6;"/><text fill="#000000" font-family="sans-serif" font-size="7.8" lengthAdjust="spacing" textLength="106.2" x="184.8" y="55.7643">ParseDietGoalSetEdit("fats/1")</text><polygon fill="#181818" points="416.7,86.0965,422.7,88.4965,416.7,90.8965" style="stroke:#181818;stroke-width:0.6;"/><line style="stroke:#181818;stroke-width:0.6;" x1="180.6" x2="420.3" y1="88.4965" y2="88.4965"/><text fill="#000000" font-family="sans-serif" font-size="7.8" lengthAdjust="spacing" textLength="46.2" x="279.15" y="85.3389">dietGoalList()</text><rect fill="#FFFF00" height="19.5727" rx="1.5" ry="1.5" style="stroke:#181818;stroke-width:0.3;" width="75.6" x="423.9" y="74.5219"/><text fill="#000000" font-family="sans-serif" font-size="8.4" lengthAdjust="spacing" textLength="67.2" x="428.1" y="87.7863">temp:DietGoalList</text><polygon fill="#181818" points="187.2,112.2691,181.2,114.6691,187.2,117.0691" style="stroke:#181818;stroke-width:0.6;"/><line style="stroke:#181818;stroke-width:0.6;stroke-dasharray:2.0,2.0;" x1="183.6" x2="461.1" y1="114.6691" y2="114.6691"/><text fill="#000000" font-family="sans-serif" font-size="7.8" lengthAdjust="spacing" textLength="62.4" x="289.95" y="111.5115">temp:DietGoalList</text><path d="M150.6,123.6691 L194.4,123.6691 L194.4,129.2438 L188.4,135.2438 L150.6,135.2438 L150.6,123.6691 " fill="#EEEEEE" style="stroke:#000000;stroke-width:0.8999999999999999;"/><rect fill="none" height="56.5219" style="stroke:#000000;stroke-width:0.8999999999999999;" width="172.5" x="150.6" y="123.6691"/><text fill="#000000" font-family="sans-serif" font-size="7.8" font-weight="bold" lengthAdjust="spacing" textLength="16.8" x="159.6" y="132.6861">loop</text><text fill="#000000" font-family="sans-serif" font-size="6.6" font-weight="bold" lengthAdjust="spacing" textLength="106.8" x="203.4" y="131.9912">[number of valid new diet goals]</text><polygon fill="#181818" points="266.1,146.8184,272.1,149.2184,266.1,151.6184" style="stroke:#181818;stroke-width:0.6;"/><line style="stroke:#181818;stroke-width:0.6;" x1="180.6" x2="269.7" y1="149.2184" y2="149.2184"/><text fill="#000000" font-family="sans-serif" font-size="7.8" lengthAdjust="spacing" textLength="34.8" x="209.55" y="146.0607">DietGoal()</text><rect fill="#FFFFE0" height="19.5727" rx="1.5" ry="1.5" style="stroke:#181818;stroke-width:0.3;" width="43.8" x="273.3" y="135.2438"/><text fill="#000000" font-family="sans-serif" font-size="8.4" lengthAdjust="spacing" textLength="35.4" x="277.5" y="148.5082">:DietGoal</text><polygon fill="#181818" points="187.2,172.991,181.2,175.391,187.2,177.791" style="stroke:#181818;stroke-width:0.6;"/><line style="stroke:#181818;stroke-width:0.6;stroke-dasharray:2.0,2.0;" x1="183.6" x2="294.6" y1="175.391" y2="175.391"/><text fill="#000000" font-family="sans-serif" font-size="7.8" lengthAdjust="spacing" textLength="32.4" x="221.7" y="172.2334">:DietGoal</text><line style="stroke:#181818;stroke-width:0.6;stroke-dasharray:2.0,2.0;" x1="180.6" x2="205.8" y1="201.3656" y2="201.3656"/><line style="stroke:#181818;stroke-width:0.6;stroke-dasharray:2.0,2.0;" x1="205.8" x2="205.8" y1="201.3656" y2="209.1656"/><line style="stroke:#181818;stroke-width:0.6;stroke-dasharray:2.0,2.0;" x1="177.6" x2="205.8" y1="209.1656" y2="209.1656"/><polygon fill="#181818" points="183.6,206.7656,177.6,209.1656,183.6,211.5656" style="stroke:#181818;stroke-width:0.6;"/><text fill="#000000" font-family="sans-serif" font-size="7.8" lengthAdjust="spacing" textLength="62.4" x="184.8" y="198.208">temp:DietGoalList</text><polygon fill="#181818" points="315.9,222.5402,321.9,224.9402,315.9,227.3402" style="stroke:#181818;stroke-width:0.6;"/><line style="stroke:#181818;stroke-width:0.6;" x1="177.6" x2="319.5" y1="224.9402" y2="224.9402"/><text fill="#000000" font-family="sans-serif" font-size="7.8" lengthAdjust="spacing" textLength="82.2" x="209.25" y="221.7826">SetDietGoalCommand()</text><rect fill="#FFB6C1" height="19.5727" rx="1.5" ry="1.5" style="stroke:#181818;stroke-width:0.3;" width="94.8" x="323.1" y="210.9656"/><text fill="#000000" font-family="sans-serif" font-size="8.4" lengthAdjust="spacing" textLength="86.4" x="327.3" y="224.2301">:SetDietGoalCommand</text><polygon fill="#181818" points="184.2,248.7129,178.2,251.1129,184.2,253.5129" style="stroke:#181818;stroke-width:0.6;"/><line style="stroke:#181818;stroke-width:0.6;stroke-dasharray:2.0,2.0;" x1="180.6" x2="369.9" y1="251.1129" y2="251.1129"/><text fill="#000000" font-family="sans-serif" font-size="7.8" lengthAdjust="spacing" textLength="79.8" x="234.15" y="247.9553">:SetDietGoalCommand</text><polygon fill="#181818" points="36,267.4875,30,269.8875,36,272.2875" style="stroke:#181818;stroke-width:0.6;"/><line style="stroke:#181818;stroke-width:0.6;stroke-dasharray:2.0,2.0;" x1="32.4" x2="174" y1="269.8875" y2="269.8875"/><text fill="#000000" font-family="sans-serif" font-size="7.8" lengthAdjust="spacing" textLength="79.8" x="62.1" y="266.7299">:SetDietGoalCommand</text><polygon fill="#181818" points="360.3,286.2621,366.3,288.6621,360.3,291.0621" style="stroke:#181818;stroke-width:0.6;"/><line style="stroke:#181818;stroke-width:0.6;" x1="29.4" x2="363.9" y1="288.6621" y2="288.6621"/><text fill="#000000" font-family="sans-serif" font-size="7.8" lengthAdjust="spacing" textLength="32.4" x="182.25" y="285.5045">execute()</text><polygon fill="#181818" points="518.1,305.0367,524.1,307.4367,518.1,309.8367" style="stroke:#181818;stroke-width:0.6;"/><line style="stroke:#181818;stroke-width:0.6;" x1="373.5" x2="521.7" y1="307.4367" y2="307.4367"/><text fill="#000000" font-family="sans-serif" font-size="7.8" lengthAdjust="spacing" textLength="49.8" x="424.5" y="304.2791">getDietGoals()</text><polygon fill="#181818" points="380.1,323.8113,374.1,326.2113,380.1,328.6113" style="stroke:#181818;stroke-width:0.6;"/><line style="stroke:#181818;stroke-width:0.6;stroke-dasharray:2.0,2.0;" x1="376.5" x2="527.7" y1="326.2113" y2="326.2113"/><text fill="#000000" font-family="sans-serif" font-size="7.8" lengthAdjust="spacing" textLength="60" x="420.9" y="323.0537">data:DietGoalList</text><path d="M317.1,335.2113 L360.9,335.2113 L360.9,340.7859 L354.9,346.7859 L317.1,346.7859 L317.1,335.2113 " fill="#EEEEEE" style="stroke:#000000;stroke-width:0.8999999999999999;"/><rect fill="none" height="48.3492" style="stroke:#000000;stroke-width:0.8999999999999999;" width="319.8" x="317.1" y="335.2113"/><text fill="#000000" font-family="sans-serif" font-size="7.8" font-weight="bold" lengthAdjust="spacing" textLength="16.8" x="326.1" y="344.2283">loop</text><text fill="#000000" font-family="sans-serif" font-size="6.6" font-weight="bold" lengthAdjust="spacing" textLength="106.8" x="369.9" y="343.5334">[number of valid new diet goals]</text><polygon fill="#181818" points="583.8,358.3605,589.8,360.7605,583.8,363.1605" style="stroke:#181818;stroke-width:0.6;"/><line style="stroke:#181818;stroke-width:0.6;" x1="373.5" x2="587.4" y1="360.7605" y2="360.7605"/><text fill="#000000" font-family="sans-serif" font-size="7.8" lengthAdjust="spacing" textLength="17.4" x="473.55" y="357.6029">add()</text><line style="stroke:#A80036;stroke-width:1.2;" x1="456.3" x2="467.1" y1="387.7605" y2="398.5605"/><line style="stroke:#A80036;stroke-width:1.2;" x1="456.3" x2="467.1" y1="398.5605" y2="387.7605"/><polygon fill="#181818" points="36,410.1352,30,412.5352,36,414.9352" style="stroke:#181818;stroke-width:0.6;"/><line style="stroke:#181818;stroke-width:0.6;stroke-dasharray:2.0,2.0;" x1="32.4" x2="369.9" y1="412.5352" y2="412.5352"/><text fill="#000000" font-family="sans-serif" font-size="7.8" lengthAdjust="spacing" textLength="58.8" x="170.55" y="409.3775">messages:String</text><line style="stroke:#A80036;stroke-width:1.2;" x1="365.1" x2="375.9" y1="407.1352" y2="417.9352"/><line style="stroke:#A80036;stroke-width:1.2;" x1="365.1" x2="375.9" y1="417.9352" y2="407.1352"/><!--SRC=[bLJRRjmW47tdAv3pa8rMTDLNFqIAaYggb4gLzWk8cNXHk3Xct7J_le3n9U1DL3zOC9mpSpWCN9yGErSV3ftY1WUjlZLM7noy3M0QO4BojkUQk5TfEkv7z8Xd1THXBvi0NwyaqYzmZhTmfsHhD1YaZVz1JpmAPICxNuTMzHsU5A2yV_fPKUxeCgLNddZ2PpL0HldDUmTzX8_316rx09DX7oJWe-KgeaMQ9FmPbBBl6U48E77khTRSY4Wjmob99ythnnG8kflhFac7CK68heFqQgkyuCZh1_yRzVf1c6nXylmHkvMVa6i-e3M3VlRcB_xkzwi9PRV9o_sUrkCmxNDNEK0Mh6DjyEw5epjyhsv8ydw3EUdmflqG4dVLp6bwu0Y56QjS-LBCAbQ1tGqfl6Ip2COyl3W1GgZ_bBKT7NsWzeN-uKeAQk0zfgTXSoxYaiYfQ8mj0gTm53OLyQ82QcwmJD0i9gB023Bl-2lbIKpPVolFoiKehWnxcHkDd8lzf9P7Barp4VsnhoweWx_G30WN9DtEpH_1xG9ndZ6jHK4bFGehhid_DS4delBkv28O6rZ59MICaENC1VZtqfxBzhzmA9dLUdnGNNtqhwvfbtmRH_0F]--></g></svg>