<?xml version="1.0" encoding="us-ascii" standalone="no"?><svg xmlns="http://www.w3.org/2000/svg" xmlns:xlink="http://www.w3.org/1999/xlink" contentStyleType="text/css" height="795px" preserveAspectRatio="none" style="width:1278px;height:795px;background:#FFFFFF;" version="1.1" viewBox="0 0 1278 795" width="1278px" zoomAndPan="magnify"><defs/><g><!--cluster athleticli--><g id="cluster_athleticli"><path d="M8.5,6 L83.5,6 A3.75,3.75 0 0 1 86,8.5 L93,28.2969 L1268.5,28.2969 A2.5,2.5 0 0 1 1271,30.7969 L1271,785.5 A2.5,2.5 0 0 1 1268.5,788 L8.5,788 A2.5,2.5 0 0 1 6,785.5 L6,8.5 A2.5,2.5 0 0 1 8.5,6 " fill="none" style="stroke:#000000;stroke-width:1.5;"/><line style="stroke:#000000;stroke-width:1.5;" x1="6" x2="93" y1="28.2969" y2="28.2969"/><text fill="#000000" font-family="sans-serif" font-size="14" font-weight="bold" lengthAdjust="spacing" textLength="74" x="10" y="20.9951">athleticli</text></g><!--cluster data--><g id="cluster_data"><path d="M32.5,49 L71.5,49 A3.75,3.75 0 0 1 74,51.5 L81,71.2969 L1244.5,71.2969 A2.5,2.5 0 0 1 1247,73.7969 L1247,761.5 A2.5,2.5 0 0 1 1244.5,764 L32.5,764 A2.5,2.5 0 0 1 30,761.5 L30,51.5 A2.5,2.5 0 0 1 32.5,49 " fill="none" style="stroke:#000000;stroke-width:1.5;"/><line style="stroke:#000000;stroke-width:1.5;" x1="30" x2="81" y1="71.2969" y2="71.2969"/><text fill="#000000" font-family="sans-serif" font-size="14" font-weight="bold" lengthAdjust="spacing" textLength="38" x="34" y="63.9951">data</text></g><!--cluster sleep--><g id="cluster_sleep"><path d="M56.5,92 L99.5,92 A3.75,3.75 0 0 1 102,94.5 L109,114.2969 L659.5,114.2969 A2.5,2.5 0 0 1 662,116.7969 L662,737.5 A2.5,2.5 0 0 1 659.5,740 L56.5,740 A2.5,2.5 0 0 1 54,737.5 L54,94.5 A2.5,2.5 0 0 1 56.5,92 " fill="none" style="stroke:#000000;stroke-width:1.5;"/><line style="stroke:#000000;stroke-width:1.5;" x1="54" x2="109" y1="114.2969" y2="114.2969"/><text fill="#000000" font-family="sans-serif" font-size="14" font-weight="bold" lengthAdjust="spacing" textLength="42" x="58" y="106.9951">sleep</text></g><!--class Findable--><g id="elem_Findable"><rect codeLine="3" fill="#F1F1F1" height="64.2969" id="Findable" rx="2.5" ry="2.5" style="stroke:#181818;stroke-width:0.5;" width="282" x="678" y="513"/><ellipse cx="778.75" cy="529" fill="#B4A7E5" rx="11" ry="11" style="stroke:#181818;stroke-width:1.0;"/><path d="M779.7031,525.7813 L781.4219,525.7813 C781.8125,525.7813 782,525.75 782.125,525.6719 C782.3906,525.5156 782.5313,525.2344 782.5313,524.9375 C782.5313,524.6719 782.4219,524.4063 782.1875,524.2344 C782.0156,524.125 781.875,524.0938 781.4219,524.0938 L776.2813,524.0938 C775.8438,524.0938 775.7188,524.1094 775.5625,524.2031 C775.3125,524.3594 775.1563,524.6563 775.1563,524.9375 C775.1563,525.2188 775.2969,525.4688 775.5156,525.6406 C775.6719,525.75 775.8594,525.7813 776.2813,525.7813 L778,525.7813 L778,532.2969 L776.2813,532.2969 C775.8438,532.2969 775.7188,532.3125 775.5625,532.4219 C775.3125,532.5781 775.1563,532.8594 775.1563,533.1563 C775.1563,533.4063 775.2969,533.6719 775.5156,533.8281 C775.6719,533.9531 775.875,534 776.2813,534 L781.4219,534 C782.1719,534 782.5313,533.7188 782.5313,533.1563 C782.5313,532.875 782.4219,532.625 782.1875,532.4531 C782.0156,532.3281 781.875,532.2969 781.4219,532.2969 L779.7031,532.2969 L779.7031,525.7813 Z " fill="#000000"/><text fill="#000000" font-family="sans-serif" font-size="14" font-style="italic" lengthAdjust="spacing" textLength="61" x="799.25" y="533.8467">Findable</text><rect fill="#FFFFFF" height="15.9688" style="stroke:#181818;stroke-width:1.0;stroke-dasharray:2.0,2.0;" width="9" x="954" y="510"/><text fill="#000000" font-family="sans-serif" font-size="12" font-style="italic" lengthAdjust="spacing" textLength="7" x="955" y="522.1387">T</text><line style="stroke:#181818;stroke-width:0.5;" x1="679" x2="959" y1="545" y2="545"/><line style="stroke:#181818;stroke-width:0.5;" x1="679" x2="959" y1="553" y2="553"/><ellipse cx="689" cy="566.6484" fill="#84BE84" rx="3" ry="3" style="stroke:#038048;stroke-width:1.0;"/><text fill="#000000" font-family="sans-serif" font-size="14" lengthAdjust="spacing" textLength="256" x="698" y="569.9951">find(date: LocalDate): ArrayList&lt;T&gt;</text></g><!--class StorableList--><g id="elem_StorableList"><rect codeLine="7" fill="#F1F1F1" height="145.7813" id="StorableList" rx="2.5" ry="2.5" style="stroke:#181818;stroke-width:0.5;" width="236" x="995" y="472"/><ellipse cx="1059.25" cy="488" fill="#ADD1B2" rx="11" ry="11" style="stroke:#181818;stroke-width:1.0;"/><path d="M1061.5938,483.6719 C1060.6563,483.2344 1060.0625,483.0938 1059.1875,483.0938 C1056.5625,483.0938 1054.5625,485.1719 1054.5625,487.8906 L1054.5625,489.0156 C1054.5625,491.5938 1056.6719,493.4844 1059.5625,493.4844 C1060.7813,493.4844 1061.9375,493.1875 1062.6875,492.6406 C1063.2656,492.2344 1063.5938,491.7813 1063.5938,491.3906 C1063.5938,490.9375 1063.2031,490.5469 1062.7344,490.5469 C1062.5156,490.5469 1062.3125,490.625 1062.125,490.8125 C1061.6719,491.2969 1061.6719,491.2969 1061.4844,491.3906 C1061.0625,491.6563 1060.375,491.7813 1059.6094,491.7813 C1057.5625,491.7813 1056.2656,490.6875 1056.2656,488.9844 L1056.2656,487.8906 C1056.2656,486.1094 1057.5156,484.7969 1059.25,484.7969 C1059.8281,484.7969 1060.4375,484.9531 1060.9063,485.2031 C1061.3906,485.4844 1061.5625,485.7031 1061.6563,486.1094 C1061.7188,486.5156 1061.75,486.6406 1061.8906,486.7656 C1062.0313,486.9063 1062.2656,487.0156 1062.4844,487.0156 C1062.75,487.0156 1063.0156,486.875 1063.1875,486.6563 C1063.2969,486.5 1063.3281,486.3125 1063.3281,485.8906 L1063.3281,484.4688 C1063.3281,484.0313 1063.3125,483.9063 1063.2188,483.75 C1063.0625,483.4844 1062.7813,483.3438 1062.4844,483.3438 C1062.1875,483.3438 1061.9844,483.4375 1061.7656,483.75 L1061.5938,483.6719 Z " fill="#000000"/><text fill="#000000" font-family="sans-serif" font-size="14" lengthAdjust="spacing" textLength="88" x="1079.75" y="492.8467">StorableList</text><rect fill="#FFFFFF" height="15.9688" style="stroke:#181818;stroke-width:1.0;stroke-dasharray:2.0,2.0;" width="9" x="1225" y="469"/><text fill="#000000" font-family="sans-serif" font-size="12" font-style="italic" lengthAdjust="spacing" textLength="7" x="1226" y="481.1387">T</text><line style="stroke:#181818;stroke-width:0.5;" x1="996" x2="1230" y1="504" y2="504"/><rect fill="none" height="6" style="stroke:#C82930;stroke-width:1.0;" width="6" x="1003" y="514.6484"/><text fill="#000000" font-family="sans-serif" font-size="14" lengthAdjust="spacing" textLength="87" x="1015" y="520.9951">path: String</text><line style="stroke:#181818;stroke-width:0.5;" x1="996" x2="1230" y1="528.2969" y2="528.2969"/><ellipse cx="1006" cy="541.9453" fill="#84BE84" rx="3" ry="3" style="stroke:#038048;stroke-width:1.0;"/><text fill="#000000" font-family="sans-serif" font-size="14" lengthAdjust="spacing" textLength="185" x="1015" y="545.292">StorableList(path: String)</text><ellipse cx="1006" cy="558.2422" fill="#84BE84" rx="3" ry="3" style="stroke:#038048;stroke-width:1.0;"/><text fill="#000000" font-family="sans-serif" font-size="14" lengthAdjust="spacing" textLength="81" x="1015" y="561.5889">save(): void</text><ellipse cx="1006" cy="574.5391" fill="#84BE84" rx="3" ry="3" style="stroke:#038048;stroke-width:1.0;"/><text fill="#000000" font-family="sans-serif" font-size="14" lengthAdjust="spacing" textLength="79" x="1015" y="577.8857">load(): void</text><ellipse cx="1006" cy="590.8359" fill="#84BE84" rx="3" ry="3" style="stroke:#038048;stroke-width:1.0;"/><text fill="#000000" font-family="sans-serif" font-size="14" lengthAdjust="spacing" textLength="193" x="1015" y="594.1826">abstract parse(s: String): T</text><ellipse cx="1006" cy="607.1328" fill="#84BE84" rx="3" ry="3" style="stroke:#038048;stroke-width:1.0;"/><text fill="#000000" font-family="sans-serif" font-size="14" lengthAdjust="spacing" textLength="210" x="1015" y="610.4795">abstract unparse(t: T): String</text></g><!--class Sleep--><g id="elem_Sleep"><rect codeLine="20" fill="#F1F1F1" height="357.6406" id="Sleep" rx="2.5" ry="2.5" style="stroke:#181818;stroke-width:0.5;" width="512" x="102" y="366"/><ellipse cx="333.25" cy="382" fill="#ADD1B2" rx="11" ry="11" style="stroke:#181818;stroke-width:1.0;"/><path d="M335.5938,377.6719 C334.6563,377.2344 334.0625,377.0938 333.1875,377.0938 C330.5625,377.0938 328.5625,379.1719 328.5625,381.8906 L328.5625,383.0156 C328.5625,385.5938 330.6719,387.4844 333.5625,387.4844 C334.7813,387.4844 335.9375,387.1875 336.6875,386.6406 C337.2656,386.2344 337.5938,385.7813 337.5938,385.3906 C337.5938,384.9375 337.2031,384.5469 336.7344,384.5469 C336.5156,384.5469 336.3125,384.625 336.125,384.8125 C335.6719,385.2969 335.6719,385.2969 335.4844,385.3906 C335.0625,385.6563 334.375,385.7813 333.6094,385.7813 C331.5625,385.7813 330.2656,384.6875 330.2656,382.9844 L330.2656,381.8906 C330.2656,380.1094 331.5156,378.7969 333.25,378.7969 C333.8281,378.7969 334.4375,378.9531 334.9063,379.2031 C335.3906,379.4844 335.5625,379.7031 335.6563,380.1094 C335.7188,380.5156 335.75,380.6406 335.8906,380.7656 C336.0313,380.9063 336.2656,381.0156 336.4844,381.0156 C336.75,381.0156 337.0156,380.875 337.1875,380.6563 C337.2969,380.5 337.3281,380.3125 337.3281,379.8906 L337.3281,378.4688 C337.3281,378.0313 337.3125,377.9063 337.2188,377.75 C337.0625,377.4844 336.7813,377.3438 336.4844,377.3438 C336.1875,377.3438 335.9844,377.4375 335.7656,377.75 L335.5938,377.6719 Z " fill="#000000"/><text fill="#000000" font-family="sans-serif" font-size="14" lengthAdjust="spacing" textLength="41" x="353.75" y="386.8467">Sleep</text><line style="stroke:#181818;stroke-width:0.5;" x1="103" x2="613" y1="398" y2="398"/><rect fill="none" height="6" style="stroke:#C82930;stroke-width:1.0;" width="6" x="110" y="408.6484"/><text fill="#000000" font-family="sans-serif" font-size="14" lengthAdjust="spacing" textLength="374" x="122" y="414.9951">static DATE_TIME_FORMATTER: DateTimeFormatter</text><rect fill="none" height="6" style="stroke:#C82930;stroke-width:1.0;" width="6" x="110" y="424.9453"/><text fill="#000000" font-family="sans-serif" font-size="14" lengthAdjust="spacing" textLength="333" x="122" y="431.292">static DATE_FORMATTER: DateTimeFormatter</text><rect fill="none" height="6" style="stroke:#C82930;stroke-width:1.0;" width="6" x="110" y="441.2422"/><text fill="#000000" font-family="sans-serif" font-size="14" lengthAdjust="spacing" textLength="223" x="122" y="447.5889">startDateTime: LocalDateTime</text><rect fill="none" height="6" style="stroke:#C82930;stroke-width:1.0;" width="6" x="110" y="457.5391"/><text fill="#000000" font-family="sans-serif" font-size="14" lengthAdjust="spacing" textLength="204" x="122" y="463.8857">toDateTime: LocalDateTime</text><rect fill="none" height="6" style="stroke:#C82930;stroke-width:1.0;" width="6" x="110" y="473.8359"/><text fill="#000000" font-family="sans-serif" font-size="14" lengthAdjust="spacing" textLength="205" x="122" y="480.1826">sleepingDuration: LocalTime</text><rect fill="none" height="6" style="stroke:#C82930;stroke-width:1.0;" width="6" x="110" y="490.1328"/><text fill="#000000" font-family="sans-serif" font-size="14" lengthAdjust="spacing" textLength="155" x="122" y="496.4795">sleepDate: LocalDate</text><line style="stroke:#181818;stroke-width:0.5;" x1="103" x2="613" y1="503.7813" y2="503.7813"/><ellipse cx="113" cy="517.4297" fill="#84BE84" rx="3" ry="3" style="stroke:#038048;stroke-width:1.0;"/><text fill="#000000" font-family="sans-serif" font-size="14" lengthAdjust="spacing" textLength="486" x="122" y="520.7764">Sleep(startDateTime: LocalDateTime, toDateTime: LocalDateTime)</text><ellipse cx="113" cy="533.7266" fill="#84BE84" rx="3" ry="3" style="stroke:#038048;stroke-width:1.0;"/><text fill="#000000" font-family="sans-serif" font-size="14" lengthAdjust="spacing" textLength="260" x="122" y="537.0732">getStartDateTime(): LocalDateTime</text><ellipse cx="113" cy="550.0234" fill="#84BE84" rx="3" ry="3" style="stroke:#038048;stroke-width:1.0;"/><text fill="#000000" font-family="sans-serif" font-size="14" lengthAdjust="spacing" textLength="241" x="122" y="553.3701">getToDateTime(): LocalDateTime</text><ellipse cx="113" cy="566.3203" fill="#84BE84" rx="3" ry="3" style="stroke:#038048;stroke-width:1.0;"/><text fill="#000000" font-family="sans-serif" font-size="14" lengthAdjust="spacing" textLength="192" x="122" y="569.667">getSleepDate(): LocalDate</text><ellipse cx="113" cy="582.6172" fill="#84BE84" rx="3" ry="3" style="stroke:#038048;stroke-width:1.0;"/><text fill="#000000" font-family="sans-serif" font-size="14" lengthAdjust="spacing" textLength="216" x="122" y="585.9639">getSleepingTime(): LocalTime</text><ellipse cx="113" cy="598.9141" fill="#84BE84" rx="3" ry="3" style="stroke:#038048;stroke-width:1.0;"/><text fill="#000000" font-family="sans-serif" font-size="14" lengthAdjust="spacing" textLength="123" x="122" y="602.2607">toString(): String</text><ellipse cx="113" cy="615.2109" fill="#84BE84" rx="3" ry="3" style="stroke:#038048;stroke-width:1.0;"/><text fill="#000000" font-family="sans-serif" font-size="14" lengthAdjust="spacing" textLength="184" x="122" y="618.5576">toDetailedString(): String</text><rect fill="#F24D5C" height="6" style="stroke:#C82930;stroke-width:1.0;" width="6" x="110" y="628.5078"/><text fill="#000000" font-family="sans-serif" font-size="14" lengthAdjust="spacing" textLength="281" x="122" y="634.8545">calculateSleepingDuration(): LocalTime</text><rect fill="#F24D5C" height="6" style="stroke:#C82930;stroke-width:1.0;" width="6" x="110" y="644.8047"/><text fill="#000000" font-family="sans-serif" font-size="14" lengthAdjust="spacing" textLength="231" x="122" y="651.1514">calculateSleepDate(): LocalDate</text><rect fill="#F24D5C" height="6" style="stroke:#C82930;stroke-width:1.0;" width="6" x="110" y="661.1016"/><text fill="#000000" font-family="sans-serif" font-size="14" lengthAdjust="spacing" textLength="349" x="122" y="667.4482">generateSleepingDurationStringOutput(): String</text><rect fill="#F24D5C" height="6" style="stroke:#C82930;stroke-width:1.0;" width="6" x="110" y="677.3984"/><text fill="#000000" font-family="sans-serif" font-size="14" lengthAdjust="spacing" textLength="332" x="122" y="683.7451">generateStartDateTimeStringOutput(): String</text><rect fill="#F24D5C" height="6" style="stroke:#C82930;stroke-width:1.0;" width="6" x="110" y="693.6953"/><text fill="#000000" font-family="sans-serif" font-size="14" lengthAdjust="spacing" textLength="313" x="122" y="700.042">generateToDateTimeStringOutput(): String</text><rect fill="#F24D5C" height="6" style="stroke:#C82930;stroke-width:1.0;" width="6" x="110" y="709.9922"/><text fill="#000000" font-family="sans-serif" font-size="14" lengthAdjust="spacing" textLength="300" x="122" y="716.3389">generateSleepDateStringOutput(): String</text></g><!--class SleepList--><g id="elem_SleepList"><rect codeLine="43" fill="#F1F1F1" height="162.0781" id="SleepList" rx="2.5" ry="2.5" style="stroke:#181818;stroke-width:0.5;" width="575" x="70.5" y="127"/><ellipse cx="320.25" cy="143" fill="#ADD1B2" rx="11" ry="11" style="stroke:#181818;stroke-width:1.0;"/><path d="M322.5938,138.6719 C321.6563,138.2344 321.0625,138.0938 320.1875,138.0938 C317.5625,138.0938 315.5625,140.1719 315.5625,142.8906 L315.5625,144.0156 C315.5625,146.5938 317.6719,148.4844 320.5625,148.4844 C321.7813,148.4844 322.9375,148.1875 323.6875,147.6406 C324.2656,147.2344 324.5938,146.7813 324.5938,146.3906 C324.5938,145.9375 324.2031,145.5469 323.7344,145.5469 C323.5156,145.5469 323.3125,145.625 323.125,145.8125 C322.6719,146.2969 322.6719,146.2969 322.4844,146.3906 C322.0625,146.6563 321.375,146.7813 320.6094,146.7813 C318.5625,146.7813 317.2656,145.6875 317.2656,143.9844 L317.2656,142.8906 C317.2656,141.1094 318.5156,139.7969 320.25,139.7969 C320.8281,139.7969 321.4375,139.9531 321.9063,140.2031 C322.3906,140.4844 322.5625,140.7031 322.6563,141.1094 C322.7188,141.5156 322.75,141.6406 322.8906,141.7656 C323.0313,141.9063 323.2656,142.0156 323.4844,142.0156 C323.75,142.0156 324.0156,141.875 324.1875,141.6563 C324.2969,141.5 324.3281,141.3125 324.3281,140.8906 L324.3281,139.4688 C324.3281,139.0313 324.3125,138.9063 324.2188,138.75 C324.0625,138.4844 323.7813,138.3438 323.4844,138.3438 C323.1875,138.3438 322.9844,138.4375 322.7656,138.75 L322.5938,138.6719 Z " fill="#000000"/><text fill="#000000" font-family="sans-serif" font-size="14" lengthAdjust="spacing" textLength="67" x="340.75" y="147.8467">SleepList</text><line style="stroke:#181818;stroke-width:0.5;" x1="71.5" x2="644.5" y1="159" y2="159"/><line style="stroke:#181818;stroke-width:0.5;" x1="71.5" x2="644.5" y1="167" y2="167"/><ellipse cx="81.5" cy="180.6484" fill="#84BE84" rx="3" ry="3" style="stroke:#038048;stroke-width:1.0;"/><text fill="#000000" font-family="sans-serif" font-size="14" lengthAdjust="spacing" textLength="77" x="90.5" y="183.9951">SleepList()</text><ellipse cx="81.5" cy="196.9453" fill="#84BE84" rx="3" ry="3" style="stroke:#038048;stroke-width:1.0;"/><text fill="#000000" font-family="sans-serif" font-size="14" lengthAdjust="spacing" textLength="288" x="90.5" y="200.292">find(date: LocalDate): ArrayList&lt;Sleep&gt;</text><ellipse cx="81.5" cy="213.2422" fill="#84BE84" rx="3" ry="3" style="stroke:#038048;stroke-width:1.0;"/><text fill="#000000" font-family="sans-serif" font-size="14" lengthAdjust="spacing" textLength="78" x="90.5" y="216.5889">sort(): void</text><ellipse cx="81.5" cy="229.5391" fill="#84BE84" rx="3" ry="3" style="stroke:#038048;stroke-width:1.0;"/><text fill="#000000" font-family="sans-serif" font-size="14" lengthAdjust="spacing" textLength="458" x="90.5" y="232.8857">filterByTimespan(timeSpan: Goal.TimeSpan): ArrayList&lt;Sleep&gt;</text><ellipse cx="81.5" cy="245.8359" fill="#84BE84" rx="3" ry="3" style="stroke:#038048;stroke-width:1.0;"/><text fill="#000000" font-family="sans-serif" font-size="14" lengthAdjust="spacing" textLength="549" x="90.5" y="249.1826">getTotalSleepDuration(sleepClass: Class&lt;?&gt;, timeSpan: Goal.TimeSpan): int</text><ellipse cx="81.5" cy="262.1328" fill="#84BE84" rx="3" ry="3" style="stroke:#038048;stroke-width:1.0;"/><text fill="#000000" font-family="sans-serif" font-size="14" lengthAdjust="spacing" textLength="160" x="90.5" y="265.4795">parse(s: String): Sleep</text><ellipse cx="81.5" cy="278.4297" fill="#84BE84" rx="3" ry="3" style="stroke:#038048;stroke-width:1.0;"/><text fill="#000000" font-family="sans-serif" font-size="14" lengthAdjust="spacing" textLength="209" x="90.5" y="281.7764">unparse(sleep: Sleep): String</text></g><!--link SleepList to StorableList--><g id="link_SleepList_StorableList"><path codeLine="53" d="M645.674,240.523 C756.417,262.833 879.756,300.933 978,366 C1017.94,392.449 1041.1295,419.598 1064.4095,456.358 " fill="none" id="SleepList-to-StorableList" style="stroke:#181818;stroke-width:1.0;"/><polygon fill="none" points="1074.04,471.565,1069.4785,453.1478,1059.3405,459.5682,1074.04,471.565" style="stroke:#181818;stroke-width:1.0;"/></g><!--link SleepList to Sleep--><g id="link_SleepList_Sleep"><path codeLine="54" d="M358,289.241 C358,312.566 358,333.023 358,359.846 " fill="none" id="SleepList-to-Sleep" style="stroke:#181818;stroke-width:1.0;stroke-dasharray:7.0,7.0;"/><polygon fill="#181818" points="358,365.846,362,356.846,358,360.846,354,356.846,358,365.846" style="stroke:#181818;stroke-width:1.0;"/><text fill="#000000" font-family="sans-serif" font-size="13" lengthAdjust="spacing" textLength="7" x="359" y="332.0669">*</text></g><!--link SleepList to Findable--><g id="link_SleepList_Findable"><path codeLine="55" d="M540.348,289.197 C582.154,311.307 625.114,337.232 662,366 C717.725,409.459 758.6303,460.041 786.5723,498.292 " fill="none" id="SleepList-to-Findable" style="stroke:#181818;stroke-width:1.0;stroke-dasharray:7.0,7.0;"/><polygon fill="none" points="797.19,512.827,791.4173,494.7528,781.7274,501.8313,797.19,512.827" style="stroke:#181818;stroke-width:1.0;"/></g><!--SRC=[bLNRRgCm47tdAwm-mUx21w2ALLgIrKgjAZMyLrDmKgikHlPGgMhpxplcafZ4f5bU0ZFddBdPamRALzXo1lWYEOfIYgG21FOP18mUKIFN6oWvMucwWcV9hukCd6nuVh8DsKEYy9JTgH9aJgzHoXPQmyUTC4Zu3hth1Ki9nh0rAct51e0Z6BE6Kaa9eKMztPkTW2utTC6H0pBmpaDAurs9oZ5B1PN73Cy6DPH8iRNXeTahfgpmmTgw1oBveqckku3gRFmzJOpal1axEpHYC1tADmX4OVcYM3uLV- -NJwk7n_j5KImVKsPxMuWtlbBw3P0cCyExdA9n13ZZivyE3DNtcAuqQaBUQaf3rGFIXygdPoLmHslzuRcqVirduuv_ot7jgjYP-rFli8Mw4BWU2vZWF1XgnKJkI0fLVsR2wEIaMsVE4OJarImePgHPjfA2huywxmzvJ9Yl8QOQQguzodqE3oqsBNfpsXFTrb_CEWpXya1ZAMSOkvFhPXV7P8NjhM7qFukjesNkqb4QFTjb8oJTkviFMvffe0xHraWlAVkZG2R5y7bUl3kc2BAlUHnsTwDkRMqfwtwkVsTqHsO3q3vtD4_NNQVk8CPDryKPtDx-7ZeRnr_PP4aV-PCawxzITlNZwiH9vF6l9jZz0m00]--></g></svg>